<svg version="1.2" baseProfile="tiny-ps" xmlns="http://www.w3.org/2000/svg" viewBox="0 0 350 268" width="350" height="268">
	<title>about-1-svg</title>
	<style>
		tspan { white-space:pre }
		.s0 { fill: #f5bfba }
		.s1 { fill: #06196a }
		.s2 { fill: #9ba9dd }
		.s3 { fill: #ffffff }
		.s4 { fill: #9ba9dd;stroke: #06196a;stroke-width: 3 }
	</style>
	<g id="Layer">
		<g id="Layer" style="opacity: 0.5">
			<g id="XMLID_256_">
				<g id="Layer">
					<g id="Layer">
						<path id="Layer" class="s0" d="m288.45 135.36h-1.52c-3.15 0-5.72-2.56-5.72-5.71v-20.64c0-3.16 2.56-5.71 5.72-5.71h1.52c3.16 0 5.71 2.56 5.71 5.71v20.64c0 3.15-2.56 5.71-5.71 5.71z"/>
					</g>
				</g>
			</g>
			<g id="XMLID_255_">
				<g id="Layer">
					<g id="Layer">
						<path id="Layer" class="s0" d="m306.15 135.36h-1.52c-3.15 0-5.71-2.56-5.71-5.71v-13.59c0-3.16 2.56-5.71 5.71-5.71h1.52c3.15 0 5.71 2.56 5.71 5.71v13.59c0 3.15-2.56 5.71-5.71 5.71z"/>
					</g>
				</g>
			</g>
			<g id="XMLID_254_">
				<g id="Layer">
					<g id="Layer">
						<path id="Layer" class="s0" d="m323.85 135.36h-1.52c-3.15 0-5.71-2.56-5.71-5.71v-29.83c0-3.15 2.56-5.71 5.71-5.71h1.52c3.15 0 5.71 2.56 5.71 5.71v29.83c0 3.15-2.56 5.71-5.71 5.71z"/>
					</g>
				</g>
			</g>
			<g id="XMLID_253_">
				<g id="Layer">
					<g id="Layer">
						<path id="Layer" class="s0" d="m341.54 135.36h-1.52c-3.15 0-5.71-2.56-5.71-5.71v-6.6c0-3.16 2.56-5.71 5.71-5.71h1.52c3.15 0 5.71 2.56 5.71 5.71v6.6c0 3.15-2.56 5.71-5.71 5.71z"/>
					</g>
				</g>
			</g>
			<g id="Layer">
				<g id="Layer">
					<g id="Layer">
						<path id="Layer" class="s0" d="m349.43 138.84h-70.37c-0.31 0-0.58-0.29-0.58-0.66c0-0.36 0.26-0.65 0.58-0.65h70.37c0.31 0 0.57 0.29 0.57 0.65c0 0.36-0.26 0.66-0.57 0.66z"/>
					</g>
				</g>
			</g>
		</g>
		<g id="Layer" style="opacity: 0.1">
			<g id="Layer">
				<path id="Layer" fill-rule="evenodd" class="s1" d="m250.17 120.3c-12.36 11.02-31.28 9.97-42.35-2.39c-11.02-12.31-9.96-31.28 2.39-42.3c12.35-11.02 31.27-9.97 42.3 2.39c11.06 12.31 9.96 31.28-2.34 42.3zm-32.79-36.7c-7.94 7.07-8.64 19.24-1.52 27.19c7.08 7.9 19.25 8.59 27.14 1.52c7.94-7.07 8.59-19.24 1.52-27.19c-7.07-7.9-19.25-8.59-27.14-1.52z"/>
			</g>
		</g>
		<g id="Layer" style="opacity: 0.1">
			<g id="Layer">
				<path id="Layer" class="s1" d="m290.8 247.84c-16.21 2.29-31.21-8.99-33.51-25.2c-2.29-16.22 8.99-31.22 25.2-33.51c16.21-2.29 31.21 8.99 33.51 25.2c2.29 16.21-8.98 31.21-25.2 33.51z"/>
			</g>
		</g>
		<g id="Layer" style="opacity: 0.7">
			<g id="Layer">
				<path id="Layer" class="s2" d="m114.57 82.29l5.88-1.86l1.86-5.88l1.86 5.88l5.88 1.86l-5.88 1.86l-1.86 5.88l-1.86-5.88l-5.88-1.86z"/>
				<path id="Layer" fill-rule="evenodd" class="s1" d="m107.62 82.3l11.15-3.54l3.54-11.15l3.54 11.15l11.15 3.54l-11.15 3.53l-3.54 11.15l-3.54-11.15l-11.15-3.53zm13.89-0.01l0.61 0.19l0.19 0.61l0.19-0.61l0.61-0.19l-0.61-0.19l-0.19-0.61l-0.19 0.61l-0.61 0.19z"/>
			</g>
			<g id="Layer">
				<path id="Layer" fill-rule="evenodd" class="s1" d="m122.31 90.9c-0.38 0-0.71-0.24-0.82-0.6l-1.73-5.45l-5.45-1.73c-0.36-0.11-0.6-0.45-0.6-0.82c0-0.38 0.24-0.71 0.6-0.82l5.45-1.73l1.73-5.45c0.23-0.72 1.42-0.72 1.64 0l1.73 5.45l5.45 1.73c0.36 0.11 0.6 0.45 0.6 0.82c0 0.38-0.24 0.71-0.6 0.82l-5.45 1.73l-1.73 5.45c-0.11 0.36-0.45 0.6-0.82 0.6zm-4.89-8.61l3.29 1.04c0.27 0.08 0.48 0.29 0.56 0.56l1.04 3.29l1.04-3.29c0.09-0.27 0.29-0.48 0.56-0.56l3.29-1.04l-3.29-1.04c-0.27-0.09-0.47-0.3-0.56-0.56l-1.04-3.29l-1.04 3.29c-0.08 0.27-0.29 0.48-0.56 0.56l-3.29 1.04z"/>
			</g>
		</g>
		<g id="Layer" style="opacity: 0.5">
			<g id="Layer">
				<path id="Layer" fill-rule="evenodd" class="s1" d="m301.82 197.75l-9.23-1.96c-0.39-0.08-0.68-0.43-0.68-0.84c0-0.41 0.29-0.76 0.68-0.85l9.23-1.97l1.97-9.23c0.17-0.79 1.52-0.79 1.69 0l1.97 9.23l9.23 1.97c0.4 0.09 0.68 0.44 0.68 0.85c0 0.41-0.28 0.76-0.68 0.84l-9.23 1.96l-1.97 9.23c-0.09 0.39-0.43 0.68-0.84 0.68h-0.01c-0.41 0-0.76-0.29-0.84-0.68l-1.97-9.23zm-4.91-2.81l5.82 1.24c0.33 0.07 0.59 0.33 0.66 0.66l1.24 5.82l1.24-5.82c0.07-0.34 0.33-0.59 0.66-0.66l5.82-1.24l-5.82-1.24c-0.33-0.07-0.59-0.33-0.66-0.66l-1.24-5.82l-1.24 5.82c-0.07 0.33-0.33 0.59-0.66 0.66l-5.82 1.24z"/>
			</g>
		</g>
		<g id="Layer" style="opacity: 0.5">
			<g id="Layer">
				<path id="Layer" fill-rule="evenodd" class="s1" d="m320.26 178.26c-0.2 0-0.38-0.14-0.42-0.34l-0.98-4.62l-4.61-0.98c-0.2-0.05-0.34-0.22-0.34-0.43c0-0.2 0.14-0.38 0.34-0.42l4.61-0.98l0.98-4.61c0.08-0.4 0.76-0.4 0.85 0l0.98 4.61l4.61 0.98c0.2 0.04 0.34 0.22 0.34 0.42c0 0.21-0.14 0.38-0.34 0.43l-4.61 0.98l-0.98 4.62c-0.04 0.2-0.22 0.34-0.42 0.34h-0.01zm-3.86-6.36l2.9 0.62c0.17 0.03 0.3 0.16 0.33 0.33l0.62 2.91l0.62-2.91c0.04-0.16 0.16-0.29 0.33-0.33l2.91-0.62l-2.91-0.62c-0.17-0.03-0.3-0.17-0.33-0.33l-0.62-2.9l-0.62 2.9c-0.04 0.16-0.16 0.3-0.33 0.33l-2.9 0.62z"/>
			</g>
		</g>
		<g id="Layer" style="opacity: 0.6">
			<g id="Layer">
				<path id="Layer" fill-rule="evenodd" class="s1" d="m280.8 80.85c0.47-0.52 1.11-0.81 1.81-0.85c0.69-0.04 1.36 0.21 1.88 0.68c0.52 0.47 0.81 1.11 0.85 1.81c0.06 1.44-1.05 2.66-2.49 2.73c-0.05 0-0.08 0-0.12 0v0.01c-1.39 0-2.55-1.1-2.61-2.5c-0.03-0.7 0.21-1.36 0.68-1.88zm1.85-0.01c-0.48 0.02-0.91 0.23-1.24 0.58c-0.32 0.35-0.48 0.81-0.46 1.28c0.04 0.95 0.83 1.7 1.78 1.7c0.02 0 0.05 0 0.08 0c0.98-0.04 1.74-0.88 1.7-1.86c-0.02-0.47-0.23-0.91-0.58-1.23c-0.33-0.3-0.75-0.47-1.19-0.47c-0.02 0-0.06 0-0.09 0z"/>
			</g>
		</g>
		<g id="Layer" style="opacity: 0.5">
			<g id="Layer">
				<path id="Layer" class="s1" d="m298.12 225c2.47 0 4.47 2 4.47 4.47c0 2.47-2 4.47-4.47 4.47c-2.47 0-4.47-2-4.47-4.47c0-2.47 2-4.47 4.47-4.47z"/>
			</g>
		</g>
		<g id="Layer" style="opacity: 0.3">
			<g id="Layer">
				<path id="Layer" class="s1" d="m283 61.24c0 4.8-3.89 8.7-8.7 8.7c-4.8 0-8.7-3.9-8.7-8.7c0-4.81 3.9-8.7 8.7-8.7c4.81 0 8.7 3.89 8.7 8.7v0v0v0z"/>
			</g>
		</g>
		<g id="Layer" style="opacity: 0.5">
			<g id="XMLID_241_">
				<g id="XMLID_242_">
					<g id="XMLID_252_">
						<g id="Layer">
							<g id="Layer">
								<path id="Layer" class="s0" d="m10.92 231.32v0c-2.25 0-4.08-1.83-4.08-4.08v-11.62c0-2.25 1.83-4.08 4.08-4.08v0c2.26 0 4.08 1.83 4.08 4.08v11.62c0 2.25-1.83 4.08-4.08 4.08z"/>
							</g>
						</g>
					</g>
					<g id="XMLID_251_">
						<g id="Layer">
							<g id="Layer">
								<path id="Layer" class="s0" d="m23.01 231.32v0c-2.25 0-4.08-1.83-4.08-4.08v-51.97c0-2.25 1.83-4.08 4.08-4.08v0c2.25 0 4.08 1.83 4.08 4.08v51.97c0 2.25-1.83 4.08-4.08 4.08v0v0h0z"/>
							</g>
						</g>
					</g>
					<g id="XMLID_250_">
						<g id="Layer">
							<g id="Layer">
								<path id="Layer" class="s0" d="m38 231.32v0c-2.26 0-4.08-1.83-4.08-4.08v-35.21c0-2.25 1.83-4.08 4.08-4.08v0c2.25 0 4.08 1.83 4.08 4.08v35.21c0 2.25-1.83 4.08-4.08 4.08z"/>
							</g>
						</g>
					</g>
					<g id="XMLID_249_">
						<g id="Layer">
							<g id="Layer">
								<path id="Layer" class="s0" d="m50.09 231.32v0c-2.26 0-4.08-1.83-4.08-4.08v-81.6c0-2.25 1.83-4.08 4.08-4.08v0c2.25 0 4.08 1.82 4.08 4.08v81.61c0 2.25-1.83 4.08-4.08 4.08v-0.01v0v0z"/>
							</g>
						</g>
					</g>
					<g id="XMLID_248_">
						<g id="Layer">
							<g id="Layer">
								<path id="Layer" class="s0" d="m65.07 231.32v0c-2.26 0-4.08-1.83-4.08-4.08v-50.17c0-2.25 1.83-4.08 4.08-4.08v0c2.25 0 4.08 1.83 4.08 4.08v50.17c0 2.25-1.83 4.08-4.08 4.08v0v0v0z"/>
							</g>
						</g>
					</g>
					<g id="XMLID_247_">
						<g id="Layer">
							<g id="Layer">
								<path id="Layer" class="s0" d="m77.16 231.32v0c-2.25 0-4.08-1.83-4.08-4.08v-64.29c0-2.26 1.83-4.09 4.08-4.09v0c2.25 0 4.08 1.83 4.08 4.09v64.29c0 2.25-1.83 4.08-4.08 4.08v0v0v0z"/>
							</g>
						</g>
					</g>
					<g id="XMLID_246_">
						<g id="Layer">
							<g id="Layer">
								<path id="Layer" class="s0" d="m92.15 231.32v0c-2.25 0-4.08-1.83-4.08-4.08v-57.73c0-2.26 1.83-4.08 4.08-4.08v0c2.25 0 4.08 1.83 4.08 4.08v57.73c0 2.25-1.83 4.08-4.08 4.08z"/>
							</g>
						</g>
					</g>
					<g id="XMLID_245_">
						<g id="Layer">
							<g id="Layer">
								<path id="Layer" class="s0" d="m104.23 231.32v0c-2.25 0-4.08-1.83-4.08-4.08v-105.37c0-2.25 1.83-4.08 4.08-4.08v0c2.25 0 4.08 1.83 4.08 4.08v105.38c0 2.25-1.83 4.08-4.08 4.08v-0.01z"/>
							</g>
						</g>
					</g>
					<g id="XMLID_244_">
						<g id="Layer">
							<g id="Layer">
								<path id="Layer" class="s0" d="m119.22 231.32v0c-2.25 0-4.08-1.83-4.08-4.08v-65.49c0-2.25 1.83-4.08 4.08-4.08v0c2.25 0 4.08 1.83 4.08 4.08v65.49c0 2.25-1.83 4.08-4.08 4.08v0v0v0z"/>
							</g>
						</g>
					</g>
					<g id="XMLID_243_">
						<g id="Layer">
							<g id="Layer">
								<path id="Layer" class="s0" d="m131.31 231.32v0c-2.25 0-4.08-1.83-4.08-4.08v-81.63c0-2.26 1.83-4.08 4.08-4.08v0c2.26 0 4.08 1.82 4.08 4.08v81.63c0 2.25-1.83 4.08-4.08 4.08z"/>
							</g>
						</g>
					</g>
				</g>
			</g>
			<g id="Layer">
				<g id="Layer">
					<g id="Layer">
						<path id="Layer" class="s0" d="m141.09 237.63h-139.94c-0.63 0-1.15-0.52-1.15-1.15c0-0.63 0.52-1.15 1.15-1.15h139.94c0.63 0 1.15 0.52 1.15 1.15c0 0.64-0.52 1.15-1.15 1.15z"/>
					</g>
				</g>
			</g>
		</g>
		<g id="Layer" style="opacity: 0.1">
			<g id="Layer">
				<path id="Layer" class="s1" d="m41.75 253.24c0.53-3.72 3.97-6.31 7.69-5.78c3.72 0.52 6.31 3.97 5.79 7.69c-0.53 3.72-3.97 6.31-7.69 5.78c-3.72-0.53-6.31-3.98-5.79-7.69z"/>
			</g>
		</g>
		<g id="Layer" style="opacity: 0.1">
			<g id="Layer">
				<path id="Layer" class="s1" d="m74.03 118.64c-14.59 0-26.39-11.8-26.39-26.39c0-14.59 11.8-26.39 26.39-26.39c14.59 0 26.39 11.8 26.39 26.39c0 14.59-11.8 26.39-26.39 26.39z"/>
			</g>
		</g>
		<g id="Layer" style="opacity: 0.4">
			<g id="Layer">
				<path id="Layer" fill-rule="evenodd" class="s1" d="m35.33 113.94c-0.21-0.04-0.36-0.23-0.36-0.44c0-0.21 0.15-0.4 0.36-0.44l4.83-1.03l1.03-4.83c0.09-0.42 0.79-0.42 0.88 0l1.03 4.83l4.83 1.03c0.21 0.04 0.36 0.23 0.36 0.44c0 0.21-0.15 0.4-0.36 0.44l-4.83 1.03l-1.03 4.83c-0.04 0.21-0.23 0.36-0.44 0.36c-0.21 0-0.4-0.15-0.44-0.36l-1.03-4.83l-4.83-1.03zm2.26-0.44l3.05 0.65c0.17 0.03 0.31 0.17 0.35 0.35l0.65 3.05l0.65-3.05c0.04-0.17 0.17-0.31 0.35-0.35l3.05-0.65l-3.05-0.65c-0.18-0.03-0.31-0.17-0.35-0.35l-0.65-3.05l-0.65 3.05c-0.04 0.17-0.17 0.31-0.35 0.35l-3.05 0.65z"/>
			</g>
		</g>
		<g id="Layer" style="opacity: 0.9">
			<g id="Layer">
				<g id="Layer">
					<path id="Layer" class="s1" d="m36.64 89.67c-0.7 0-1.27-0.57-1.27-1.27c0-0.7 0.56-1.28 1.27-1.28l18.15-0.09c0.73-0.04 1.28 0.56 1.28 1.27c0 0.7-0.56 1.28-1.27 1.28l-18.15 0.09c0 0 0 0-0.01 0z"/>
				</g>
			</g>
			<g id="Layer">
				<g id="Layer">
					<path id="Layer" class="s1" d="m26.67 89.73c-0.7 0-1.27-0.57-1.27-1.27c0-0.7 0.57-1.28 1.27-1.28l4.14-0.02v0c0.7 0 1.27 0.57 1.27 1.27c0 0.71-0.57 1.28-1.27 1.28l-4.14 0.01v0v0.01v0l0 0z"/>
				</g>
			</g>
		</g>
		<g id="Layer" style="opacity: 0.8">
			<g id="Layer">
				<g id="Layer">
					<path id="Layer" class="s1" d="m51.59 77.67c-0.7 0-1.27-0.56-1.27-1.26c-0.01-0.7 0.56-1.28 1.26-1.29l10.45-0.09h0.01c0.7 0 1.27 0.56 1.28 1.27c0.01 0.7-0.56 1.28-1.26 1.29l-10.44 0.09h-0.01l-0.02-0.01v0v0z"/>
				</g>
			</g>
			<g id="Layer">
				<g id="Layer">
					<path id="Layer" class="s1" d="m44.18 77.74c-0.7 0-1.27-0.56-1.27-1.26c-0.01-0.7 0.56-1.28 1.26-1.29l1.57-0.01h0.01c0.7 0 1.27 0.56 1.27 1.26c0.01 0.7-0.56 1.28-1.26 1.29l-1.57 0.01h-0.01z"/>
				</g>
			</g>
		</g>
		<g id="Layer">
			<g id="Layer">
				<g id="Layer">
					<path id="Layer" class="s3" d="m313.28 106.94v12.55c0 4.27-3.56 7.72-7.95 7.72h-4.64l-1.74 7.38l-28.53 119.51c-1.25 5.58-7.03 10.12-12.81 10.12h-164.13c-5.78 0-11.57-4.54-12.92-10.12l-28.43-119.51l-1.74-7.38h-4.66c-4.41 0-7.97-3.45-7.97-7.72v-12.55c0-4.25 3.56-7.7 7.97-7.7h113.99l-33.99-70.62c-3.62-0.14-6.89-2.06-8.46-5.29c-2.35-4.91 0.1-10.96 5.48-13.53l4.05-1.94c5.35-2.57 11.63-0.74 13.98 4.15c1.55 3.19 1.02 6.91-1.06 9.81l37.3 77.42h128.32c4.39 0 7.95 3.45 7.95 7.71l-0.01-0.01v0l0 0z"/>
				</g>
			</g>
			<g id="Layer">
				<g id="Layer">
					<g id="Layer">
						<g id="Layer">
							<path id="Layer" class="s3" d="m183 115.11c-0.47 0.8-1.21 1.49-2.19 1.96l-6.27 3.03c-0.47 0.23-0.98 0.37-1.45 0.43c-1.68 0.31-3.25-0.31-3.88-1.62l-9.49-19.68l-33.99-70.62l-4.37-9.07c-0.8-1.68 0.25-3.88 2.41-4.91l6.28-3.02c2.13-1.02 4.54-0.51 5.34 1.19l4.33 9.01l37.3 77.42l4.27 8.89l1.84 3.78l0.12 0.27c0.43 0.9 0.31 1.98-0.25 2.95v-0.01v0v0z"/>
						</g>
						<g id="Layer">
							<path id="Layer" fill-rule="evenodd" class="s1" d="m172.21 123.31c-2.32 0-4.44-1.2-5.42-3.22l-47.85-99.38c-0.64-1.35-0.7-2.91-0.18-4.39c0.63-1.76 2.04-3.26 3.87-4.12l6.25-3.01c1.85-0.89 3.93-1.04 5.7-0.41c1.47 0.52 2.61 1.54 3.24 2.87l47.88 99.39c0.79 1.66 0.67 3.64-0.35 5.42c-0.01 0.01-0.01 0.02-0.01 0.03c-0.77 1.3-1.93 2.34-3.34 3.02l-6.27 3.02c-0.72 0.34-1.5 0.57-2.27 0.68c-0.41 0.08-0.83 0.11-1.23 0.11l-0.02-0.01zm-48.38-105.18c-0.05 0.14-0.05 0.23-0.04 0.25l47.84 99.37c0.03 0.07 0.39 0.24 0.98 0.14c0.35-0.05 0.58-0.12 0.78-0.21l6.26-3.02c0.46-0.22 0.81-0.53 1.03-0.89c0.14-0.25 0.15-0.42 0.13-0.45l-6.22-12.92l-41.63-86.44c-0.06-0.08-0.32-0.18-0.69-0.18c-0.29 0-0.66 0.06-1.06 0.26l-6.27 3.02c-0.65 0.31-1 0.76-1.11 1.07z"/>
						</g>
					</g>
				</g>
				<g id="Layer">
					<g id="Layer">
						<path id="Layer" class="s0" d="m139.71 21.81c-1.06 1.51-2.55 2.82-4.39 3.7l-4.07 1.96c-1.63 0.78-3.35 1.17-5.03 1.17c-0.17 0-0.33 0-0.49-0.02c-3.62-0.14-6.89-2.06-8.46-5.29c-2.35-4.91 0.1-10.96 5.48-13.53l4.05-1.94c5.35-2.57 11.63-0.74 13.98 4.15c1.55 3.19 1.02 6.91-1.06 9.81l-0.01-0.01v0l0 0z"/>
					</g>
					<g id="Layer">
						<path id="Layer" fill-rule="evenodd" class="s1" d="m114.85 24.49c-2.99-6.24 0.03-13.92 6.73-17.13l4.05-1.94c6.7-3.22 14.58-0.8 17.56 5.41c1.92 3.94 1.42 8.75-1.29 12.54c-1.38 1.95-3.25 3.52-5.43 4.57l-4.06 1.96c-1.98 0.94-4.11 1.43-6.2 1.43l0.01-0.01c-0.23 0-0.46 0-0.69-0.03c-4.65-0.21-8.74-2.81-10.68-6.8zm4.84-2.33c1.1 2.25 3.4 3.66 6.15 3.77l0.22 0.02c1.45 0 2.79-0.31 4.04-0.91l4.05-1.96c1.36-0.65 2.52-1.62 3.36-2.82l0.01-0.02c1.59-2.22 1.91-4.86 0.83-7.07c-1.17-2.43-3.73-3.8-6.51-3.8c-1.28 0-2.61 0.29-3.88 0.9l-4.05 1.94c-4.03 1.93-5.92 6.39-4.22 9.95zm12.14-12.79c0 0 0 0 0.01 0v0h-0.01z"/>
					</g>
				</g>
				<g id="Layer">
					<g id="Layer">
						<path id="Layer" fill-rule="evenodd" class="s4" d="m298.96 134.6l-28.53 119.51c-1.25 5.58-7.03 10.12-12.81 10.12h-164.13c-5.79 0-11.57-4.54-12.92-10.12l-28.43-119.51l-1.74-7.38l-1.04-4.48h252.38l-1.04 4.48l-1.74 7.38zm-214.05 22.84l15.13 76.71c1.45 7.13 7.42 11.96 13.49 10.69c6.07-1.14 9.83-7.89 8.38-15.02l-15.13-76.71c-1.35-7.05-7.42-11.96-13.49-10.71c-5.99 1.16-9.73 7.91-8.38 15.04zm65.92-14.93c-6.07 0.18-10.79 6.07-10.61 13.2l2.31 76.52c0.2 7.03 5.21 12.71 11.28 12.53c5.97-0.21 10.79-6.07 10.5-13.2h0.01l-2.23-76.42c-0.18-7.13-5.29-12.84-11.26-12.63zm35.26 88.74c-0.18 7.13 4.54 13.02 10.61 13.21c5.96 0.2 11.08-5.48 11.28-12.53l2.21-76.51c0.21-7.13-4.52-13.02-10.51-13.2c-6.07-0.21-11.08 5.5-11.36 12.61l-2.23 76.42zm58.13-78.45l-15.15 76.73c-1.43 7.13 2.41 13.88 8.38 15.02c6.09 1.25 12.16-3.56 13.51-10.69l15.13-76.71c1.45-7.13-2.31-13.88-8.38-15.05v0.01c-6.07-1.24-12.06 3.58-13.49 10.69z"/>
					</g>
				</g>
				<g id="Layer" style="opacity: 0.3">
					<g id="Layer">
						<path id="Layer" class="s1" d="m301.74 122.74l-1.04 4.48l-1.74 7.38h-246.82l-1.74-7.38l-1.04-4.48h252.39h-0.01z"/>
					</g>
				</g>
				<g id="Layer">
					<g id="Layer">
						<path id="Layer" class="s0" d="m313.28 106.94v12.55c0 4.27-3.56 7.72-7.95 7.72h-259.6c-4.41 0-7.97-3.45-7.97-7.72v-12.55c0-4.25 3.56-7.7 7.97-7.7h259.6c4.39 0 7.95 3.45 7.95 7.7z"/>
					</g>
					<g id="Layer">
						<path id="Layer" fill-rule="evenodd" class="s1" d="m305.33 129.9h-259.6c-5.88 0-10.66-4.67-10.66-10.42v-12.55c0-5.73 4.78-10.39 10.66-10.39h259.6c5.87 0 10.64 4.66 10.64 10.39v12.55c0 5.74-4.77 10.42-10.64 10.42zm-259.6-27.98c-2.91 0-5.28 2.25-5.28 5.02v12.55c0 2.78 2.37 5.04 5.28 5.04h259.6c2.9 0 5.26-2.26 5.26-5.04v-12.55c0-2.77-2.36-5.02-5.26-5.02h-259.6z"/>
					</g>
				</g>
				<g id="Layer">
					<g id="Layer">
						<path id="Layer" class="s1" d="m183.24 113.21c0 4.28-3.46 7.72-7.72 7.72c-4.25 0-7.72-3.44-7.72-7.72c0-4.25 3.46-7.71 7.72-7.71c4.26 0 7.72 3.46 7.72 7.71z"/>
					</g>
				</g>
			</g>
		</g>
	</g>
</svg>