<svg version="1.2" baseProfile="tiny-ps" xmlns="http://www.w3.org/2000/svg" viewBox="0 0 350 316" width="350" height="316">
	<title>about-3-svg</title>
	<style>
		tspan { white-space:pre }
		.s0 { fill: #f5bfba }
		.s1 { fill: #06196a }
		.s2 { fill: #9ba9dd }
		.s3 { fill: #ffffff }
	</style>
	<g id="Layer">
		<g id="Layer" style="opacity: 0.5">
			<g id="XMLID_288_">
				<g id="Layer">
					<g id="Layer">
						<path id="Layer" class="s0" d="m176.53 183.92h-1.62c-3.38 0-6.11-2.74-6.11-6.11v-22.09c0-3.38 2.73-6.12 6.11-6.12h1.62c3.38 0 6.11 2.74 6.11 6.12v22.09c0 3.37-2.73 6.11-6.11 6.11z"/>
					</g>
				</g>
			</g>
			<g id="XMLID_287_">
				<g id="Layer">
					<g id="Layer">
						<path id="Layer" class="s0" d="m195.47 183.92h-1.62c-3.38 0-6.12-2.74-6.12-6.11v-14.54c0-3.38 2.74-6.12 6.12-6.12h1.62c3.37 0 6.11 2.74 6.11 6.12v14.54c0 3.37-2.74 6.11-6.11 6.11z"/>
					</g>
				</g>
			</g>
			<g id="XMLID_286_">
				<g id="Layer">
					<g id="Layer">
						<path id="Layer" class="s0" d="m214.41 183.92h-1.62c-3.37 0-6.11-2.74-6.11-6.11v-31.92c0-3.38 2.74-6.11 6.11-6.11h1.62c3.38 0 6.12 2.73 6.12 6.11v31.92c0 3.37-2.74 6.11-6.12 6.11z"/>
					</g>
				</g>
			</g>
			<g id="XMLID_285_">
				<g id="Layer">
					<g id="Layer">
						<path id="Layer" class="s0" d="m233.35 183.92h-1.62c-3.37 0-6.11-2.74-6.11-6.11v-7.06c0-3.37 2.74-6.11 6.11-6.11h1.62c3.38 0 6.11 2.74 6.11 6.11v7.06c0 3.37-2.73 6.11-6.11 6.11z"/>
					</g>
				</g>
			</g>
			<g id="Layer">
				<g id="Layer">
					<g id="Layer">
						<path id="Layer" class="s0" d="m241.78 187.64h-75.31c-0.34 0-0.62-0.32-0.62-0.7c0-0.38 0.28-0.7 0.62-0.7h75.31c0.34 0 0.62 0.31 0.62 0.7c0 0.38-0.28 0.7-0.62 0.7z"/>
					</g>
				</g>
			</g>
		</g>
		<g id="Layer" style="opacity: 0.1">
			<g id="Layer">
				<path id="Layer" fill-rule="evenodd" class="s1" d="m276.56 140.96c-5.64 5.03-14.26 4.54-19.31-1.1c-5.02-5.61-4.54-14.26 1.09-19.29c5.63-5.03 14.26-4.54 19.29 1.09c5.05 5.61 4.55 14.26-1.07 19.29zm-2.58-16.04c-3.23-3.6-8.78-3.92-12.38-0.69c-3.62 3.23-3.94 8.78-0.69 12.4c3.23 3.6 8.77 3.92 12.38 0.69c3.62-3.23 3.92-8.78 0.69-12.4z"/>
			</g>
		</g>
		<g id="Layer" style="opacity: 0.1">
			<g id="Layer">
				<path id="Layer" class="s1" d="m260.14 271.48c-17.35 2.46-33.41-9.61-35.86-26.96c-2.46-17.35 9.62-33.41 26.97-35.86c17.35-2.46 33.4 9.62 35.86 26.97c2.45 17.35-9.62 33.41-26.97 35.86z"/>
			</g>
		</g>
		<g id="Layer" style="opacity: 0.7">
			<g id="Layer">
				<path id="Layer" class="s2" d="m325.28 184l6.3-1.99l1.99-6.29l1.99 6.29l6.29 1.99l-6.29 2l-1.99 6.29l-1.99-6.29l-6.3-2z"/>
				<path id="Layer" class="s1" d="m333.57 200.43l-3.95-12.48l-12.48-3.96l12.48-3.95l3.95-12.48l3.95 12.48l12.48 3.95l-12.48 3.96l-3.95 12.48z"/>
			</g>
			<g id="Layer">
				<path id="Layer" fill-rule="evenodd" class="s1" d="m333.57 193.21c-0.4 0-0.76-0.26-0.88-0.64l-1.85-5.84l-5.84-1.85c-0.38-0.13-0.64-0.48-0.64-0.88c0-0.4 0.26-0.75 0.64-0.88l5.84-1.85l1.85-5.83c0.25-0.77 1.52-0.77 1.76 0l1.85 5.83l5.84 1.85c0.38 0.12 0.64 0.48 0.64 0.88c0 0.4-0.26 0.76-0.64 0.88l-5.84 1.85l-1.85 5.84c-0.12 0.39-0.48 0.64-0.88 0.64zm-5.24-9.21l3.52 1.11c0.28 0.1 0.51 0.32 0.6 0.6l1.12 3.52l1.11-3.52c0.09-0.29 0.32-0.51 0.61-0.6l3.52-1.11l-3.52-1.12c-0.29-0.09-0.51-0.32-0.61-0.6l-1.11-3.52l-1.12 3.52c-0.09 0.28-0.32 0.51-0.6 0.6l-3.52 1.12z"/>
			</g>
		</g>
		<g id="Layer" style="opacity: 0.5">
			<g id="Layer">
				<path id="Layer" fill-rule="evenodd" class="s1" d="m274.94 228.49c-0.44 0-0.81-0.31-0.9-0.73l-2.1-9.88l-9.88-2.1c-0.42-0.09-0.73-0.47-0.73-0.9c0-0.44 0.31-0.82 0.73-0.9l9.88-2.1l2.1-9.88c0.18-0.85 1.62-0.85 1.81 0l2.1 9.88l9.87 2.1c0.42 0.09 0.73 0.47 0.73 0.9c0 0.43-0.31 0.81-0.73 0.9l-9.87 2.1l-2.1 9.88c-0.09 0.42-0.47 0.73-0.9 0.73zm-8.26-13.61l6.22 1.33c0.36 0.07 0.63 0.35 0.71 0.71l1.33 6.22l1.33-6.22c0.08-0.36 0.36-0.63 0.71-0.71l6.22-1.33l-6.22-1.33c-0.36-0.08-0.63-0.35-0.71-0.71l-1.33-6.23l-1.33 6.23c-0.08 0.35-0.35 0.63-0.71 0.71l-6.22 1.33z"/>
			</g>
		</g>
		<g id="Layer" style="opacity: 0.5">
			<g id="Layer">
				<path id="Layer" fill-rule="evenodd" class="s1" d="m234.64 146.87c-0.22 0-0.4-0.15-0.45-0.37l-1.05-4.94l-4.94-1.05c-0.21-0.04-0.36-0.23-0.36-0.45c0-0.21 0.15-0.4 0.36-0.45l4.94-1.05l1.05-4.94c0.05-0.21 0.24-0.37 0.45-0.37c0.22 0 0.4 0.15 0.45 0.37l1.05 4.94l4.94 1.05c0.22 0.04 0.37 0.24 0.37 0.45c0 0.22-0.15 0.41-0.37 0.45l-4.94 1.05l-1.05 4.94c-0.05 0.22-0.24 0.37-0.45 0.37zm-4.13-6.81l3.11 0.66c0.18 0.04 0.32 0.18 0.35 0.35l0.66 3.11l0.66-3.11c0.04-0.17 0.18-0.32 0.35-0.35l3.11-0.66l-3.11-0.66c-0.18-0.04-0.32-0.18-0.35-0.35l-0.66-3.11l-0.66 3.11c-0.04 0.18-0.18 0.31-0.35 0.35l-3.11 0.66z"/>
			</g>
		</g>
		<g id="Layer" style="opacity: 0.8">
			<g id="Layer">
				<path id="Layer" fill-rule="evenodd" class="s1" d="m308.77 116.33c-1.44 0-2.84-0.7-3.68-1.99c-0.64-0.98-0.86-2.16-0.62-3.3c0.25-1.15 0.92-2.13 1.9-2.77c0.99-0.64 2.16-0.85 3.3-0.61c1.15 0.25 2.13 0.92 2.77 1.9c1.32 2.03 0.74 4.75-1.29 6.06c-0.74 0.48-1.56 0.71-2.38 0.71zm-2.67-2.65c0.96 1.47 2.92 1.88 4.39 0.93c1.46-0.95 1.88-2.92 0.93-4.39c-0.46-0.71-1.17-1.2-2-1.37c-0.82-0.17-1.67-0.02-2.38 0.44c-1.46 0.95-1.88 2.92-0.93 4.39z"/>
			</g>
		</g>
		<g id="Layer" style="opacity: 0.6">
			<g id="Layer">
				<path id="Layer" fill-rule="evenodd" class="s1" d="m251.5 106.21c-1.48 0-2.73-1.17-2.79-2.67c-0.03-0.75 0.23-1.46 0.73-2.01c0.5-0.55 1.19-0.87 1.94-0.91c0.74-0.05 1.46 0.22 2.01 0.73c0.55 0.5 0.87 1.19 0.91 1.94c0.07 1.54-1.13 2.85-2.67 2.92c-0.04 0-0.09 0-0.12 0zm0.01-4.7c-0.03 0-0.06 0-0.09 0c-0.51 0.02-0.98 0.24-1.32 0.62c-0.34 0.38-0.52 0.86-0.5 1.37c0.02 0.51 0.24 0.98 0.62 1.32c0.38 0.34 0.85 0.51 1.37 0.5c1.05-0.05 1.87-0.94 1.82-1.99c-0.02-0.51-0.24-0.98-0.62-1.32c-0.35-0.32-0.8-0.5-1.28-0.5z"/>
			</g>
		</g>
		<g id="Layer" style="opacity: 0.5">
			<g id="Layer">
				<path id="Layer" class="s1" d="m267.97 256.61c-2.65 0-4.79-2.14-4.79-4.79c0-2.65 2.14-4.79 4.79-4.79c2.65 0 4.79 2.14 4.79 4.79c0 2.65-2.14 4.79-4.79 4.79z"/>
			</g>
		</g>
		<g id="Layer" style="opacity: 0.9">
			<g id="Layer">
				<g id="Layer">
					<path id="Layer" class="s1" d="m322.31 138.25c0 0-0.01 0-0.02 0l-21.73-0.33c-0.84-0.01-1.51-0.71-1.5-1.55c0.01-0.84 0.69-1.5 1.53-1.5c0 0 0.01 0 0.02 0l21.73 0.33c0.84 0.01 1.51 0.71 1.5 1.55c-0.01 0.84-0.7 1.5-1.53 1.5z"/>
				</g>
			</g>
			<g id="Layer">
				<g id="Layer">
					<path id="Layer" class="s1" d="m334.25 138.45c0 0-0.01 0-0.02 0l-4.96-0.06c-0.85-0.01-1.52-0.71-1.51-1.55c0.01-0.84 0.7-1.51 1.53-1.51c0 0 0.01 0 0.02 0l4.96 0.07c0.84 0.01 1.52 0.7 1.5 1.55c-0.01 0.84-0.69 1.51-1.53 1.51z"/>
				</g>
			</g>
		</g>
		<g id="Layer" style="opacity: 0.5">
			<g id="Layer">
				<g id="Layer">
					<path id="Layer" class="s1" d="m301.02 88.77c0 0 0 0-0.01 0l-28.7-0.22c-0.54 0-0.98-0.45-0.97-0.99c0-0.54 0.44-0.97 0.98-0.97c0 0 0 0 0 0l28.7 0.22c0.54 0 0.98 0.45 0.97 0.99c0 0.54-0.44 0.97-0.98 0.97z"/>
				</g>
			</g>
			<g id="Layer">
				<g id="Layer">
					<path id="Layer" class="s1" d="m314.43 88.9v0l-6.55-0.05c-0.54 0-0.98-0.45-0.98-0.99c0-0.54 0.51-1.02 0.99-0.97l6.55 0.05c0.54 0 0.98 0.45 0.98 0.99c0 0.54-0.44 0.98-0.99 0.98z"/>
				</g>
			</g>
		</g>
		<g id="Layer" style="opacity: 1">
			<g id="Layer">
				<g id="Layer">
					<path id="Layer" class="s1" d="m311.06 151.63c0 0-0.01 0-0.02 0l-23.82-0.41c-0.58-0.01-1.04-0.49-1.03-1.07c0.01-0.57 0.48-1.03 1.05-1.03c0.01 0 0.01 0 0.02 0l23.82 0.41c0.58 0.01 1.04 0.49 1.03 1.07c-0.01 0.57-0.48 1.03-1.05 1.03z"/>
				</g>
			</g>
			<g id="Layer">
				<g id="Layer">
					<path id="Layer" class="s1" d="m324.15 151.87c-0.01 0-0.01 0-0.02 0l-5.43-0.09c-0.58-0.01-1.05-0.49-1.03-1.07c0-0.58 0.48-1.03 1.05-1.03c0.01 0 0.01 0 0.02 0l5.44 0.09c0.58 0.01 1.05 0.49 1.04 1.07c-0.01 0.58-0.48 1.03-1.05 1.03z"/>
				</g>
			</g>
		</g>
		<g id="Layer" style="opacity: 0.4">
			<g id="Layer">
				<g id="Layer">
					<path id="Layer" fill-rule="evenodd" class="s1" d="m276.45 104.11c0.6 0 1.06 0.47 1.06 1.07v0.55c1.47 0.17 2.71 0.64 3.85 1.36c0.4 0.23 0.75 0.6 0.75 1.19c0 0.77-0.62 1.36-1.39 1.36c-0.25 0-0.5-0.07-0.75-0.22c-0.87-0.52-1.71-0.89-2.56-1.09v4.76c3.77 0.94 5.39 2.46 5.39 5.11c0 2.73-2.14 4.54-5.29 4.84v1.49c0 0.6-0.47 1.07-1.06 1.07c-0.6 0-1.1-0.47-1.1-1.07v-1.54c-1.86-0.2-3.57-0.87-5.08-1.94c-0.42-0.27-0.67-0.67-0.67-1.19c0-0.77 0.6-1.37 1.36-1.37c0.3 0 0.6 0.1 0.82 0.27c1.17 0.85 2.31 1.42 3.68 1.66v-4.89c-3.62-0.94-5.31-2.31-5.31-5.11c0-2.65 2.11-4.49 5.21-4.74v-0.52c0-0.59 0.5-1.06 1.1-1.06zm-0.99 8.46v-4.39c-1.59 0.15-2.38 0.99-2.38 2.08c0 1.04 0.47 1.69 2.38 2.31zm1.96 3.45v4.52c1.59-0.17 2.45-0.97 2.45-2.16c0-1.09-0.54-1.76-2.45-2.36z"/>
				</g>
			</g>
		</g>
		<g id="Layer" style="opacity: 0.4">
			<g id="Layer">
				<g id="Layer">
					<path id="Layer" fill-rule="evenodd" class="s1" d="m263.74 166.47c0.26 0 0.48 0.21 0.48 0.48v0.25c0.65 0.08 1.21 0.29 1.71 0.6c0.17 0.1 0.33 0.27 0.33 0.53c0 0.34-0.28 0.61-0.62 0.61c-0.11 0-0.22-0.04-0.33-0.1c-0.39-0.23-0.76-0.39-1.14-0.48v2.12c1.68 0.42 2.4 1.1 2.4 2.28c0 1.22-0.95 2.02-2.35 2.15v0.66c0 0.27-0.21 0.48-0.48 0.48c-0.26 0-0.49-0.21-0.49-0.48v-0.68c-0.83-0.09-1.6-0.38-2.27-0.86c-0.19-0.12-0.3-0.3-0.3-0.53c0-0.35 0.27-0.61 0.61-0.61c0.13 0 0.26 0.04 0.37 0.12c0.52 0.38 1.03 0.63 1.64 0.74v-2.18c-1.61-0.42-2.37-1.03-2.37-2.28c0-1.18 0.94-2 2.32-2.11v-0.24c0-0.27 0.22-0.48 0.49-0.48zm-0.44 3.77v-1.96c-0.71 0.07-1.06 0.44-1.06 0.93c0 0.46 0.21 0.75 1.06 1.03zm0.87 1.54v2.01c0.71-0.08 1.09-0.43 1.09-0.96c0-0.49-0.24-0.79-1.09-1.05z"/>
				</g>
			</g>
		</g>
		<g id="Layer" style="opacity: 0.3">
			<g id="Layer">
				<path id="Layer" class="s1" d="m299.92 178.97c0 5.15-4.17 9.31-9.31 9.31c-5.14 0-9.31-4.16-9.31-9.31c0-5.14 4.17-9.31 9.31-9.31c5.14 0 9.31 4.17 9.31 9.31z"/>
			</g>
		</g>
		<g id="Layer" style="opacity: 0.3">
			<g id="Layer">
				<path id="Layer" class="s1" d="m286.69 75c-1.77 0-3.21-1.43-3.21-3.2c0-1.77 1.43-3.2 3.21-3.2c1.77 0 3.21 1.43 3.21 3.2c0 1.77-1.43 3.2-3.21 3.2z"/>
			</g>
		</g>
		<g id="Layer" style="opacity: 0.4">
			<g id="Layer">
				<path id="Layer" fill-rule="evenodd" class="s1" d="m304.86 242.22c-0.33 0-0.66-0.05-0.98-0.13v0c-0.98-0.26-1.8-0.89-2.31-1.77c-0.51-0.88-0.65-1.9-0.38-2.88c0.54-2.03 2.62-3.23 4.65-2.69c0.98 0.26 1.8 0.89 2.31 1.77c0.5 0.88 0.64 1.9 0.38 2.88c-0.26 0.98-0.88 1.8-1.76 2.31c-0.58 0.34-1.24 0.52-1.9 0.52zm-0.01-5.96c-0.37 0-0.74 0.1-1.07 0.29c-0.5 0.29-0.85 0.76-1 1.31c-0.14 0.55-0.07 1.13 0.22 1.62c0.29 0.5 0.75 0.85 1.31 1c0.56 0.15 1.13 0.07 1.63-0.22c0.49-0.29 0.85-0.75 0.99-1.31c0.15-0.56 0.07-1.14-0.22-1.63c-0.29-0.5-0.75-0.85-1.31-1c-0.18-0.05-0.37-0.08-0.56-0.08z"/>
			</g>
		</g>
		<g id="Layer" style="opacity: 0.7">
			<g id="Layer">
				<g id="Layer">
					<path id="Layer" fill-rule="evenodd" class="s1" d="m309.31 217.65c-0.1 0-0.19 0-0.29-0.01c-3.09-0.15-5.48-2.8-5.32-5.9c0.16-3.09 2.78-5.45 5.9-5.32c3.1 0.16 5.48 2.8 5.32 5.9c-0.15 2.99-2.64 5.33-5.61 5.33zm-0.01-9.84c-2.23 0-4.1 1.75-4.21 4.01c-0.12 2.32 1.68 4.31 4 4.43c2.33 0.16 4.31-1.68 4.44-4c0.06-1.13-0.33-2.21-1.08-3.04c-0.76-0.84-1.79-1.34-2.92-1.39c-0.07 0-0.14 0-0.22 0z"/>
				</g>
			</g>
			<g id="Layer">
				<g id="Layer">
					<path id="Layer" class="s1" d="m312.01 212.57c-0.29 1.49-1.74 2.47-3.24 2.17c-1.5-0.29-2.47-1.75-2.18-3.24c0.3-1.49 1.75-2.47 3.24-2.18c1.5 0.3 2.48 1.75 2.18 3.25z"/>
				</g>
			</g>
		</g>
		<g id="Layer" style="opacity: 0.8">
			<g id="Layer">
				<path id="Layer" fill-rule="evenodd" class="s1" d="m40.68 271.97c-0.31 0-0.62-0.03-0.92-0.1c-1.14-0.25-2.12-0.92-2.76-1.9c-1.32-2.03-0.74-4.75 1.28-6.06c2.03-1.32 4.75-0.74 6.07 1.28c1.32 2.03 0.74 4.75-1.29 6.07c-0.72 0.47-1.54 0.71-2.38 0.71zm-1.74-7.05c-1.47 0.96-1.88 2.93-0.93 4.39c0.46 0.71 1.17 1.2 2 1.38c0.82 0.18 1.68 0.02 2.38-0.44c1.47-0.95 1.89-2.92 0.93-4.39c-0.95-1.47-2.92-1.88-4.39-0.93z"/>
			</g>
		</g>
		<g id="Layer" style="opacity: 0.5">
			<g id="XMLID_273_">
				<g id="XMLID_274_">
					<g id="XMLID_284_">
						<g id="Layer">
							<g id="Layer">
								<path id="Layer" class="s0" d="m11.69 245.05v0c-2.41 0-4.37-1.96-4.37-4.37v-12.43c0-2.41 1.96-4.37 4.37-4.37v0c2.41 0 4.37 1.96 4.37 4.37v12.43c0 2.41-1.96 4.37-4.37 4.37z"/>
							</g>
						</g>
					</g>
					<g id="XMLID_283_">
						<g id="Layer">
							<g id="Layer">
								<path id="Layer" class="s0" d="m24.63 245.05v0c-2.42 0-4.37-1.96-4.37-4.37v-55.61c0-2.41 1.95-4.36 4.37-4.36v0c2.41 0 4.37 1.95 4.37 4.36v55.61c0 2.41-1.96 4.37-4.37 4.37z"/>
							</g>
						</g>
					</g>
					<g id="XMLID_282_">
						<g id="Layer">
							<g id="Layer">
								<path id="Layer" class="s0" d="m40.67 245.05v0c-2.41 0-4.37-1.96-4.37-4.37v-37.68c0-2.41 1.95-4.36 4.37-4.36v0c2.41 0 4.37 1.95 4.37 4.36v37.68c0 2.41-1.96 4.37-4.37 4.37z"/>
							</g>
						</g>
					</g>
					<g id="XMLID_281_">
						<g id="Layer">
							<g id="Layer">
								<path id="Layer" class="s0" d="m53.6 245.05v0c-2.41 0-4.37-1.96-4.37-4.37v-87.32c0-2.41 1.95-4.37 4.37-4.37v0c2.41 0 4.37 1.96 4.37 4.37v87.32c0 2.41-1.95 4.37-4.37 4.37z"/>
							</g>
						</g>
					</g>
					<g id="XMLID_280_">
						<g id="Layer">
							<g id="Layer">
								<path id="Layer" class="s0" d="m69.64 245.05v0c-2.41 0-4.37-1.96-4.37-4.37v-53.68c0-2.41 1.95-4.37 4.37-4.37v0c2.41 0 4.37 1.96 4.37 4.37v53.68c0 2.41-1.95 4.37-4.37 4.37z"/>
							</g>
						</g>
					</g>
					<g id="XMLID_279_">
						<g id="Layer">
							<g id="Layer">
								<path id="Layer" class="s0" d="m82.58 245.05v0c-2.41 0-4.37-1.96-4.37-4.37v-68.79c0-2.41 1.96-4.37 4.37-4.37v0c2.41 0 4.37 1.96 4.37 4.37v68.79c0 2.41-1.96 4.37-4.37 4.37z"/>
							</g>
						</g>
					</g>
					<g id="XMLID_278_">
						<g id="Layer">
							<g id="Layer">
								<path id="Layer" class="s0" d="m98.62 245.05v0c-2.41 0-4.37-1.96-4.37-4.37v-61.78c0-2.41 1.96-4.36 4.37-4.36v0c2.41 0 4.37 1.95 4.37 4.36v61.78c0 2.41-1.96 4.37-4.37 4.37z"/>
							</g>
						</g>
					</g>
					<g id="XMLID_277_">
						<g id="Layer">
							<g id="Layer">
								<path id="Layer" class="s0" d="m111.56 245.05v0c-2.41 0-4.37-1.96-4.37-4.37v-112.76c0-2.41 1.96-4.37 4.37-4.37v0c2.41 0 4.37 1.96 4.37 4.37v112.76c0 2.41-1.96 4.37-4.37 4.37z"/>
							</g>
						</g>
					</g>
					<g id="XMLID_276_">
						<g id="Layer">
							<g id="Layer">
								<path id="Layer" class="s0" d="m127.59 245.05v0c-2.41 0-4.37-1.96-4.37-4.37v-70.08c0-2.41 1.96-4.36 4.37-4.36v0c2.41 0 4.37 1.95 4.37 4.36v70.08c0 2.41-1.96 4.37-4.37 4.37z"/>
							</g>
						</g>
					</g>
					<g id="XMLID_275_">
						<g id="Layer">
							<g id="Layer">
								<path id="Layer" class="s0" d="m140.53 245.05v0c-2.41 0-4.37-1.96-4.37-4.37v-87.35c0-2.41 1.96-4.36 4.37-4.36v0c2.41 0 4.37 1.95 4.37 4.36v87.35c0 2.41-1.96 4.37-4.37 4.37z"/>
							</g>
						</g>
					</g>
				</g>
			</g>
			<g id="Layer">
				<g id="Layer">
					<g id="Layer">
						<path id="Layer" class="s0" d="m150.99 251.81h-149.76c-0.68 0-1.23-0.55-1.23-1.23c0-0.67 0.55-1.23 1.23-1.23h149.76c0.68 0 1.23 0.56 1.23 1.23c0 0.68-0.55 1.23-1.23 1.23z"/>
					</g>
				</g>
			</g>
		</g>
		<g id="Layer" style="opacity: 0.1">
			<g id="Layer">
				<path id="Layer" class="s1" d="m57.05 268.51c0.57-3.98 4.25-6.75 8.23-6.19c3.98 0.56 6.75 4.25 6.19 8.23c-0.56 3.98-4.25 6.75-8.23 6.19c-3.98-0.57-6.76-4.25-6.19-8.23z"/>
			</g>
		</g>
		<g id="Layer" style="opacity: 0.1">
			<g id="Layer">
				<path id="Layer" class="s1" d="m95.97 128.84c-15.62 0-28.24-12.62-28.24-28.24c0-15.62 12.62-28.24 28.24-28.24c15.62 0 28.24 12.62 28.24 28.24c0 15.62-12.62 28.24-28.24 28.24z"/>
			</g>
		</g>
		<g id="Layer" style="opacity: 0.1">
			<g id="Layer">
				<path id="Layer" class="s1" d="m32.71 68.95c0.56-3.98 4.25-6.75 8.23-6.19c3.98 0.57 6.75 4.25 6.19 8.23c-0.57 3.98-4.25 6.75-8.23 6.19c-3.98-0.56-6.75-4.25-6.19-8.23z"/>
			</g>
		</g>
		<g id="Layer" style="opacity: 0.1">
			<g id="Layer">
				<path id="Layer" fill-rule="evenodd" class="s1" d="m28.4 128.9c-5.91 6.63-16.06 7.19-22.68 1.28c-6.62-5.91-7.19-16.08-1.28-22.68c5.93-6.63 16.08-7.19 22.71-1.28c6.6 5.91 7.19 16.08 1.25 22.68zm-5.1-18.4c-4.23-3.79-10.76-3.42-14.55 0.81c-3.82 4.26-3.45 10.79 0.81 14.58c4.24 3.79 10.76 3.42 14.56-0.81c3.79-4.26 3.44-10.79-0.82-14.58z"/>
			</g>
		</g>
		<g id="Layer" style="opacity: 0.4">
			<g id="Layer">
				<path id="Layer" fill-rule="evenodd" class="s1" d="m74.42 126.08c-0.23 0-0.43-0.16-0.48-0.38l-1.1-5.17l-5.17-1.1c-0.23-0.05-0.39-0.25-0.39-0.47c0-0.23 0.16-0.43 0.39-0.47l5.17-1.1l1.1-5.17c0.1-0.45 0.85-0.45 0.95 0l1.1 5.17l5.17 1.1c0.23 0.05 0.39 0.24 0.39 0.47c0 0.23-0.16 0.42-0.39 0.47l-5.17 1.1l-1.1 5.17c-0.05 0.22-0.25 0.38-0.47 0.38zm-4.33-7.13l3.26 0.7c0.19 0.04 0.33 0.19 0.37 0.37l0.7 3.26l0.7-3.26c0.04-0.19 0.18-0.33 0.37-0.37l3.26-0.7l-3.26-0.69c-0.19-0.04-0.33-0.19-0.37-0.37l-0.7-3.26l-0.7 3.26c-0.04 0.19-0.18 0.33-0.37 0.37l-3.26 0.69z"/>
			</g>
		</g>
		<g id="Layer" style="opacity: 0.2">
			<g id="Layer">
				<g id="Layer">
					<path id="Layer" class="s1" d="m84.51 152.01c-3.62 0-6.57-2.95-6.57-6.57c0-3.63 2.95-6.58 6.57-6.58c3.63 0 6.58 2.95 6.58 6.58c0 0.43-0.35 0.78-0.78 0.78c-0.43 0-0.78-0.35-0.78-0.78c0-2.77-2.25-5.02-5.02-5.02c-2.76 0-5.02 2.25-5.02 5.02c0 2.77 2.25 5.02 5.02 5.02c0.43 0 0.78 0.35 0.78 0.78c0 0.43-0.35 0.78-0.78 0.78z"/>
				</g>
			</g>
			<g id="Layer">
				<g id="Layer">
					<path id="Layer" class="s1" d="m84.52 148.97c-0.32 0-0.64-0.04-0.95-0.13c-0.91-0.25-1.67-0.85-2.13-1.67c-0.96-1.7-0.36-3.85 1.34-4.81c0.37-0.21 0.85-0.08 1.06 0.29c0.21 0.38 0.08 0.85-0.29 1.07c-0.95 0.54-1.29 1.74-0.75 2.69c0.26 0.46 0.68 0.79 1.19 0.93c0.5 0.13 1.04 0.08 1.49-0.19c0.46-0.25 0.79-0.68 0.94-1.19c0.14-0.51 0.07-1.04-0.19-1.5c-0.21-0.38-0.08-0.85 0.29-1.07c0.38-0.21 0.85-0.08 1.07 0.3c0.46 0.82 0.58 1.77 0.33 2.68c-0.25 0.91-0.85 1.67-1.67 2.13c-0.54 0.3-1.13 0.46-1.73 0.46z"/>
				</g>
			</g>
		</g>
		<g id="Layer" style="opacity: 1">
			<g id="Layer">
				<g id="Layer">
					<path id="Layer" fill-rule="evenodd" class="s1" d="m50.01 130.25c-2.57 0-4.65-2.09-4.65-4.64c0-2.56 2.08-4.65 4.65-4.65c2.56 0 4.64 2.08 4.64 4.65c0 2.56-2.08 4.64-4.64 4.64zm0-8.14c-1.93 0-3.49 1.56-3.49 3.49c0 1.92 1.57 3.49 3.49 3.49c1.93 0 3.49-1.56 3.49-3.49c0-1.93-1.56-3.49-3.49-3.49z"/>
				</g>
			</g>
			<g id="Layer">
				<g id="Layer">
					<path id="Layer" class="s1" d="m47.74 125.93c-0.18-1.25 0.69-2.41 1.94-2.59c1.24-0.18 2.41 0.69 2.59 1.93c0.18 1.25-0.68 2.41-1.93 2.59c-1.25 0.18-2.41-0.69-2.59-1.93z"/>
				</g>
			</g>
		</g>
		<g id="Layer" style="opacity: 0.9">
			<g id="Layer">
				<g id="Layer">
					<path id="Layer" class="s1" d="m55.95 97.83c-0.75 0-1.36-0.61-1.37-1.36c0-0.75 0.6-1.37 1.36-1.37l19.42-0.09h0c0.75 0 1.36 0.61 1.36 1.36c0 0.75-0.61 1.37-1.36 1.37l-19.42 0.09c0 0 0 0-0.01 0z"/>
				</g>
			</g>
			<g id="Layer">
				<g id="Layer">
					<path id="Layer" class="s1" d="m45.28 97.9c-0.75 0-1.36-0.61-1.37-1.36c0-0.75 0.61-1.36 1.36-1.37l4.43-0.02v0c0.75 0 1.36 0.61 1.37 1.36c0 0.75-0.61 1.36-1.36 1.37l-4.44 0.02v0z"/>
				</g>
			</g>
		</g>
		<g id="Layer" style="opacity: 0.8">
			<g id="Layer">
				<g id="Layer">
					<path id="Layer" class="s1" d="m71.95 85c-0.75 0-1.36-0.61-1.36-1.36c-0.01-0.75 0.6-1.37 1.36-1.38l11.18-0.1c0 0 0 0 0.01 0c0.75 0 1.36 0.61 1.36 1.36c0 0.75-0.6 1.37-1.36 1.38l-11.18 0.1c0 0 0 0-0.01 0z"/>
				</g>
			</g>
			<g id="Layer">
				<g id="Layer">
					<path id="Layer" class="s1" d="m64.02 85.06c-0.74 0-1.35-0.6-1.37-1.35c-0.01-0.75 0.6-1.37 1.35-1.38l1.69-0.02c0 0 0 0 0.01 0c0.75 0 1.36 0.6 1.36 1.35c0.01 0.75-0.6 1.37-1.35 1.38l-1.69 0.01c0 0-0.01 0-0.01 0z"/>
				</g>
			</g>
		</g>
		<g id="Layer" style="opacity: 0.6">
			<g id="Layer">
				<g id="Layer">
					<path id="Layer" fill-rule="evenodd" class="s1" d="m29.9 145.29c0.57 0 1.02 0.45 1.02 1.01v0.52c1.4 0.16 2.58 0.62 3.68 1.3c0.38 0.22 0.71 0.57 0.71 1.14c0 0.74-0.6 1.31-1.33 1.31c-0.23 0-0.47-0.08-0.71-0.22c-0.83-0.5-1.63-0.85-2.44-1.04v4.55c3.6 0.9 5.15 2.35 5.15 4.89c0 2.6-2.04 4.33-5.05 4.62v1.42c0 0.57-0.45 1.02-1.02 1.02c-0.57 0-1.05-0.45-1.05-1.02v-1.47c-1.78-0.19-3.41-0.83-4.86-1.85c-0.4-0.26-0.64-0.64-0.64-1.14c0-0.74 0.57-1.3 1.3-1.3c0.28 0 0.57 0.09 0.78 0.26c1.11 0.81 2.21 1.35 3.51 1.59v-4.67c-3.46-0.9-5.07-2.21-5.07-4.88c0-2.54 2.01-4.29 4.97-4.53v-0.5c0-0.57 0.48-1.01 1.05-1.01zm-0.95 8.08v-4.2c-1.51 0.15-2.27 0.95-2.27 1.99c0 1 0.45 1.61 2.27 2.21zm1.87 3.3v4.31c1.52-0.17 2.35-0.93 2.35-2.07c0-1.04-0.52-1.68-2.35-2.25z"/>
				</g>
			</g>
		</g>
		<g id="Layer">
			<g id="Layer">
				<g id="Layer">
					<g id="Layer">
						<path id="Layer" class="s1" d="m216.01 113.71c0-18.66 18.16-32.46 35.7-45.8c13.35-10.15 25.95-19.75 27.45-29.41c0.85-5.57-1.64-9.31-3.89-11.48c-4.05-3.92-10.46-5.86-16.7-5.06c-4.98 0.64-8.41 3.66-9.43 8.3c-0.88 4.01-0.06 7.16 2.39 9.11c2.32 1.87 5.96 2.4 8.85 1.31c1.73-0.67 3.91-2.18 4.31-5.66c0.27-2.24 2.44-3.86 4.73-3.59c2.34 0.26 4.02 2.26 3.77 4.49c-0.69 5.76-4.19 10.24-9.63 12.31c-5.87 2.23-12.75 1.2-17.52-2.62c-4.86-3.89-6.78-10.09-5.25-17.01c1.74-7.98 8.13-13.63 16.65-14.71c8.85-1.13 18.02 1.72 23.92 7.43c5.1 4.92 7.32 11.44 6.25 18.37c-1.99 12.84-15.87 23.4-30.58 34.58c-15.96 12.16-32.48 24.71-32.48 39.45c0 2.24-1.92 4.08-4.27 4.08c-2.36 0-4.28-1.84-4.28-4.08z"/>
					</g>
				</g>
			</g>
			<g id="Layer">
				<g id="Layer">
					<g id="Layer">
						<path id="Layer" class="s1" d="m119.14 117.78c-2.36 0-4.27-1.84-4.27-4.08c0-14.74-16.52-27.29-32.49-39.45c-14.7-11.18-28.59-21.74-30.58-34.58c-1.07-6.93 1.15-13.45 6.25-18.37c5.91-5.7 15.08-8.56 23.92-7.43c8.52 1.09 14.91 6.73 16.67 14.71c1.51 6.92-0.4 13.12-5.26 17.01c-4.78 3.82-11.66 4.85-17.51 2.62c-5.44-2.07-8.96-6.55-9.63-12.31c-0.27-2.23 1.42-4.24 3.77-4.49c2.28-0.27 4.45 1.35 4.72 3.59c0.41 3.48 2.57 4.99 4.31 5.66c2.89 1.1 6.52 0.56 8.86-1.31c2.44-1.95 3.28-5.1 2.39-9.11c-1.02-4.64-4.46-7.67-9.43-8.3c-6.26-0.8-12.66 1.14-16.72 5.06c-2.24 2.17-4.74 5.91-3.88 11.48c1.49 9.67 14.1 19.26 27.44 29.42c17.56 13.34 35.7 27.14 35.7 45.8c0 2.24-1.91 4.08-4.27 4.08z"/>
					</g>
				</g>
			</g>
			<g id="Layer">
				<g id="Layer">
					<path id="Layer" class="s2" d="m245.99 6.38c-0.08 0.48-0.25 0.95-0.42 1.43c-0.75 3.02-1.75 7.16-3.09 12.49c-2.92 13.05-7.1 32.71-11.02 57.45c-7.52 46.79-43.18 59.76-50.19 67.64c-2.51 2.79-3.51 5.33-3.84 6.45c-0.67 1.91-0.84 3.66-0.84 5.25c-0.25 21.89 6.76 34.22 6.76 34.22c4.01 7.16 9.1 13.77 17.54 18.94c8.85 5.57 20.55 8.35 26.72 9.47c1.25 0.24 2.51 0.96 3.43 1.83c0.92 0.8 1.59 1.83 1.84 2.86l2 7.32h-130.36l2-7.32c0.25-1.03 0.92-2.07 1.84-2.86c0.92-0.88 2.17-1.6 3.42-1.83c6.18-1.11 17.87-3.9 26.81-9.47c8.18-5.09 13.19-11.46 17.45-18.94c0 0 7.85-13.61 7.1-34.06c-0.09-2.23-0.5-3.74-0.75-4.61c-0.67-2.39-2.17-4.7-4.26-7.25c-5.6-6.92-42.68-20.85-50.19-67.64c-3.92-24.75-8.1-44.4-11.11-57.45c-1.25-5.33-2.34-9.47-3.01-12.49c-0.17-0.48-0.33-0.96-0.42-1.43c-0.58-2.15 0.92-3.9 3.26-3.9h146.06c2.42 0 3.84 1.75 3.26 3.9z"/>
					<path id="Layer" fill-rule="evenodd" class="s1" d="m238.11 234.2h-136.81l2.85-10.43c0.35-1.46 1.28-2.94 2.6-4.07c1.23-1.18 2.93-2.08 4.57-2.39c4.8-0.87 16.89-3.48 25.96-9.14c6.88-4.28 11.84-9.68 16.62-18.07c0.08-0.14 7.5-13.32 6.78-32.75c-0.08-2.03-0.47-3.37-0.66-4.02c-0.51-1.83-1.68-3.79-3.8-6.38c-0.99-1.21-3.69-3.06-6.82-5.2c-13.22-9.02-37.82-25.8-43.89-63.61c-3.11-19.64-6.84-38.91-11.08-57.29c-0.58-2.46-1.13-4.68-1.61-6.65c-0.56-2.29-1.04-4.23-1.4-5.86c-0.13-0.32-0.33-0.92-0.44-1.52c-0.42-1.51-0.1-3.26 0.92-4.59c1.08-1.41 2.81-2.21 4.76-2.21h146.06c1.97 0 3.71 0.8 4.78 2.19c1.01 1.33 1.32 3.08 0.85 4.81c-0.05 0.38-0.25 0.99-0.47 1.6l-3.02 12.27c-2.79 12.48-6.99 32.05-10.98 57.24c-6.08 37.82-30.32 54.36-43.35 63.24c-3.29 2.25-6.14 4.19-7.44 5.65c-2.25 2.51-3.07 4.7-3.32 5.53c-0.51 1.46-0.73 2.87-0.73 4.53c-0.24 20.89 6.38 32.89 6.45 33.01c4.61 8.24 9.75 13.8 16.68 18.06c9 5.66 21.09 8.28 25.87 9.14c1.66 0.31 3.36 1.21 4.68 2.47c1.24 1.07 2.16 2.54 2.53 4.07l2.83 10.36zm-130.36-4.92h123.91l-1.15-4.21c-0.15-0.6-0.54-1.19-1.08-1.66c-0.72-0.68-1.55-1.13-2.26-1.27c-5.05-0.91-17.87-3.69-27.58-9.81c-7.66-4.69-13.33-10.82-18.37-19.82c-0.29-0.51-7.33-13.16-7.08-35.45c0-2.21 0.31-4.13 0.98-6.03c0.31-1.04 1.43-4.05 4.33-7.28c1.69-1.9 4.63-3.9 8.33-6.43c13.28-9.06 35.52-24.23 41.26-59.95c4.02-25.32 8.23-45 11.05-57.6l3.1-12.54c0.19-0.57 0.32-0.91 0.38-1.26c0.08-0.34 0.15-0.62 0.04-0.76c-0.09-0.12-0.38-0.26-0.87-0.26h-146.06c-0.47 0-0.75 0.15-0.85 0.28c-0.1 0.14-0.07 0.35-0.03 0.52c0.11 0.55 0.24 0.9 0.36 1.25c0.44 1.89 0.91 3.8 1.45 6.04c0.49 1.98 1.04 4.22 1.63 6.71c4.26 18.5 8.01 37.88 11.14 57.63c5.74 35.71 29.2 51.72 41.81 60.32c3.74 2.55 6.44 4.39 7.87 6.16c2.56 3.13 4.02 5.64 4.71 8.13c0.22 0.75 0.74 2.55 0.85 5.18c0.76 20.92-7.1 34.8-7.43 35.38c-5.19 9.13-10.67 15.06-18.28 19.8c-9.8 6.1-22.62 8.89-27.68 9.8c-0.69 0.13-1.53 0.59-2.16 1.19c-0.62 0.54-1.02 1.13-1.15 1.66l-1.17 4.29z"/>
				</g>
				<g id="Layer">
					<path id="Layer" fill-rule="evenodd" class="s1" d="m234.88 233.83h-130.36c-0.65 0-1.26-0.3-1.66-0.82c-0.4-0.52-0.53-1.19-0.36-1.82l2-7.32c0.34-1.4 1.22-2.8 2.48-3.89c1.19-1.14 2.82-2 4.4-2.31c4.81-0.87 16.95-3.49 26.1-9.19c6.93-4.31 11.94-9.76 16.74-18.2c0.08-0.15 7.54-13.41 6.83-32.95c-0.08-2.03-0.47-3.39-0.67-4.12c-0.52-1.86-1.72-3.86-3.87-6.49c-1.02-1.26-3.75-3.12-6.9-5.28c-13.18-8.99-37.69-25.72-43.73-63.36c-3.11-19.63-6.84-38.91-11.08-57.32c-0.59-2.48-1.13-4.71-1.62-6.68c-0.54-2.21-1.01-4.11-1.36-5.7c-0.17-0.47-0.36-1.03-0.47-1.65c-0.39-1.41-0.1-3.04 0.85-4.28c1-1.31 2.63-2.07 4.46-2.07h146.06c1.85 0 3.48 0.75 4.48 2.05c0.92 1.21 1.22 2.81 0.82 4.39c-0.12 0.63-0.33 1.21-0.5 1.68l-0.88 3.63c-0.6 2.43-1.3 5.31-2.14 8.67c-2.79 12.45-6.98 31.99-10.99 57.28c-6.05 37.66-30.21 54.14-43.19 62.99c-3.45 2.35-6.17 4.21-7.5 5.71c-2.37 2.64-3.2 5-3.4 5.66c-0.52 1.49-0.75 2.94-0.75 4.65c-0.24 21 6.42 33.08 6.49 33.19c4.65 8.3 9.83 13.91 16.81 18.19c9.07 5.7 21.21 8.33 26 9.19c1.6 0.31 3.23 1.17 4.5 2.38c1.19 1.02 2.07 2.43 2.43 3.88l1.99 7.26c0.17 0.63 0.04 1.3-0.35 1.82c-0.4 0.51-1.01 0.82-1.66 0.82zm-127.62-4.17h124.89l-1.28-4.68c-0.16-0.66-0.6-1.33-1.19-1.84c-0.75-0.71-1.66-1.21-2.45-1.35c-5.02-0.9-17.78-3.67-27.45-9.75c-7.6-4.67-13.24-10.74-18.24-19.69c-0.29-0.51-7.28-13.07-7.03-35.26c0-2.17 0.3-4.06 0.95-5.92c0.3-1.02 1.39-3.96 4.26-7.15c1.67-1.87 4.58-3.86 8.26-6.38c13.34-9.09 35.66-24.32 41.42-60.2c4.03-25.4 8.23-45.02 11.05-57.58c0.85-3.4 1.56-6.28 2.16-8.7l0.94-3.84c0.19-0.56 0.33-0.92 0.39-1.29c0.01-0.07 0.02-0.13 0.04-0.19c0.07-0.25 0.11-0.61-0.08-0.86c-0.2-0.26-0.62-0.41-1.16-0.41h-146.07c-0.51 0-0.94 0.16-1.15 0.43c-0.15 0.21-0.19 0.49-0.09 0.84c0.11 0.55 0.24 0.92 0.37 1.28c0.03 0.08 0.05 0.16 0.07 0.25c0.36 1.59 0.83 3.5 1.37 5.73c0.49 1.99 1.04 4.23 1.63 6.74c4.26 18.5 8.01 37.89 11.14 57.6c5.76 35.87 29.31 51.93 41.97 60.56c3.71 2.54 6.4 4.36 7.79 6.09c2.53 3.08 3.96 5.55 4.65 7.99c0.24 0.83 0.73 2.56 0.83 5.1c0.76 20.81-7.04 34.6-7.38 35.18c-5.17 9.08-10.6 14.97-18.16 19.67c-9.75 6.08-22.51 8.85-27.54 9.75c-0.76 0.15-1.68 0.64-2.35 1.29c-0.66 0.58-1.1 1.24-1.25 1.85l-1.3 4.75z"/>
				</g>
			</g>
			<g id="Layer">
				<g id="Layer">
					<path id="Layer" class="s0" d="m251.92 253.63v41.86h-164.44v-41.86c0-9.23 7.85-16.71 17.45-16.71h129.53c9.6 0 17.46 7.48 17.46 16.71z"/>
					<path id="Layer" fill-rule="evenodd" class="s1" d="m85.02 297.94v-44.32c0-10.57 8.94-19.17 19.91-19.17h129.53c10.98 0 19.91 8.6 19.91 19.17v44.32h-169.36zm164.44-4.92v-39.4c0-7.85-6.73-14.25-15-14.25h-129.53c-8.27 0-15 6.4-15 14.25v39.4h159.52z"/>
				</g>
				<g id="Layer">
					<path id="Layer" fill-rule="evenodd" class="s1" d="m251.92 297.57h-164.44c-1.15 0-2.08-0.93-2.08-2.09v-41.86c0-10.37 8.76-18.8 19.54-18.8h129.53c10.77 0 19.54 8.43 19.54 18.8v41.86c0 1.16-0.94 2.09-2.09 2.09zm-2.08-4.17v-39.77c0-8.06-6.9-14.62-15.37-14.62h-129.53c-8.47 0-15.37 6.56-15.37 14.62v39.77h160.27z"/>
				</g>
			</g>
			<g id="Layer">
				<g id="Layer">
					<path id="Layer" class="s3" d="m185.21 266.06c0 8.16-6.93 14.77-15.5 14.77v0c-8.56 0-15.49-6.61-15.49-14.77v-1.54c0-8.15 6.93-14.77 15.49-14.77v0c8.57 0 15.5 6.61 15.5 14.77v1.54h0z"/>
				</g>
				<g id="Layer">
					<path id="Layer" fill-rule="evenodd" class="s1" d="m169.71 282.36c-9.38 0-17.01-7.31-17.01-16.3v-1.54c0-8.98 7.63-16.29 17.01-16.29c9.39 0 17.02 7.31 17.02 16.29v1.54c0 8.99-7.63 16.3-17.02 16.3zm0-31.09c-7.7 0-13.97 5.94-13.97 13.25v1.54c0 7.31 6.27 13.26 13.97 13.26c7.71 0 13.98-5.95 13.98-13.26v-1.54c0-7.3-6.28-13.25-13.98-13.25z"/>
				</g>
			</g>
			<g id="Layer" style="opacity: 0.3">
				<g id="Layer">
					<path id="Layer" class="s1" d="m245.57 8.9c-0.75 3.02-1.75 7.16-3.09 12.49c-0.17 0.08-0.25 0.08-0.42 0.08h-144.73c-0.17 0-0.33 0-0.5-0.08c-1.25-5.33-2.34-9.47-3.01-12.49c1-0.64 2.25-0.96 3.51-0.96h144.73c1.25 0 2.51 0.32 3.51 0.96z"/>
				</g>
			</g>
			<g id="Layer" style="opacity: 0.3">
				<g id="Layer">
					<path id="Layer" class="s1" d="m234.88 230.67h-130.36l2-7.32c0.25-1.04 0.92-2.07 1.84-2.86h122.68c0.92 0.79 1.59 1.82 1.84 2.86l2 7.32z"/>
				</g>
			</g>
			<g id="Layer" style="opacity: 0.3">
				<g id="Layer">
					<path id="Layer" class="s1" d="m87.48 288.35h164.44v6.28h-164.44v-6.28z"/>
				</g>
			</g>
			<g id="Layer">
				<g id="Layer">
					<path id="Layer" class="s3" d="m133.87 116.21c-0.6 0-1.2-0.26-1.61-0.75c-4.15-4.99-7.6-10.47-10.25-16.29c-3.4-7.44-5.47-15.34-6.16-23.47l-4.34-25.11c-0.2-1.14 0.57-2.22 1.7-2.41c1.14-0.21 2.22 0.56 2.41 1.7l4.36 25.29c0.67 7.83 2.62 15.26 5.82 22.27c2.5 5.48 5.76 10.65 9.67 15.35c0.74 0.89 0.62 2.21-0.27 2.94c-0.39 0.32-0.86 0.48-1.33 0.48z"/>
				</g>
			</g>
			<g id="Layer">
				<g id="Layer">
					<path id="Layer" class="s3" d="m111.37 39.6c-1 0-1.88-0.72-2.06-1.73l-1.41-8.17c-0.19-1.14 0.57-2.21 1.71-2.41c1.13-0.2 2.22 0.56 2.41 1.7l1.41 8.17c0.2 1.14-0.57 2.22-1.7 2.41c-0.12 0.02-0.24 0.03-0.36 0.03z"/>
				</g>
			</g>
			<g id="Layer">
				<g id="Layer">
					<path id="Layer" class="s0" d="m249.19 9.24c0 3.75-3.18 6.79-7.11 6.79h-144.74c-3.93 0-7.12-3.04-7.12-6.79v0c0-3.74 3.19-6.78 7.12-6.78h144.74c3.94 0 7.11 3.04 7.11 6.78v0z"/>
					<path id="Layer" fill-rule="evenodd" class="s1" d="m242.08 18.49h-144.74c-5.28 0-9.58-4.15-9.58-9.25c0-5.1 4.3-9.24 9.58-9.24h144.74c5.28 0 9.57 4.14 9.57 9.24c0 5.1-4.29 9.25-9.57 9.25zm-149.39-9.25c0 2.39 2.09 4.33 4.66 4.33h144.74c2.57 0 4.65-1.94 4.65-4.33c0-2.38-2.09-4.32-4.65-4.32h-144.74c-2.57 0-4.66 1.94-4.66 4.32z"/>
				</g>
				<g id="Layer">
					<path id="Layer" fill-rule="evenodd" class="s1" d="m242.08 18.12h-144.74c-5.07 0-9.2-3.98-9.2-8.88c0-4.89 4.13-8.87 9.2-8.87h144.74c5.07 0 9.2 3.98 9.2 8.87c0 4.9-4.13 8.88-9.2 8.88zm-149.76-8.88c0 2.59 2.25 4.7 5.03 4.7h144.74c2.77 0 5.03-2.11 5.03-4.7c0-2.59-2.26-4.69-5.03-4.69h-144.74c-2.77 0-5.03 2.11-5.03 4.69z"/>
				</g>
			</g>
			<g id="Layer">
				<g id="Layer">
					<path id="Layer" class="s2" d="m236.38 236.95h-136.76c-2.94 0-5.35-2.41-5.35-5.35v-0.67c0-2.94 2.41-5.35 5.35-5.35h136.76c2.94 0 5.35 2.41 5.35 5.35v0.67c0 2.94-2.41 5.35-5.35 5.35z"/>
				</g>
				<g id="Layer">
					<path id="Layer" fill-rule="evenodd" class="s1" d="m236.38 239.04h-136.76c-4.1 0-7.44-3.33-7.44-7.44v-0.67c0-4.1 3.34-7.44 7.44-7.44h136.76c4.1 0 7.44 3.34 7.44 7.44v0.67c0 4.1-3.34 7.44-7.44 7.44zm-136.76-11.38c-1.8 0-3.27 1.47-3.27 3.27v0.67c0 1.8 1.47 3.26 3.27 3.26h136.76c1.8 0 3.27-1.47 3.27-3.26v-0.67c0-1.8-1.47-3.27-3.27-3.27h-136.76z"/>
				</g>
			</g>
			<g id="Layer">
				<g id="Layer">
					<path id="Layer" class="s2" d="m251.48 313.07h-166.97c-5.14 0-9.35-4.2-9.35-9.35v-1.17c0-5.14 4.21-9.35 9.35-9.35h166.97c5.14 0 9.35 4.21 9.35 9.35v1.17c0 5.14-4.21 9.35-9.35 9.35z"/>
				</g>
				<g id="Layer">
					<path id="Layer" fill-rule="evenodd" class="s1" d="m251.48 315.16h-166.97c-6.3 0-11.44-5.13-11.44-11.44v-1.17c0-6.31 5.13-11.44 11.44-11.44h166.97c6.3 0 11.44 5.13 11.44 11.44v1.17c0 6.31-5.13 11.44-11.44 11.44zm-166.97-19.87c-4.01 0-7.27 3.26-7.27 7.27v1.17c0 4 3.26 7.26 7.27 7.26h166.97c4 0 7.26-3.26 7.26-7.26v-1.17c0-4.01-3.26-7.27-7.26-7.27h-166.97z"/>
				</g>
			</g>
			<g id="Layer">
				<g id="Layer">
					<path id="Layer" class="s3" d="m96.31 276.17c-1.15 0-2.09-0.93-2.09-2.09v-2.25c0-1.15 0.94-2.08 2.09-2.08c1.15 0 2.08 0.93 2.08 2.08v2.25c0 1.15-0.93 2.09-2.08 2.09z"/>
				</g>
			</g>
			<g id="Layer">
				<g id="Layer">
					<path id="Layer" class="s3" d="m96.31 266.7c-1.15 0-2.09-0.93-2.09-2.09v-9.55c0-2.1 1.19-5.71 4.53-8.94c4.97-4.8 13.84-3.94 14.21-3.91c1.15 0.12 1.98 1.14 1.86 2.29c-0.11 1.15-1.14 1.99-2.29 1.86c-0.08 0-7.32-0.69-10.87 2.76c-2.58 2.49-3.26 4.98-3.26 5.94v9.55c0 1.15-0.93 2.09-2.08 2.09z"/>
				</g>
			</g>
			<g id="Layer">
				<g id="Layer">
					<path id="Layer" class="s1" d="m181.28 134.75c-0.7 0-1.38-0.35-1.78-1c-0.6-0.98-0.3-2.27 0.68-2.87c5.47-3.36 10.65-7.21 15.4-11.44c4.34-3.87 8.38-8.11 12.01-12.61c0.72-0.9 2.04-1.04 2.94-0.31c0.9 0.72 1.04 2.04 0.32 2.94c-3.77 4.68-7.97 9.09-12.48 13.11c-4.94 4.4-10.32 8.4-15.99 11.89c-0.34 0.21-0.72 0.31-1.1 0.31z"/>
				</g>
			</g>
			<g id="Layer">
				<g id="Layer">
					<path id="Layer" class="s1" d="m213.1 103.93c-0.36 0-0.73-0.1-1.07-0.3c-0.99-0.59-1.31-1.87-0.73-2.86l2.2-3.69c0.59-0.99 1.87-1.31 2.86-0.73c0.99 0.59 1.32 1.87 0.73 2.86l-2.2 3.69c-0.39 0.66-1.09 1.02-1.8 1.02z"/>
				</g>
			</g>
		</g>
	</g>
</svg>