<svg version="1.2" baseProfile="tiny-ps" xmlns="http://www.w3.org/2000/svg" viewBox="0 0 350 268" width="350" height="268">
	<title>about-2-svg</title>
	<style>
		tspan { white-space:pre }
		.s0 { fill: #f5bfba }
		.s1 { fill: #06196a }
		.s2 { fill: #9ba9dd }
		.s3 { fill: #ffffff }
		.s4 { fill: #c3fbed }
	</style>
	<g id="Layer">
		<g id="Layer" style="opacity: 0.5">
			<g id="XMLID_272_">
				<g id="Layer">
					<g id="Layer">
						<path id="Layer" class="s0" d="m260.87 132.94h-1.47c-3.06 0-5.53-2.48-5.53-5.54v-20c0-3.06 2.48-5.54 5.53-5.54h1.47c3.06 0 5.54 2.48 5.54 5.54v20c0 3.06-2.48 5.54-5.54 5.54z"/>
					</g>
				</g>
			</g>
			<g id="XMLID_271_">
				<g id="Layer">
					<g id="Layer">
						<path id="Layer" class="s0" d="m278.02 132.94h-1.47c-3.06 0-5.54-2.48-5.54-5.54v-13.17c0-3.06 2.48-5.54 5.54-5.54h1.47c3.06 0 5.54 2.48 5.54 5.54v13.17c0 3.06-2.48 5.54-5.54 5.54z"/>
					</g>
				</g>
			</g>
			<g id="XMLID_270_">
				<g id="Layer">
					<g id="Layer">
						<path id="Layer" class="s0" d="m295.17 132.94h-1.47c-3.06 0-5.54-2.48-5.54-5.54v-28.91c0-3.06 2.48-5.54 5.54-5.54h1.47c3.05 0 5.53 2.48 5.53 5.54v28.91c0 3.06-2.48 5.54-5.53 5.54z"/>
					</g>
				</g>
			</g>
			<g id="XMLID_269_">
				<g id="Layer">
					<g id="Layer">
						<path id="Layer" class="s0" d="m312.32 132.94h-1.47c-3.06 0-5.54-2.48-5.54-5.54v-6.4c0-3.05 2.48-5.53 5.54-5.53h1.47c3.06 0 5.54 2.48 5.54 5.53v6.4c0 3.06-2.48 5.54-5.54 5.54z"/>
					</g>
				</g>
			</g>
			<g id="Layer">
				<g id="Layer">
					<g id="Layer">
						<path id="Layer" class="s0" d="m319.95 136.31h-68.19c-0.31 0-0.56-0.28-0.56-0.63c0-0.34 0.25-0.63 0.56-0.63h68.19c0.31 0 0.56 0.28 0.56 0.63c0 0.35-0.25 0.63-0.56 0.63z"/>
					</g>
				</g>
			</g>
		</g>
		<g id="Layer" style="opacity: 0.1">
			<g id="Layer">
				<path id="Layer" class="s1" d="m279.14 237.98c-15.71 2.23-30.25-8.71-32.47-24.42c-2.22-15.71 8.71-30.25 24.42-32.47c15.71-2.23 30.25 8.71 32.47 24.42c2.23 15.71-8.71 30.25-24.42 32.47z"/>
			</g>
		</g>
		<g id="Layer" style="opacity: 0.7">
			<g id="Layer">
				<path id="Layer" class="s2" d="m270.78 253.84l5.7-1.81l1.81-5.7l1.8 5.7l5.7 1.81l-5.7 1.81l-1.8 5.7l-1.81-5.7l-5.7-1.81z"/>
				<path id="Layer" class="s1" d="m278.29 268.22l-3.47-10.91l-10.92-3.46l10.92-3.46l3.47-10.92l3.46 10.92l10.92 3.46l-10.92 3.46l-3.46 10.91z"/>
			</g>
			<g id="Layer">
				<path id="Layer" fill-rule="evenodd" class="s1" d="m278.28 262.18c-0.36 0-0.69-0.24-0.8-0.58l-1.68-5.29l-5.28-1.67c-0.35-0.11-0.59-0.44-0.59-0.8c0-0.36 0.24-0.68 0.59-0.79l5.28-1.68l1.68-5.28c0.22-0.7 1.37-0.7 1.59 0l1.68 5.28l5.28 1.68c0.35 0.11 0.58 0.43 0.58 0.79c0 0.37-0.23 0.69-0.58 0.8l-5.28 1.67l-1.68 5.29c-0.11 0.35-0.43 0.58-0.8 0.58zm-4.74-8.34l3.19 1.02c0.26 0.08 0.46 0.28 0.55 0.54l1.01 3.19l1.01-3.19c0.09-0.26 0.29-0.46 0.55-0.54l3.19-1.02l-3.19-1c-0.26-0.09-0.46-0.29-0.55-0.55l-1.01-3.18l-1.01 3.18c-0.09 0.26-0.29 0.46-0.55 0.55l-3.19 1z"/>
			</g>
		</g>
		<g id="Layer" style="opacity: 0.5">
			<g id="Layer">
				<path id="Layer" fill-rule="evenodd" class="s1" d="m292.55 199.05c-0.4 0-0.74-0.28-0.82-0.67l-1.9-8.94l-8.94-1.91c-0.38-0.08-0.66-0.42-0.66-0.81c0-0.4 0.28-0.74 0.66-0.81l8.94-1.91l1.9-8.94c0.17-0.77 1.47-0.77 1.63 0l1.91 8.94l8.94 1.91c0.39 0.08 0.66 0.42 0.66 0.81c0 0.39-0.27 0.73-0.66 0.81l-8.94 1.91l-1.91 8.94c-0.08 0.39-0.42 0.67-0.81 0.67zm-7.48-12.32l5.63 1.2c0.32 0.07 0.58 0.32 0.65 0.64l1.2 5.64l1.2-5.64c0.07-0.32 0.32-0.57 0.64-0.64l5.64-1.2l-5.64-1.2c-0.32-0.07-0.57-0.32-0.64-0.65l-1.2-5.63l-1.2 5.63c-0.07 0.32-0.32 0.57-0.65 0.65l-5.63 1.2z"/>
			</g>
		</g>
		<g id="Layer" style="opacity: 0.5">
			<g id="Layer">
				<path id="Layer" fill-rule="evenodd" class="s1" d="m283.78 154.86c-0.2 0-0.37-0.14-0.41-0.33l-0.95-4.47l-4.47-0.95c-0.19-0.04-0.33-0.21-0.33-0.41c0-0.2 0.14-0.37 0.33-0.41l4.47-0.95l0.95-4.47c0.08-0.39 0.73-0.39 0.81 0l0.95 4.47l4.48 0.95c0.19 0.04 0.33 0.21 0.33 0.41c0 0.19-0.14 0.36-0.33 0.41l-4.48 0.95l-0.95 4.47c-0.04 0.2-0.21 0.33-0.4 0.33zm-3.74-6.16l2.82 0.59c0.16 0.04 0.29 0.16 0.32 0.32l0.6 2.82l0.6-2.82c0.03-0.16 0.16-0.28 0.32-0.32l2.82-0.59l-2.82-0.6c-0.16-0.04-0.29-0.16-0.32-0.32l-0.6-2.81l-0.6 2.81c-0.04 0.16-0.16 0.28-0.32 0.32l-2.82 0.6z"/>
			</g>
		</g>
		<g id="Layer" style="opacity: 0.8">
			<g id="Layer">
				<path id="Layer" fill-rule="evenodd" class="s1" d="m319.21 228.22c-1.3 0-2.58-0.63-3.34-1.8c-1.19-1.84-0.67-4.31 1.16-5.5c1.84-1.19 4.31-0.67 5.49 1.16c1.19 1.83 0.67 4.3-1.16 5.49c-0.67 0.43-1.42 0.64-2.16 0.64zm-1.57-6.38c-1.33 0.87-1.71 2.65-0.84 3.97c0.86 1.32 2.64 1.71 3.97 0.84c1.33-0.87 1.71-2.65 0.84-3.97c-0.86-1.33-2.65-1.71-3.97-0.84z"/>
			</g>
		</g>
		<g id="Layer" style="opacity: 0.6">
			<g id="Layer">
				<path id="Layer" fill-rule="evenodd" class="s1" d="m277.26 84.36c-1.35 0-2.47-1.06-2.53-2.42c-0.03-0.67 0.21-1.32 0.66-1.82c0.46-0.5 1.08-0.79 1.76-0.82c0.66-0.03 1.32 0.2 1.82 0.66c0.5 0.46 0.79 1.08 0.82 1.76c0.07 1.39-1.02 2.58-2.41 2.64c-0.04 0-0.08 0-0.11 0zm0-4.26c-0.03 0-0.05 0-0.08 0c-0.46 0.02-0.89 0.22-1.2 0.56c-0.31 0.34-0.48 0.78-0.45 1.24c0.04 0.92 0.81 1.65 1.73 1.65c0.02 0 0.05 0 0.08 0c0.95-0.04 1.69-0.85 1.65-1.8c-0.02-0.46-0.22-0.88-0.56-1.2c-0.32-0.29-0.73-0.45-1.16-0.45z"/>
			</g>
		</g>
		<g id="Layer" style="opacity: 0.5">
			<g id="Layer">
				<path id="Layer" class="s1" d="m286.23 224.52c-2.4 0-4.33-1.94-4.33-4.33c0-2.4 1.94-4.33 4.33-4.33c2.4 0 4.33 1.94 4.33 4.33c0 2.4-1.94 4.33-4.33 4.33z"/>
			</g>
		</g>
		<g id="Layer" style="opacity: 0.5">
			<g id="Layer">
				<g id="Layer">
					<path id="Layer" class="s1" d="m332.01 82.44c0 0 0 0-0.01 0l-25.99-0.2c-0.49 0-0.88-0.4-0.88-0.9c0.01-0.49 0.4-0.88 0.89-0.88c0 0 0 0 0.01 0l25.99 0.2c0.49 0 0.88 0.41 0.88 0.9c0 0.49-0.4 0.88-0.89 0.88z"/>
				</g>
			</g>
			<g id="Layer">
				<g id="Layer">
					<path id="Layer" class="s1" d="m344.14 82.55h-0.01l-5.93-0.04c-0.49 0-0.88-0.4-0.88-0.89c0.01-0.49 0.4-0.88 0.88-0.88c0 0 0.01 0 0.01 0l5.93 0.04c0.49 0 0.88 0.4 0.88 0.89c0 0.49-0.4 0.88-0.89 0.88z"/>
				</g>
			</g>
		</g>
		<g id="Layer" style="opacity: 0.2">
			<g id="Layer">
				<g id="Layer">
					<path id="Layer" class="s1" d="m337.19 109.65h-0.01l-21.57-0.15c-0.53 0-0.95-0.43-0.95-0.96c0-0.53 0.43-0.95 0.95-0.95h0l21.57 0.15c0.53 0 0.95 0.43 0.94 0.96c0 0.52-0.43 0.95-0.95 0.95z"/>
				</g>
			</g>
			<g id="Layer">
				<g id="Layer">
					<path id="Layer" class="s1" d="m349.05 109.74c0 0 0 0 0 0l-4.92-0.03c-0.53 0-0.95-0.43-0.95-0.96c0-0.52 0.43-0.94 0.95-0.94h0l4.92 0.03c0.53 0 0.95 0.43 0.94 0.96c0 0.52-0.43 0.95-0.95 0.95z"/>
				</g>
			</g>
		</g>
		<g id="Layer" style="opacity: 0.4">
			<g id="Layer">
				<g id="Layer">
					<path id="Layer" fill-rule="evenodd" class="s1" d="m292.3 61.68c0.24 0 0.43 0.19 0.43 0.43v0.22c0.59 0.07 1.09 0.26 1.55 0.55c0.16 0.09 0.3 0.24 0.3 0.48c0 0.31-0.25 0.55-0.56 0.55c-0.1 0-0.2-0.03-0.3-0.09c-0.35-0.21-0.69-0.36-1.03-0.44v1.92c1.52 0.38 2.17 0.99 2.17 2.06c0 1.1-0.86 1.83-2.13 1.95v0.6c0 0.24-0.19 0.43-0.43 0.43c-0.24 0-0.44-0.19-0.44-0.43v-0.62c-0.75-0.08-1.44-0.35-2.05-0.78c-0.17-0.11-0.27-0.27-0.27-0.48c0-0.31 0.24-0.55 0.55-0.55c0.12 0 0.24 0.04 0.33 0.11c0.48 0.34 0.93 0.57 1.48 0.67v-1.97c-1.46-0.38-2.14-0.93-2.14-2.06c0-1.07 0.85-1.81 2.1-1.91v-0.21c0-0.24 0.2-0.43 0.44-0.43zm-0.4 3.42v-1.77c-0.64 0.06-0.96 0.4-0.96 0.84c0 0.42 0.19 0.68 0.96 0.93zm0.79 1.39v1.82c0.64-0.07 0.99-0.39 0.99-0.87c0-0.44-0.22-0.71-0.99-0.95z"/>
				</g>
			</g>
		</g>
		<g id="Layer" style="opacity: 0.3">
			<g id="Layer">
				<path id="Layer" class="s1" d="m277.52 61.12c0 4.66-3.77 8.43-8.43 8.43c-4.66 0-8.43-3.77-8.43-8.43c0-4.66 3.77-8.43 8.43-8.43c4.66 0 8.43 3.77 8.43 8.43z"/>
			</g>
		</g>
		<g id="Layer" style="opacity: 0.5">
			<g id="XMLID_257_">
				<g id="XMLID_258_">
					<g id="XMLID_268_">
						<g id="Layer">
							<g id="Layer">
								<path id="Layer" class="s0" d="m10.58 225.94v0c-2.18 0-3.95-1.77-3.95-3.96v-11.26c0-2.18 1.77-3.95 3.95-3.95v0c2.18 0 3.96 1.77 3.96 3.95v11.26c0 2.19-1.77 3.96-3.96 3.96z"/>
							</g>
						</g>
					</g>
					<g id="XMLID_267_">
						<g id="Layer">
							<g id="Layer">
								<path id="Layer" class="s0" d="m22.3 225.94v0c-2.18 0-3.95-1.77-3.95-3.96v-50.35c0-2.19 1.77-3.96 3.95-3.96v0c2.18 0 3.95 1.77 3.95 3.96v50.35c0 2.19-1.77 3.96-3.95 3.96z"/>
							</g>
						</g>
					</g>
					<g id="XMLID_266_">
						<g id="Layer">
							<g id="Layer">
								<path id="Layer" class="s0" d="m36.82 225.94v0c-2.18 0-3.96-1.77-3.96-3.96v-34.12c0-2.18 1.77-3.95 3.96-3.95v0c2.19 0 3.95 1.77 3.95 3.95v34.12c0 2.19-1.77 3.96-3.95 3.96z"/>
							</g>
						</g>
					</g>
					<g id="XMLID_265_">
						<g id="Layer">
							<g id="Layer">
								<path id="Layer" class="s0" d="m48.54 225.94v0c-2.18 0-3.95-1.77-3.95-3.96v-79.08c0-2.19 1.77-3.96 3.95-3.96v0c2.19 0 3.96 1.77 3.96 3.96v79.08c0 2.19-1.77 3.96-3.96 3.96z"/>
							</g>
						</g>
					</g>
					<g id="XMLID_264_">
						<g id="Layer">
							<g id="Layer">
								<path id="Layer" class="s0" d="m63.06 225.94v0c-2.18 0-3.95-1.77-3.95-3.96v-48.61c0-2.19 1.77-3.95 3.95-3.95v0c2.19 0 3.96 1.77 3.96 3.95v48.61c0 2.19-1.77 3.96-3.96 3.96z"/>
							</g>
						</g>
					</g>
					<g id="XMLID_263_">
						<g id="Layer">
							<g id="Layer">
								<path id="Layer" class="s0" d="m74.78 225.94v0c-2.18 0-3.95-1.77-3.95-3.96v-62.3c0-2.19 1.77-3.96 3.95-3.96v0c2.18 0 3.95 1.77 3.95 3.96v62.3c0 2.19-1.77 3.96-3.95 3.96z"/>
							</g>
						</g>
					</g>
					<g id="XMLID_262_">
						<g id="Layer">
							<g id="Layer">
								<path id="Layer" class="s0" d="m89.3 225.94v0c-2.18 0-3.95-1.77-3.95-3.96v-55.94c0-2.18 1.77-3.96 3.95-3.96v0c2.18 0 3.95 1.77 3.95 3.96v55.94c0 2.19-1.77 3.96-3.95 3.96z"/>
							</g>
						</g>
					</g>
					<g id="XMLID_261_">
						<g id="Layer">
							<g id="Layer">
								<path id="Layer" class="s0" d="m101.01 225.94v0c-2.18 0-3.96-1.77-3.96-3.96v-102.11c0-2.19 1.77-3.96 3.96-3.96v0c2.19 0 3.95 1.77 3.95 3.96v102.11c0 2.19-1.77 3.96-3.95 3.96z"/>
							</g>
						</g>
					</g>
					<g id="XMLID_260_">
						<g id="Layer">
							<g id="Layer">
								<path id="Layer" class="s0" d="m115.54 225.94v0c-2.19 0-3.96-1.77-3.96-3.96v-63.46c0-2.18 1.77-3.96 3.96-3.96v0c2.18 0 3.95 1.77 3.95 3.96v63.46c0 2.19-1.77 3.96-3.95 3.96z"/>
							</g>
						</g>
					</g>
					<g id="XMLID_259_">
						<g id="Layer">
							<g id="Layer">
								<path id="Layer" class="s0" d="m127.25 225.94v0c-2.18 0-3.95-1.77-3.95-3.96v-79.1c0-2.18 1.77-3.95 3.95-3.95v0c2.19 0 3.96 1.77 3.96 3.95v79.1c0 2.19-1.77 3.96-3.96 3.96z"/>
							</g>
						</g>
					</g>
				</g>
			</g>
			<g id="Layer">
				<g id="Layer">
					<g id="Layer">
						<path id="Layer" class="s0" d="m136.72 232.06h-135.61c-0.61 0-1.11-0.5-1.11-1.12c0-0.61 0.5-1.11 1.11-1.11h135.61c0.61 0 1.11 0.5 1.11 1.11c0 0.62-0.5 1.12-1.11 1.12z"/>
					</g>
				</g>
			</g>
		</g>
		<g id="Layer" style="opacity: 0.1">
			<g id="Layer">
				<path id="Layer" class="s1" d="m57.6 247.18c0.51-3.61 3.85-6.12 7.45-5.6c3.61 0.51 6.12 3.84 5.61 7.46c-0.51 3.61-3.85 6.12-7.45 5.6c-3.61-0.51-6.12-3.85-5.61-7.45z"/>
			</g>
		</g>
		<g id="Layer" style="opacity: 0.1">
			<g id="Layer">
				<path id="Layer" class="s1" d="m86.9 120.7c-14.14 0-25.57-11.43-25.57-25.57c0-14.14 11.43-25.57 25.57-25.57c14.14 0 25.57 11.43 25.57 25.57c0 14.14-11.43 25.57-25.57 25.57z"/>
			</g>
		</g>
		<g id="Layer" style="opacity: 0.1">
			<g id="Layer">
				<path id="Layer" class="s1" d="m36.14 73.99c-3.65 0-6.59-2.95-6.59-6.59c0-3.65 2.95-6.59 6.59-6.59c3.65 0 6.59 2.95 6.59 6.59c0 3.65-2.95 6.59-6.59 6.59z"/>
			</g>
		</g>
		<g id="Layer" style="opacity: 0.4">
			<g id="Layer">
				<path id="Layer" fill-rule="evenodd" class="s1" d="m67.39 118.21c-0.21 0-0.38-0.15-0.43-0.35l-1-4.68l-4.68-1c-0.2-0.04-0.35-0.22-0.35-0.43c0-0.21 0.14-0.39 0.35-0.43l4.68-1l1-4.68c0.04-0.2 0.22-0.35 0.43-0.35c0.21 0 0.39 0.14 0.43 0.35l1 4.68l4.69 1c0.2 0.04 0.34 0.22 0.34 0.43c0 0.21-0.14 0.39-0.34 0.43l-4.69 1l-1 4.68c-0.04 0.2-0.22 0.35-0.43 0.35zm-3.92-6.46l2.95 0.63c0.17 0.03 0.3 0.17 0.34 0.34l0.63 2.95l0.63-2.95c0.04-0.17 0.17-0.3 0.34-0.34l2.95-0.63l-2.95-0.63c-0.17-0.03-0.3-0.17-0.34-0.34l-0.63-2.95l-0.63 2.95c-0.04 0.17-0.17 0.3-0.34 0.34l-2.95 0.63z"/>
			</g>
		</g>
		<g id="Layer" style="opacity: 0.7">
			<g id="Layer">
				<g id="Layer">
					<path id="Layer" class="s1" d="m66.62 64.44c-3.28 0-5.96-2.67-5.96-5.96c0-3.28 2.67-5.96 5.96-5.96c3.28 0 5.96 2.67 5.96 5.96c0 0.39-0.32 0.71-0.71 0.71c-0.39 0-0.71-0.32-0.71-0.71c0-2.51-2.04-4.55-4.54-4.55c-2.5 0-4.54 2.04-4.54 4.55c0 2.5 2.04 4.54 4.54 4.54c0.39 0 0.71 0.32 0.71 0.71c0 0.39-0.32 0.71-0.71 0.71z"/>
				</g>
			</g>
			<g id="Layer">
				<g id="Layer">
					<path id="Layer" class="s1" d="m66.63 61.68c-1.12 0-2.2-0.58-2.79-1.62c-0.87-1.53-0.32-3.49 1.21-4.36c0.34-0.19 0.77-0.07 0.96 0.27c0.19 0.34 0.07 0.77-0.27 0.96c-0.86 0.48-1.17 1.58-0.68 2.44c0.48 0.86 1.57 1.16 2.44 0.67c0.86-0.48 1.16-1.58 0.67-2.44c-0.19-0.34-0.07-0.77 0.27-0.96c0.33-0.19 0.77-0.07 0.96 0.27c0.87 1.53 0.32 3.49-1.21 4.36c-0.49 0.28-1.03 0.41-1.57 0.41z"/>
				</g>
			</g>
		</g>
		<g id="Layer" style="opacity: 1">
			<g id="Layer">
				<g id="Layer">
					<path id="Layer" fill-rule="evenodd" class="s1" d="m45.28 121.98c-2.32 0-4.21-1.89-4.21-4.21c0-2.32 1.89-4.21 4.21-4.21c2.32 0 4.21 1.89 4.21 4.21c0 2.32-1.89 4.21-4.21 4.21zm0-7.37c-1.75 0-3.16 1.42-3.16 3.16c0 1.75 1.42 3.17 3.16 3.17c1.74 0 3.16-1.42 3.16-3.17c0-1.75-1.42-3.16-3.16-3.16z"/>
				</g>
			</g>
			<g id="Layer">
				<g id="Layer">
					<path id="Layer" class="s1" d="m45.28 119.84c-1.14 0-2.07-0.92-2.07-2.07c0-1.14 0.92-2.07 2.07-2.07c1.14 0 2.07 0.92 2.07 2.07c0 1.14-0.92 2.07-2.07 2.07z"/>
				</g>
			</g>
		</g>
		<g id="Layer" style="opacity: 0.9">
			<g id="Layer">
				<g id="Layer">
					<path id="Layer" class="s1" d="m50.66 92.63c-0.68 0-1.23-0.55-1.23-1.23c0-0.68 0.55-1.24 1.23-1.24l17.58-0.08h0.01c0.68 0 1.23 0.55 1.24 1.23c0 0.68-0.55 1.24-1.23 1.24l-17.58 0.08h-0.01z"/>
				</g>
			</g>
			<g id="Layer">
				<g id="Layer">
					<path id="Layer" class="s1" d="m41 92.69c-0.68 0-1.23-0.55-1.23-1.23c0-0.68 0.55-1.24 1.23-1.24l4.01-0.01c0.59-0.03 1.24 0.55 1.24 1.23c0 0.68-0.55 1.23-1.23 1.24l-4.01 0.01c0 0 0 0 0 0z"/>
				</g>
			</g>
		</g>
		<g id="Layer" style="opacity: 0.8">
			<g id="Layer">
				<g id="Layer">
					<path id="Layer" class="s1" d="m65.15 81c-0.68 0-1.23-0.55-1.24-1.22c0-0.68 0.54-1.24 1.23-1.25l10.12-0.09c0 0 0.01 0 0.01 0c0.68 0 1.23 0.55 1.24 1.23c0.01 0.68-0.54 1.24-1.23 1.25l-10.12 0.09c0 0 0 0-0.01 0z"/>
				</g>
			</g>
			<g id="Layer">
				<g id="Layer">
					<path id="Layer" class="s1" d="m57.98 81.06c-0.68 0-1.23-0.55-1.23-1.22c-0.01-0.68 0.54-1.24 1.22-1.25l1.52-0.01c0 0 0.01 0 0.01 0c0.68 0 1.23 0.55 1.23 1.22c0.01 0.68-0.54 1.24-1.22 1.25l-1.52 0.01c-0.01 0-0.01 0-0.01 0z"/>
				</g>
			</g>
		</g>
		<g id="Layer">
			<g id="Layer">
				<g id="Layer">
					<path id="Layer" class="s2" d="m247.54 263.53h-144.37c-9.37 0-16.96-7.59-16.96-16.95v-210.31c0-9.36 7.59-16.94 16.94-16.94h144.37c9.36 0 16.96 7.59 16.96 16.96v210.31c0 9.35-7.59 16.94-16.94 16.94z"/>
					<path id="Layer" fill-rule="evenodd" class="s1" d="m247.54 265.61h-144.37c-10.5 0-19.04-8.54-19.04-19.03v-210.31c0-10.49 8.53-19.02 19.02-19.02h144.37c10.5 0 19.03 8.54 19.03 19.04v210.31c0 10.48-8.53 19.01-19.01 19.01zm-159.25-229.34v210.31c0 8.21 6.67 14.88 14.88 14.88h144.37c8.19 0 14.86-6.67 14.86-14.86v-210.31c0-8.21-6.68-14.88-14.88-14.88h-144.37c-8.2 0-14.87 6.67-14.87 14.87z"/>
				</g>
				<g id="Layer">
					<path id="Layer" fill-rule="evenodd" class="s1" d="m247.54 265.9h-144.37c-10.65 0-19.32-8.67-19.32-19.32v-210.31c0-10.64 8.66-19.3 19.3-19.3h144.37c10.65 0 19.32 8.66 19.32 19.32v210.31c0 10.65-8.66 19.31-19.3 19.31zm-158.97-229.63v210.31c0 8.05 6.55 14.59 14.6 14.59h144.37c8.04 0 14.58-6.54 14.58-14.58v-210.31c0-8.05-6.55-14.6-14.6-14.6h-144.37c-8.04 0-14.58 6.54-14.58 14.58z"/>
				</g>
			</g>
			<g id="Layer">
				<g id="Layer">
					<path id="Layer" class="s0" d="m255.76 55.23v177.97c0 10.31-8.51 18.82-18.82 18.82h-116.23c-9.29 0-17.01-6.93-18.42-15.83c2.91 6.06 9.21 10.31 16.38 10.31h113.24c10.08 0 18.35-8.27 18.35-18.35v-173.4c0-10.16-8.27-18.35-18.35-18.35h5.04c10.39 0 18.82 8.43 18.82 18.82z"/>
				</g>
			</g>
			<g id="Layer">
				<g id="Layer">
					<path id="Layer" class="s3" d="m231.88 246.47h-113.22c-10 0-18.19-8.19-18.19-18.19v-173.55c0-10.09 8.25-18.35 18.35-18.35h113.06c10.13 0 18.34 8.21 18.34 18.35v173.39c0 10.09-8.26 18.35-18.34 18.35z"/>
				</g>
				<g id="Layer">
					<path id="Layer" fill-rule="evenodd" class="s1" d="m231.88 248.83h-113.22c-11.33 0-20.56-9.22-20.56-20.56v-173.55c0-11.42 9.29-20.71 20.71-20.71h113.06c11.42 0 20.7 9.29 20.7 20.71v173.4c0 11.42-9.29 20.7-20.7 20.7zm-129.05-194.11v173.55c0 8.73 7.1 15.83 15.83 15.83h113.21c8.81 0 15.98-7.17 15.98-15.98v-173.4c0-8.81-7.17-15.98-15.98-15.98h-113.06c-8.81 0-15.98 7.17-15.98 15.98z"/>
				</g>
			</g>
			<g id="Layer">
				<g id="Layer">
					<path id="Layer" class="s2" d="m142.88 82.58c0 8.03-6.12 14.53-13.68 14.53c-7.55 0-13.67-6.5-13.67-14.53c0-7.99 6.12-14.52 13.67-14.52c7.56 0 13.68 6.53 13.68 14.52z"/>
					<path id="Layer" fill-rule="evenodd" class="s1" d="m129.19 99.18c-8.69 0-15.75-7.45-15.75-16.6c0-9.15 7.06-16.6 15.75-16.6c8.69 0 15.76 7.45 15.76 16.6c0 9.16-7.07 16.6-15.76 16.6zm0-29.05c-6.39 0-11.6 5.58-11.6 12.45c0 6.87 5.2 12.45 11.6 12.45c6.4 0 11.61-5.58 11.61-12.45c0-6.86-5.21-12.45-11.61-12.45z"/>
				</g>
				<g id="Layer">
					<path id="Layer" fill-rule="evenodd" class="s1" d="m129.19 99.47c-8.84 0-16.03-7.58-16.03-16.89c0-9.31 7.19-16.88 16.03-16.88c8.85 0 16.04 7.57 16.04 16.88c0 9.32-7.2 16.89-16.04 16.89zm0-29.05c-6.24 0-11.31 5.46-11.31 12.16c0 6.71 5.08 12.17 11.31 12.17c6.24 0 11.32-5.46 11.32-12.17c0-6.7-5.08-12.16-11.32-12.16z"/>
				</g>
			</g>
			<g id="Layer">
				<g id="Layer">
					<path id="Layer" class="s4" d="m140.33 121.15c0 6.5-4.98 11.8-11.13 11.8c-6.13 0-11.12-5.3-11.12-11.8c0-6.53 4.99-11.83 11.12-11.83c6.16 0 11.13 5.3 11.13 11.83z"/>
				</g>
			</g>
			<g id="Layer">
				<g id="Layer">
					<path id="Layer" class="s4" d="m140.33 161.7c0 6.53-4.98 11.8-11.13 11.8c-6.13 0-11.12-5.27-11.12-11.8c0-6.5 4.99-11.8 11.12-11.8c6.16 0 11.13 5.3 11.13 11.8z"/>
				</g>
			</g>
			<g id="Layer">
				<g id="Layer">
					<path id="Layer" class="s4" d="m140.33 202.13c0 6.49-4.98 11.79-11.13 11.79c-6.13 0-11.12-5.31-11.12-11.79c0-6.54 4.99-11.84 11.12-11.84c6.16 0 11.13 5.3 11.13 11.84z"/>
				</g>
			</g>
			<g id="Layer">
				<g id="Layer">
					<path id="Layer" class="s1" d="m228.84 87.95h-74.78c-2.09 0-3.79-1.7-3.79-3.79v0c0-2.08 1.7-3.79 3.79-3.79h74.78c2.08 0 3.79 1.7 3.79 3.79v0c0 2.08-1.71 3.79-3.79 3.79z"/>
				</g>
			</g>
			<g id="Layer">
				<g id="Layer">
					<path id="Layer" class="s1" d="m228.84 124.92h-74.78c-2.09 0-3.79-1.7-3.79-3.78v0c0-2.08 1.7-3.79 3.79-3.79h74.78c2.08 0 3.79 1.7 3.79 3.79v0c0 2.08-1.71 3.78-3.79 3.78z"/>
				</g>
			</g>
			<g id="Layer">
				<g id="Layer">
					<path id="Layer" class="s1" d="m228.84 165.5h-74.78c-2.09 0-3.79-1.7-3.79-3.79v0c0-2.08 1.7-3.79 3.79-3.79h74.78c2.08 0 3.79 1.71 3.79 3.79v0c0 2.09-1.71 3.79-3.79 3.79z"/>
				</g>
			</g>
			<g id="Layer">
				<g id="Layer">
					<path id="Layer" class="s1" d="m228.84 205.89h-74.78c-2.09 0-3.79-1.7-3.79-3.78v0c0-2.09 1.7-3.79 3.79-3.79h74.78c2.08 0 3.79 1.7 3.79 3.79v0c0 2.08-1.71 3.78-3.79 3.78z"/>
				</g>
			</g>
			<g id="Layer">
				<g id="Layer">
					<g id="Layer">
						<path id="Layer" class="s1" d="m127.68 91.07c-0.01 0-0.03 0-0.04 0c-0.63-0.01-1.23-0.31-1.61-0.81l-5.01-6.48c-0.71-0.91-0.54-2.23 0.38-2.94c0.91-0.7 2.23-0.55 2.93 0.38l3.42 4.42l6.39-7.63c0.74-0.89 2.06-1 2.94-0.27c0.89 0.74 1.01 2.06 0.26 2.95l-8.05 9.63c-0.4 0.48-0.98 0.75-1.6 0.75z"/>
					</g>
				</g>
			</g>
			<g id="Layer">
				<g id="Layer">
					<path id="Layer" class="s3" d="m94.34 39.54c-1.03 0-1.89-0.8-1.96-1.84c-0.11-1.64 0.06-4.1 1.46-6.51c3.47-5.98 11.02-5.85 11.35-5.82l11.23 0.04c1.09 0 1.97 0.89 1.96 1.98c0 1.08-0.89 1.96-1.97 1.96c0 0 0 0-0.01 0l-11.28-0.04c-0.09 0.01-5.59-0.08-7.89 3.86c-0.9 1.55-1.01 3.18-0.93 4.27c0.07 1.09-0.75 2.02-1.83 2.09c-0.05 0-0.09 0-0.13 0z"/>
				</g>
			</g>
			<g id="Layer">
				<g id="Layer">
					<path id="Layer" fill-rule="evenodd" class="s4" d="m216.67 18.64c7.3 4.57 7.14 14.69 7.75 17.5c0.73 3.34-2.02 6.46-5.44 6.46h-87.26c-3.42 0-6.17-3.11-5.44-6.46c1.41-6.46 1.84-13.95 7.14-17.25c5.1-3.17 9.24-0.92 12.09-4.75c1.86-2.5 1.23-4.43 3.32-7.58c0.89-1.34 2.59-3.01 6.19-4.04h40.68c3.71 1.04 5.37 2.73 6.2 4.04c1.93 3.05 1.15 4.99 2.87 7.45c2.62 3.75 6.74 1.39 11.91 4.63zm-23.11-3.52c0-2.31-1.89-4.2-4.2-4.2h-28.67c-2.31 0-4.2 1.89-4.2 4.2c0 2.31 1.89 4.2 4.2 4.2h28.67c2.31 0 4.2-1.89 4.2-4.2z"/>
				</g>
				<g id="Layer">
					<path id="Layer" fill-rule="evenodd" class="s1" d="m218.98 45.13h-87.26c-2.48 0-4.8-1.11-6.36-3.04c-1.49-1.84-2.05-4.21-1.56-6.48c0.24-1.09 0.45-2.21 0.66-3.33c1.07-5.73 2.28-12.21 7.62-15.53c2.77-1.73 5.3-2.1 7.32-2.4c2.18-0.33 3.19-0.52 4.07-1.71c0.64-0.86 0.85-1.62 1.15-2.68c0.36-1.28 0.81-2.86 2.08-4.79c1.57-2.37 4.13-4.08 7.6-5.07l0.7-0.1l41.37 0.09c3.55 0.99 6.12 2.71 7.65 5.12c1.22 1.93 1.57 3.53 1.86 4.81c0.24 1.05 0.39 1.74 0.94 2.54c0.71 1.02 1.49 1.21 3.71 1.51c2.06 0.28 4.61 0.63 7.47 2.42c7.09 4.45 8.13 13.17 8.63 17.36c0.09 0.73 0.15 1.33 0.24 1.74c0.49 2.27-0.07 4.63-1.56 6.48c-1.56 1.94-3.87 3.05-6.36 3.05zm-63.6-40.08c-2.1 0.66-3.61 1.63-4.45 2.91c-0.84 1.26-1.12 2.24-1.44 3.37c-0.36 1.27-0.77 2.71-1.96 4.32c-2.17 2.92-4.95 3.34-7.39 3.7c-1.81 0.27-3.51 0.52-5.4 1.7c-3.44 2.14-4.35 7.01-5.31 12.16c-0.22 1.17-0.44 2.34-0.69 3.48c-0.23 1.05 0.25 1.85 0.56 2.23c0.58 0.73 1.49 1.16 2.41 1.16h87.26c0.93 0 1.83-0.44 2.42-1.16c0.31-0.38 0.78-1.18 0.56-2.23c-0.12-0.53-0.22-1.29-0.33-2.22c-0.47-3.94-1.26-10.52-6.3-13.68c-1.94-1.22-3.65-1.45-5.47-1.7c-2.4-0.33-5.13-0.71-7.17-3.62c-1.13-1.62-1.46-3.06-1.74-4.34c-0.24-1.09-0.45-2.02-1.2-3.2c-0.79-1.25-2.28-2.21-4.42-2.86h-39.95v0zm33.98 16.8h-28.67c-3.71 0-6.73-3.02-6.73-6.73c0-3.71 3.02-6.73 6.73-6.73h28.67c3.71 0 6.73 3.02 6.73 6.73c0 3.71-3.02 6.73-6.73 6.73zm-28.67-8.41c-0.91 0-1.67 0.77-1.67 1.68c0 0.91 0.76 1.68 1.67 1.68h28.67c0.91 0 1.68-0.77 1.68-1.68c0-0.91-0.77-1.68-1.68-1.68h-28.67z"/>
				</g>
			</g>
		</g>
	</g>
</svg>