<svg version="1.2" baseProfile="tiny-ps" xmlns="http://www.w3.org/2000/svg" viewBox="0 0 50 30" width="50" height="30">
	<title>mobile-swipe-svg</title>
	<style>
		tspan { white-space:pre }
		.s0 { fill: #ffffff }
	</style>
	<g id="Layer">
		<g id="Layer">
			<path id="Layer" fill-rule="evenodd" class="s0" d="m29.17 13.33h-8.33c-0.46 0-0.83-0.37-0.83-0.83v-4.17c0-2.76 2.24-5 5-5c2.76 0 5 2.24 5 5v4.17c0 0.46-0.37 0.83-0.83 0.83zm-7.5-1.67h6.67v-3.33c0-1.84-1.5-3.33-3.33-3.33c-1.84 0-3.33 1.5-3.33 3.33v3.33z"/>
		</g>
		<g id="Layer">
			<path id="Layer" class="s0" d="m32.5 30c-0.46 0-0.83-0.37-0.83-0.83v-20.83c0-3.68-2.99-6.67-6.67-6.67c-3.68 0-6.67 2.99-6.67 6.67v20.83c0 0.46-0.37 0.83-0.83 0.83c-0.46 0-0.83-0.37-0.83-0.83v-20.83c0-4.6 3.74-8.33 8.33-8.33c4.59 0 8.33 3.74 8.33 8.33v20.83c0 0.46-0.37 0.83-0.83 0.83z"/>
		</g>
		<g id="Layer">
			<path id="Layer" class="s0" d="m11.67 10h-10.83c-0.46 0-0.83-0.37-0.83-0.83c0-0.46 0.37-0.83 0.83-0.83h10.83c0.46 0 0.83 0.37 0.83 0.83c0 0.46-0.37 0.83-0.83 0.83z"/>
		</g>
		<g id="Layer">
			<path id="Layer" class="s0" d="m5 14.17c-0.21 0-0.43-0.08-0.59-0.24l-4.17-4.17c-0.33-0.33-0.33-0.85 0-1.18l4.17-4.17c0.33-0.33 0.85-0.33 1.18 0c0.33 0.33 0.33 0.85 0 1.18l-3.58 3.58l3.58 3.58c0.33 0.33 0.33 0.85 0 1.18c-0.16 0.16-0.38 0.24-0.59 0.24z"/>
		</g>
		<g id="Layer">
			<path id="Layer" class="s0" d="m49.17 10h-10.83c-0.46 0-0.83-0.37-0.83-0.83c0-0.46 0.37-0.83 0.83-0.83h10.83c0.46 0 0.83 0.37 0.83 0.83c0 0.46-0.37 0.83-0.83 0.83z"/>
		</g>
		<g id="Layer">
			<path id="Layer" class="s0" d="m45 14.17c-0.21 0-0.43-0.08-0.59-0.24c-0.33-0.32-0.33-0.85 0-1.18l3.58-3.58l-3.58-3.58c-0.33-0.33-0.33-0.85 0-1.18c0.33-0.33 0.85-0.33 1.18 0l4.17 4.17c0.33 0.32 0.33 0.85 0 1.18l-4.17 4.17c-0.16 0.16-0.38 0.24-0.59 0.24z"/>
		</g>
	</g>
</svg>