<svg version="1.2" baseProfile="tiny-ps" xmlns="http://www.w3.org/2000/svg" viewBox="0 0 199 30" width="199" height="30">
	<title>cards-svg</title>
	<style>
		tspan { white-space:pre }
		.s0 { fill: #f9f9f9 }
		.s1 { fill: #09599e }
		.s2 { fill: #e59703 }
		.s3 { opacity: 0.1;fill: #ffffff }
		.s4 { fill: #00589f }
		.s5 { fill: #f9a51a }
		.s6 { fill: #4361c3 }
		.s7 { fill: #ffaf38 }
		.s8 { fill: #eb3636 }
		.s9 { fill: #f7f6f4 }
		.s10 { fill: #053385 }
		.s11 { fill: #199ddb }
		.s12 { fill: #2aa0d0 }
		.s13 { fill: #ffffff }
	</style>
	<g id="Layer">
		<path id="Layer" class="s0" d="m0.04 7.88h42.35v14.12h-42.35v-14.12z"/>
		<path id="Layer" class="s1" d="m1.81-0.06h38.82c0.97 0 1.77 0.79 1.77 1.76v6.18h-42.35v-6.18c0-0.97 0.79-1.76 1.76-1.76z"/>
		<path id="Layer" class="s2" d="m0.04 22h42.35v6.18c0 0.97-0.79 1.77-1.77 1.77h-38.82c-0.97 0-1.76-0.79-1.76-1.77v-6.18h0z"/>
		<path id="Layer" class="s3" d="m1.81 29.89c-0.97 0-1.76-0.8-1.76-1.77v-26.43c0-0.97 0.79-1.76 1.76-1.76h38.82c0.97 0 1.77 0.79 1.77 1.76"/>
		<g id="Layer">
			<path id="Layer" class="s4" d="m16.41 18.64l1.28-7.46h2.03l-1.28 7.46h-2.03z"/>
			<path id="Layer" class="s4" d="m25.45 12.95l-0.18-0.09c-0.35-0.13-0.84-0.27-1.5-0.27c-0.79 0-1.15 0.35-1.15 0.66c0 0.35 0.44 0.57 1.15 0.93c1.19 0.53 1.72 1.19 1.72 2.03c0 1.54-1.41 2.56-3.53 2.56c-0.88 0-1.77-0.18-2.25-0.4l0.27-1.68l0.27 0.18c0.66 0.26 1.1 0.4 1.9 0.4c0.62 0 1.23-0.27 1.23-0.75c0-0.31-0.27-0.57-1.06-0.93c-0.75-0.35-1.77-0.97-1.77-2.03c0-1.46 1.41-2.47 3.44-2.47c0.79 0 1.41 0.18 1.81 0.31l-0.35 1.54z"/>
			<path id="Layer" fill-rule="evenodd" class="s4" d="m32.69 18.69h-1.9c0 0-0.22-0.84-0.27-1.1c-0.31 0-2.38 0-2.6 0c-0.09 0.18-0.44 1.1-0.44 1.1h-2.12l3-6.84c0.22-0.49 0.57-0.62 1.06-0.62h1.59l1.68 7.46zm-4.19-2.69v0.04h1.68c-0.09-0.4-0.48-2.16-0.48-2.16l-0.13-0.66c-0.09 0.26-0.27 0.71-0.27 0.71c0 0-0.62 1.63-0.79 2.07z"/>
			<path id="Layer" class="s4" d="m14.69 11.19h2.21l-3.22 7.46h-2.16l-1.85-6.48c1.28 0.66 2.47 1.94 2.82 3.13l0.22 1.02l1.98-5.07"/>
			<path id="Layer" class="s5" d="m11.78 11.85l0.71 3.4c-0.71-1.76-2.38-3.26-4.94-3.88l0.04-0.18h3.27c0.44 0.04 0.84 0.18 0.93 0.66z"/>
		</g>
	</g>
	<path id="Layer" class="s6" d="m53.63-0.08h38.82c0.97 0 1.77 0.79 1.77 1.76v26.47c0 0.97-0.79 1.77-1.77 1.77h-38.82c-0.97 0-1.77-0.8-1.77-1.77v-26.47c0-0.97 0.79-1.76 1.77-1.76z"/>
	<path id="Layer" class="s7" d="m78.11 8.74c3.53 0 6.4 2.87 6.4 6.4c0 3.53-2.87 6.4-6.4 6.4c-3.53 0-6.4-2.87-6.4-6.4c0-3.53 2.87-6.4 6.4-6.4z"/>
	<path id="Layer" class="s7" d="m72.6 11.83h4.41v0.88h-4.41v-0.88z"/>
	<path id="Layer" class="s8" d="m67.97 21.53c-3.53 0-6.4-2.87-6.4-6.4c0-3.53 2.87-6.4 6.4-6.4c3.53 0 6.4 2.87 6.4 6.4c0 3.53-2.87 6.4-6.4 6.4z"/>
	<path id="Layer" class="s7" d="m72.6 18v-0.88h5.73v0.88h-5.73zm0-6.18h5.73v0.88h-5.73v-0.88zm5.3 2.65h-5.74v-0.88h5.73v0.88h0zm0 1.77h-5.74v-0.88h5.73v0.88h0z"/>
	<path id="Layer" class="s3" d="m51.87 28.15v-26.47c0-0.97 0.79-1.76 1.77-1.76h38.82c0.97 0 1.77 0.79 1.77 1.76v0.79l-39.79 27.44h-0.79c-0.97 0-1.77-0.8-1.77-1.77z"/>
	<g id="Layer">
		<path id="Layer" class="s9" d="m105.08-0.09h38.82c0.97 0 1.76 0.79 1.76 1.76v26.47c0 0.97-0.79 1.77-1.76 1.77h-38.82c-0.97 0-1.76-0.79-1.76-1.77v-26.47c0-0.97 0.79-1.76 1.76-1.76z"/>
		<path id="Layer" fill-rule="evenodd" class="s10" d="m126.34 14.12l-4.06 5.96c-0.05 0.09-0.18 0.13-0.31 0.13h-1.23c-0.18 0-0.27-0.18-0.18-0.35l1.28-1.81l-1.32-4.01c-0.05-0.13 0.05-0.27 0.22-0.27h1.19c0.18 0 0.31 0.09 0.35 0.27l0.7 2.43l1.68-2.52c0.04-0.09 0.18-0.18 0.31-0.18h1.23c0.13 0 0.22 0.22 0.13 0.36zm-7.46 4.41h-1.1c-0.13 0-0.22-0.13-0.22-0.27l0.04-0.35c0 0-0.62 0.71-1.68 0.71c-0.62 0-1.15-0.18-1.55-0.62c-0.4-0.48-0.57-1.19-0.44-1.9c0.22-1.46 1.37-2.47 2.74-2.47c0.57 0 1.19 0.13 1.45 0.53l0.09 0.13l0.05-0.35c0-0.09 0.09-0.18 0.22-0.18h1.23c0.13 0 0.22 0.13 0.22 0.27l-0.66 4.24c-0.09 0.13-0.22 0.27-0.4 0.27zm-1.1-3.22c-0.18-0.22-0.49-0.35-0.8-0.35c-0.7 0-1.23 0.48-1.37 1.19c-0.05 0.35 0 0.66 0.18 0.88c0.18 0.22 0.49 0.35 0.84 0.35c0.7 0 1.23-0.48 1.37-1.19c0.04-0.36-0.04-0.66-0.22-0.88zm-6.4 0.84h-0.79c-0.18 0-0.31 0.13-0.35 0.31l-0.27 1.77c-0.04 0.18-0.18 0.31-0.35 0.31h-1.19c-0.13 0-0.22-0.13-0.22-0.27l1.02-6.62c0.05-0.18 0.18-0.31 0.35-0.31h2.56c0.84 0 1.5 0.22 1.85 0.66c0.31 0.4 0.44 0.97 0.31 1.68c-0.31 1.68-1.28 2.47-2.91 2.47zm0.88-3.04c-0.22-0.27-0.66-0.27-1.1-0.27h-0.18c-0.09 0-0.18 0.09-0.22 0.18l-0.27 1.72h0.4c0.66 0 1.37 0 1.5-0.93c0.05-0.31 0-0.57-0.13-0.71z"/>
		<path id="Layer" fill-rule="evenodd" class="s11" d="m139.8 18.27c-0.04 0.18-0.18 0.31-0.35 0.31h-1.06c-0.13 0-0.22-0.13-0.22-0.27l1.06-6.71c0-0.09 0.09-0.18 0.22-0.18h1.19c0.13 0 0.22 0.13 0.22 0.27l-1.06 6.57zm-2.82 0.27h-1.1c-0.13 0-0.22-0.13-0.22-0.27l0.04-0.35c0 0-0.62 0.71-1.68 0.71c-0.62 0-1.15-0.18-1.54-0.62c-0.4-0.48-0.57-1.19-0.44-1.9c0.22-1.46 1.37-2.47 2.74-2.47c0.57 0 1.19 0.13 1.46 0.53l0.09 0.13l0.04-0.35c0-0.09 0.09-0.18 0.22-0.18h1.24c0.13 0 0.22 0.13 0.22 0.27l-0.66 4.24c-0.05 0.13-0.22 0.27-0.4 0.27zm-1.1-3.22c-0.18-0.22-0.48-0.35-0.79-0.35c-0.71 0-1.23 0.48-1.37 1.19c-0.04 0.35 0 0.66 0.18 0.88c0.18 0.22 0.49 0.35 0.84 0.35c0.71 0 1.23-0.48 1.37-1.19c0.04-0.36 0-0.66-0.22-0.88zm-6.4 0.84h-0.79c-0.18 0-0.31 0.13-0.35 0.31l-0.31 1.9c0 0.13-0.13 0.22-0.27 0.22h-1.32c-0.13 0-0.22-0.13-0.22-0.26l1.02-6.62c0.05-0.18 0.18-0.31 0.35-0.31h2.56c0.84 0 1.5 0.22 1.85 0.66c0.31 0.4 0.44 0.97 0.31 1.68c-0.18 1.63-1.15 2.43-2.82 2.43zm0.88-3.04c-0.22-0.27-0.66-0.27-1.1-0.27h-0.18c-0.09 0-0.18 0.09-0.22 0.18l-0.27 1.72h0.4c0.66 0 1.37 0 1.5-0.93c0.05-0.31 0-0.57-0.13-0.71z"/>
		<path id="Layer" class="s3" d="m105.74 29.91c-1.32 0-2.43-1.1-2.43-2.47v-25.06c0-1.37 1.06-2.47 2.43-2.47h37.54c1.32 0 2.43 1.1 2.43 2.47"/>
	</g>
	<path id="Layer" class="s12" d="m156.65 0h38.82c0.97 0 1.77 0.79 1.77 1.76v26.47c0 0.97-0.79 1.77-1.77 1.77h-38.82c-0.97 0-1.76-0.79-1.76-1.77v-26.47c0-0.97 0.79-1.76 1.76-1.76z"/>
	<path id="Layer" fill-rule="evenodd" class="s12" d="m184.44 11.92v1.32c0 0.26-0.18 0.44-0.44 0.44h-3.09v0.44h3c0.27 0 0.44 0.18 0.44 0.44v1.32c0 0.26-0.18 0.44-0.44 0.44h-3v0.44h3.09c0.27 0 0.44 0.18 0.44 0.44v1.32c0 0.26-0.18 0.44-0.44 0.44h-5.29c-0.22 0-0.44-0.18-0.44-0.4c0 0.22-0.22 0.4-0.44 0.4h-1.77c-0.26 0-0.44-0.18-0.44-0.44v-2.56l-1.15 2.73c-0.04 0.18-0.22 0.27-0.4 0.27h-1.37c-0.18 0-0.31-0.09-0.4-0.27l-1.1-2.69v2.52c0 0.26-0.18 0.44-0.44 0.44h-3.53c-0.18 0-0.31-0.09-0.4-0.27l-0.62-1.5h-2.43l-0.66 1.5c-0.04 0.18-0.22 0.27-0.4 0.27h-1.9c-0.13 0-0.27-0.09-0.35-0.22c-0.09-0.13-0.09-0.31-0.04-0.44l3.04-6.62c0.09-0.18 0.22-0.27 0.4-0.27h2.34c0.18 0 0.31 0.09 0.4 0.27l1.94 4.32v-4.15c0-0.27 0.18-0.44 0.44-0.44h2.29c0.17 0 0.31 0.13 0.4 0.27l1.77 3.57l1.41-3.53c0.04-0.18 0.22-0.27 0.4-0.27h2.56c0.22 0 0.44 0.18 0.44 0.4c0-0.22 0.22-0.4 0.44-0.4h5.29c0.22 0 0.44 0.22 0.44 0.44zm-19.01 3.08l-0.4-0.88l-0.4 0.88h0.79z"/>
	<path id="Layer" fill-rule="evenodd" class="s12" d="m191.51 17.47v1.06c0 0.13-0.04 0.22-0.13 0.31c-0.09 0.09-0.18 0.13-0.31 0.13h-1.15c-0.09 0-0.22-0.04-0.31-0.13l-1.68-1.77l-1.68 1.77c-0.09 0.09-0.18 0.13-0.31 0.13h-1.06c-0.26 0-0.44-0.18-0.44-0.44v-6.62c0-0.26 0.18-0.44 0.44-0.44h1.19c0.13 0 0.22 0.04 0.31 0.18l1.59 1.81l1.54-1.85c0.09-0.09 0.22-0.13 0.35-0.13h1.19c0.13 0 0.22 0.04 0.31 0.13c0.09 0.09 0.13 0.18 0.13 0.31v1.15c0 0.13-0.04 0.22-0.13 0.31l-1.76 1.9l1.76 1.9c0.09 0.09 0.13 0.18 0.13 0.31zm-5.16-2.25l-1.01-1.06v2.16l1.01-1.1z"/>
	<path id="Layer" class="s13" d="m165.03 13.06l1.06 2.38h-2.12l1.06-2.38z"/>
	<path id="Layer" class="s13" d="m184.89 13.06l2.07 2.21l-2.07 2.21v-4.41z"/>
	<path id="Layer" fill-rule="evenodd" class="s13" d="m191.95 17.47v1.06c0 0.22-0.09 0.44-0.26 0.62c-0.18 0.18-0.4 0.27-0.62 0.27h-1.06c-0.26 0-0.48-0.09-0.66-0.27l-1.37-1.46l-1.37 1.46c-0.18 0.18-0.44 0.27-0.66 0.27h-1.06c-0.18 0-0.31-0.04-0.44-0.13c-0.13 0.09-0.26 0.13-0.44 0.13h-5.29c-0.18 0-0.31-0.04-0.44-0.13c-0.13 0.09-0.27 0.13-0.44 0.13h-1.77c-0.49 0-0.88-0.4-0.88-0.88v-0.22l-0.26 0.66c-0.18 0.31-0.48 0.53-0.84 0.53h-1.37c-0.35 0-0.66-0.22-0.79-0.53l-0.26-0.66v0.31c0 0.49-0.4 0.88-0.88 0.88h-3.53c-0.4 0-0.71-0.22-0.84-0.57l-0.49-1.23h-1.85l-0.53 1.23c-0.13 0.31-0.44 0.53-0.79 0.53h-1.9c-0.31 0-0.57-0.13-0.75-0.4c-0.13-0.27-0.18-0.57-0.04-0.84l3.04-6.62c0.13-0.31 0.44-0.53 0.79-0.53h2.34c0.35 0 0.66 0.22 0.79 0.53l1.1 2.43v-2.07c0-0.49 0.4-0.88 0.88-0.88h2.25c0.35 0 0.66 0.18 0.79 0.48l1.32 2.69l1.06-2.65c0.13-0.35 0.48-0.57 0.84-0.57h2.56c0.18 0 0.31 0.04 0.44 0.13c0.13-0.09 0.26-0.13 0.44-0.13h5.29c0.18 0 0.31 0.04 0.44 0.13c0.13-0.09 0.26-0.13 0.44-0.13h1.19c0.26 0 0.48 0.13 0.66 0.31l1.23 1.41l1.24-1.41c0.18-0.22 0.4-0.31 0.66-0.31h1.19c0.22 0 0.44 0.09 0.62 0.27c0.18 0.18 0.26 0.4 0.26 0.62v1.15c0 0.22-0.09 0.44-0.22 0.62l-1.5 1.59l1.5 1.59c0.13 0.18 0.22 0.4 0.22 0.62zm-14.12 1.06v-6.62h-2.56l-1.77 4.46l-2.21-4.46h-2.25v6.18l-2.78-6.18h-2.34l-3.04 6.62h1.9l0.75-1.77h3l0.71 1.77h3.53v-4.77l1.94 4.77h1.37l1.98-4.81v4.81h1.77zm6.17-6.62h-5.29v6.62h5.29v-1.32h-3.53v-1.32h3.44v-1.32h-3.44v-1.32h3.53v-1.32zm7.06 6.62v-1.06l-2.07-2.21l2.07-2.21v-1.15h-1.19l-1.9 2.21l-1.9-2.21h-1.19v6.62h1.06l2.03-2.12l2.03 2.12h1.06z"/>
	<path id="Layer" class="s3" d="m154.89 28.24v-26.47c0-0.97 0.79-1.76 1.76-1.76h38.82c0.97 0 1.77 0.79 1.77 1.76v0.79l-39.79 27.44h-0.79c-0.97 0-1.76-0.79-1.76-1.76z"/>
</svg>