<svg version="1.2" baseProfile="tiny-ps" xmlns="http://www.w3.org/2000/svg" viewBox="0 0 413 403" width="413" height="403">
	<title>icloud-svg</title>
	<style>
		tspan { white-space:pre }
		.s0 { fill: #333333 }
		.s1 { fill: #e4e4e4 }
	</style>
	<path id="Layer" class="s0" d="m306.63 192.86c23.5 4.48 39.16 23.5 40.28 45.88c0 26.85-22.38 48.12-48.11 48.12h-185.75c-26.85 0-49.23-22.38-49.23-49.23c0-21.26 14.55-40.28 35.81-47l4.48-1.12l-1.12-6.71c-0.02-3.97 0.75-7.91 2.27-11.58c1.51-3.67 3.74-7.01 6.55-9.82c2.81-2.81 6.15-5.03 9.82-6.55c3.67-1.51 7.61-2.28 11.58-2.27c7.83 0 15.66 3.36 21.26 8.95l5.59 5.6l3.35-7.83c11.19-26.85 38.04-44.76 67.14-44.76c39.16 0 71.61 32.45 71.61 72.73v4.48l4.48 1.12l0 0z"/>
	<path id="Layer" fill-rule="evenodd" class="s0" d="m309.99 0.4c57.07 0 104.06 47 102.94 105.18v192.46c0 57.07-45.88 104.06-104.06 104.06h-204.77c-57.07 0-104.06-45.88-104.06-104.06v-193.58c0-57.07 45.88-104.06 104.06-104.06l205.89 0zm47 240.58c0-26.85-19.02-50.35-44.76-57.07c-1.12-43.64-38.04-79.45-82.8-79.45c-31.33 0-59.3 16.78-73.85 44.76c-6.71-4.48-14.55-6.71-22.38-6.71c-22.38 0-40.28 17.9-41.4 40.28c-23.5 8.95-39.16 30.21-39.16 55.95c0 33.57 26.86 60.42 60.42 60.42h185.74c32.45 0 58.19-26.86 58.19-58.18z"/>
	<path id="Layer" fill-rule="evenodd" class="s1" d="m313.34 182.79c25.74 6.71 43.64 30.21 45.88 55.95c0 32.45-26.86 59.31-59.3 59.31h-185.75c-33.57 0-60.42-26.86-60.42-60.42c0-24.62 15.67-47 39.16-55.95c1.12-22.38 19.02-40.28 41.4-40.28c7.83 0 15.66 2.24 22.38 6.71c13.43-26.86 42.52-44.76 73.85-44.76c44.76 0 80.56 34.69 82.8 79.44zm-14.55 105.18c25.74 0 47-21.26 47-46.99c0-23.5-15.67-43.64-39.16-47l-4.48-1.12v-4.48c0-40.28-31.33-72.73-71.61-72.73c-30.21 0-55.95 17.9-67.14 44.76l-3.35 7.83l-5.59-5.59c-5.6-5.6-13.43-8.95-21.26-8.95c-16.78 0-30.21 13.43-30.21 30.21l1.12 6.71l-4.48 1.12c-21.26 6.71-35.81 24.62-35.81 47c0 26.85 22.38 49.23 49.23 49.23h185.74z"/>
</svg>