<svg version="1.2" baseProfile="tiny-ps" xmlns="http://www.w3.org/2000/svg" viewBox="0 0 35 32" width="35" height="32">
	<title>outlook-svg</title>
	<style>
		tspan { white-space:pre }
		.s0 { fill: #0364b8 }
		.s1 { fill: #0a2767 }
		.s2 { fill: #28a8ea }
		.s3 { fill: #0078d4 }
		.s4 { fill: #50d9ff }
		.s5 { fill: none }
		.s6 { fill: #064a8c }
		.s7 { opacity: 0.5;fill: #0a2767 }
		.s8 { fill: #1490df }
		.s9 { opacity: 0.1;fill: #000000 }
		.s10 { opacity: 0.2;fill: #000000 }
		.s11 { fill: #ffffff }
	</style>
	<path id="Layer" class="s0" d="m29.6 2c0.18 0 0.37 0.04 0.54 0.11c0.17 0.07 0.33 0.17 0.46 0.3c0.13 0.13 0.23 0.29 0.3 0.46c0.07 0.17 0.11 0.35 0.11 0.54v1.6l-10.31 3l-9.69-3v-1.6c0-0.18 0.04-0.37 0.11-0.54c0.07-0.17 0.17-0.33 0.3-0.46c0.13-0.13 0.29-0.23 0.46-0.3c0.17-0.07 0.35-0.11 0.54-0.11h17.19h0z"/>
	<path id="Layer" class="s1" d="m20.84 25.81l-11.49-8.41c-0.04-0.12-0.07-0.23-0.1-0.35c-0.03-0.12-0.06-0.23-0.09-0.35c-0.03-0.12-0.06-0.23-0.08-0.35c-0.03-0.12-0.05-0.24-0.07-0.36c0-0.06 0.01-0.12 0.02-0.17c0.02-0.06 0.04-0.11 0.07-0.16c0.03-0.05 0.06-0.1 0.11-0.14c0.04-0.04 0.09-0.08 0.14-0.11l0.01-0.01l0 0l10.84-6.18c0.01-0.01 0.02-0.01 0.04-0.02c0.01-0.01 0.02-0.01 0.04-0.02c0.01-0.01 0.02-0.01 0.04-0.02c0.01-0.01 0.02-0.01 0.04-0.02c0.1-0.05 0.21-0.09 0.32-0.12c0.11-0.03 0.23-0.04 0.34-0.04c0.12 0 0.23 0.01 0.34 0.04c0.11 0.03 0.22 0.07 0.32 0.12c0.01 0.01 0.02 0.01 0.04 0.02c0.01 0.01 0.02 0.01 0.04 0.02c0.01 0.01 0.02 0.01 0.04 0.02c0.01 0.01 0.02 0.01 0.04 0.02l10.84 6.17l0 0l0.01 0.01c0.05 0.03 0.1 0.06 0.14 0.11c0.04 0.04 0.08 0.09 0.11 0.14c0.03 0.05 0.05 0.1 0.07 0.16c0.02 0.06 0.02 0.11 0.02 0.17c-0.02 0.12-0.05 0.24-0.07 0.36c-0.03 0.12-0.05 0.24-0.08 0.35c-0.03 0.12-0.06 0.23-0.09 0.35c-0.03 0.12-0.07 0.23-0.1 0.35l-11.81 8.41z"/>
	<path id="Layer" class="s2" d="m31 11v6h-6l-7-6l-2.02-3l2.02-3h7l6 6z"/>
	<path id="Layer" class="s3" d="m11 5h7v6h-7v-6z"/>
	<path id="Layer" class="s4" d="m25 5h6v6h-6v-6z"/>
	<path id="Layer" class="s0" d="m28.83 24.77l-10.83-1.77l-7-6v-6h7l7 6l3.83 7.77z"/>
	<path id="Layer" class="s5" d="m11.03 5h19.97"/>
	<path id="Layer" class="s3" d="m18 11h7v6h-7v-6z"/>
	<path id="Layer" class="s6" d="m11 17h7v6h-7v-6z"/>
	<path id="Layer" class="s3" d="m25 17h6v6h-6v-6z"/>
	<path id="Layer" class="s7" d="m21.19 25.22l-11.79-8.6l0.49-0.87c0 0 10.74 6.12 10.91 6.21c0.03 0.01 0.07 0.02 0.1 0.03c0.04 0.01 0.07 0.01 0.11 0.01c0.04 0 0.07-0.01 0.11-0.01c0.04-0.01 0.07-0.02 0.1-0.04l10.93-6.23l0.5 0.87l-11.46 8.63z"/>
	<path id="Layer" class="s8" d="m32.67 16.58c0.05-0.03 0.1-0.06 0.14-0.11c0.04-0.04 0.08-0.09 0.11-0.14c0.03-0.05 0.05-0.1 0.07-0.16c0.02-0.06 0.02-0.11 0.02-0.17v12.5c0 0.12-0.01 0.24-0.04 0.35c-0.03 0.11-0.07 0.23-0.12 0.33c-0.05 0.11-0.12 0.2-0.2 0.29c-0.08 0.09-0.16 0.17-0.26 0.24v0l-8.25-1.8l-3.77-5.06c0.11 0.06 0.24 0.1 0.36 0.12c0.13 0.02 0.25 0.03 0.38 0.02c0.13-0.01 0.25-0.03 0.37-0.07c0.12-0.04 0.24-0.09 0.34-0.16l10.84-6.17l0 0l0.01-0.01l0 0z"/>
	<path id="Layer" class="s9" d="m32.96 28.85c-0.03 0.11-0.07 0.23-0.12 0.33c-0.05 0.11-0.12 0.2-0.2 0.29c-0.08 0.09-0.16 0.17-0.26 0.24v0l-8.25-1.8l-3.77-5.06c0.11 0.06 0.24 0.1 0.36 0.12c0.13 0.02 0.25 0.03 0.38 0.02c0.13-0.01 0.25-0.03 0.37-0.07c0.12-0.04 0.24-0.09 0.34-0.16l1.21-0.69l9.98 5.69v0.74c0 0.12-0.01 0.24-0.04 0.35z"/>
	<path id="Layer" class="s9" d="m32.95 28.88c-0.02 0.08-0.05 0.16-0.09 0.24c-0.04 0.08-0.08 0.15-0.13 0.22c-0.05 0.07-0.1 0.14-0.16 0.2c-0.06 0.06-0.12 0.12-0.19 0.17v0l-8.25-1.8l-3.77-5.06c0.11 0.06 0.24 0.1 0.36 0.12c0.13 0.02 0.25 0.03 0.38 0.02c0.13-0.01 0.25-0.03 0.37-0.07c0.12-0.04 0.24-0.1 0.34-0.16l0.2-0.11l10.94 6.23v0z"/>
	<path id="Layer" class="s2" d="m32.38 29.71c-0.01 0.02-0.02 0.02-0.04 0.03c-0.02 0.01-0.04 0.03-0.05 0.04c-0.02 0.01-0.04 0.02-0.06 0.03c-0.02 0.01-0.04 0.02-0.06 0.03c-0.02 0.01-0.04 0.02-0.06 0.03c0 0-0.01 0.01-0.01 0.01c0 0-0.01 0-0.01 0.01c-0.01 0-0.01 0-0.02 0c-0.01 0-0.01 0-0.02 0c-0.01 0.01-0.03 0.01-0.04 0.02c-0.01 0.01-0.03 0.01-0.04 0.02c-0.02 0.01-0.03 0.01-0.05 0.01c-0.02 0-0.03 0.01-0.05 0.01c-0.03 0.01-0.06 0.02-0.09 0.02c-0.03 0.01-0.06 0.01-0.09 0.02c-0.03 0-0.06 0.01-0.09 0.01c-0.03 0-0.06 0-0.09 0h-21c-0.2 0-0.39-0.04-0.57-0.11c-0.18-0.08-0.35-0.19-0.49-0.33c-0.14-0.14-0.25-0.3-0.33-0.49c-0.08-0.18-0.11-0.38-0.11-0.57v-12.5c0 0.06 0.01 0.11 0.02 0.17c0.01 0.05 0.03 0.11 0.06 0.16c0.03 0.05 0.06 0.09 0.1 0.13c0.04 0.04 0.08 0.08 0.13 0.1l0.03 0.02h0.01v0.01l23.03 13.12z"/>
	<path id="Layer" class="s9" d="m18.9 25.18c-0.07 0.16-0.17 0.31-0.29 0.43c-0.12 0.12-0.27 0.22-0.43 0.29c-0.16 0.07-0.33 0.1-0.51 0.1h-8.67v-10v0v0c0-0.06 0.01-0.12 0.02-0.17c0.02-0.06 0.04-0.11 0.07-0.16c0.03-0.05 0.06-0.1 0.11-0.14c0.04-0.04 0.09-0.08 0.14-0.11l0.01-0.01l0.01 0l1.68-0.96v-7.46l6.64 0c0.17 0 0.35 0.04 0.51 0.1c0.16 0.07 0.31 0.17 0.43 0.29c0.12 0.12 0.22 0.27 0.29 0.43c0.07 0.16 0.1 0.33 0.1 0.51v16.33c0 0.17-0.04 0.35-0.1 0.51z"/>
	<path id="Layer" class="s10" d="m17.9 26.18c-0.07 0.16-0.17 0.31-0.29 0.43c-0.12 0.12-0.27 0.22-0.43 0.29c-0.16 0.07-0.33 0.1-0.51 0.1h-7.67v-11v0v0c0-0.06 0.01-0.12 0.02-0.17c0.02-0.06 0.04-0.11 0.07-0.16c0.03-0.05 0.06-0.1 0.11-0.14c0.04-0.04 0.09-0.08 0.14-0.11l0.01-0.01l0.01 0l1.68-0.96v-6.46l5.64 0c0.17 0 0.35 0.04 0.51 0.1c0.16 0.07 0.31 0.17 0.43 0.29c0.12 0.12 0.22 0.27 0.29 0.43c0.07 0.16 0.1 0.33 0.1 0.51v16.33c0 0.17-0.04 0.35-0.1 0.51z"/>
	<path id="Layer" class="s10" d="m17.9 24.18c-0.07 0.16-0.17 0.31-0.29 0.43c-0.12 0.12-0.27 0.22-0.43 0.29c-0.16 0.07-0.33 0.1-0.51 0.1h-7.67v-9v0v0c0-0.06 0.01-0.12 0.02-0.17c0.02-0.06 0.04-0.11 0.07-0.16c0.03-0.05 0.06-0.1 0.11-0.14c0.04-0.04 0.09-0.08 0.14-0.11l0.01-0.01l0.01 0l1.68-0.96v-6.46l5.64 0c0.17 0 0.35 0.04 0.51 0.1c0.16 0.07 0.31 0.17 0.43 0.29c0.12 0.12 0.22 0.27 0.29 0.43c0.07 0.16 0.1 0.33 0.1 0.51v14.33c0 0.17-0.04 0.35-0.1 0.51z"/>
	<path id="Layer" class="s10" d="m16.9 24.18c-0.07 0.16-0.17 0.31-0.29 0.43c-0.12 0.12-0.27 0.22-0.43 0.29c-0.16 0.07-0.33 0.1-0.51 0.1h-6.67v-9v0v0c0-0.06 0.01-0.12 0.02-0.17c0.02-0.06 0.04-0.11 0.07-0.16c0.03-0.05 0.06-0.1 0.11-0.14c0.04-0.04 0.09-0.08 0.14-0.11l0.01-0.01l0.01 0l1.68-0.96v-6.46l4.64 0c0.17 0 0.35 0.04 0.51 0.1c0.16 0.07 0.31 0.17 0.43 0.29c0.12 0.12 0.22 0.27 0.29 0.43c0.07 0.16 0.1 0.33 0.1 0.51v14.33c0 0.17-0.04 0.35-0.1 0.51z"/>
	<path id="Layer" class="s3" d="m2.33 8h13.33c0.18 0 0.35 0.03 0.51 0.1c0.16 0.07 0.31 0.17 0.43 0.29c0.12 0.12 0.22 0.27 0.29 0.43c0.07 0.16 0.1 0.34 0.1 0.51v13.33c0 0.18-0.03 0.35-0.1 0.51c-0.07 0.16-0.17 0.31-0.29 0.43c-0.12 0.12-0.27 0.22-0.43 0.29c-0.16 0.07-0.34 0.1-0.51 0.1h-13.33c-0.18 0-0.35-0.03-0.51-0.1c-0.16-0.07-0.31-0.17-0.43-0.29c-0.12-0.12-0.22-0.27-0.29-0.43c-0.07-0.16-0.1-0.34-0.1-0.51v-13.33c0-0.18 0.03-0.35 0.1-0.51c0.07-0.16 0.17-0.31 0.29-0.43c0.12-0.12 0.27-0.22 0.43-0.29c0.16-0.07 0.34-0.1 0.51-0.1l0 0z"/>
	<path id="Layer" fill-rule="evenodd" class="s11" d="m5.17 12.93c0.11-0.17 0.24-0.34 0.38-0.49c0.14-0.15 0.29-0.3 0.45-0.43c0.16-0.13 0.33-0.25 0.51-0.36c0.2-0.11 0.4-0.21 0.61-0.3c0.21-0.08 0.43-0.16 0.65-0.21c0.22-0.06 0.44-0.1 0.67-0.12c0.23-0.02 0.45-0.03 0.68-0.03c0.21 0 0.42 0.01 0.63 0.03c0.21 0.02 0.42 0.06 0.62 0.11c0.2 0.05 0.4 0.12 0.6 0.2c0.19 0.08 0.38 0.17 0.57 0.28c0.17 0.1 0.33 0.22 0.49 0.34c0.15 0.13 0.3 0.26 0.44 0.41c0.14 0.15 0.26 0.3 0.37 0.47c0.11 0.16 0.21 0.34 0.3 0.52c0.1 0.2 0.18 0.4 0.25 0.61c0.07 0.21 0.13 0.42 0.18 0.63c0.05 0.21 0.08 0.43 0.1 0.65c0.02 0.22 0.03 0.44 0.03 0.66c0 0.23 0 0.46-0.03 0.69c-0.02 0.23-0.06 0.46-0.11 0.68c-0.05 0.22-0.11 0.45-0.18 0.66c-0.07 0.22-0.16 0.43-0.26 0.64c-0.09 0.19-0.19 0.36-0.31 0.53c-0.12 0.17-0.24 0.33-0.38 0.48c-0.14 0.15-0.29 0.29-0.45 0.42c-0.16 0.13-0.33 0.25-0.51 0.35c-0.19 0.11-0.39 0.2-0.59 0.29c-0.2 0.08-0.41 0.15-0.62 0.2c-0.21 0.05-0.43 0.09-0.64 0.12c-0.22 0.02-0.43 0.03-0.65 0.03c-0.21 0.01-0.43 0-0.64-0.03c-0.21-0.02-0.43-0.06-0.63-0.12c-0.21-0.05-0.41-0.12-0.61-0.2c-0.2-0.08-0.39-0.17-0.58-0.28c-0.17-0.1-0.34-0.22-0.49-0.34c-0.16-0.13-0.3-0.26-0.44-0.41c-0.14-0.15-0.26-0.3-0.38-0.47c-0.11-0.16-0.22-0.34-0.31-0.52c-0.1-0.19-0.18-0.39-0.25-0.6c-0.07-0.2-0.13-0.41-0.18-0.63c-0.05-0.21-0.08-0.43-0.1-0.64c-0.02-0.22-0.03-0.43-0.03-0.65c0-0.23 0-0.46 0.03-0.68c0.02-0.23 0.06-0.45 0.1-0.67c0.05-0.22 0.11-0.44 0.18-0.66c0.07-0.22 0.16-0.43 0.25-0.63c0.09-0.19 0.19-0.37 0.3-0.54zm1.45 4.8c0.05 0.12 0.1 0.23 0.17 0.34c0.06 0.11 0.13 0.22 0.21 0.32c0.08 0.1 0.16 0.2 0.25 0.29c0.09 0.09 0.19 0.17 0.29 0.25c0.1 0.07 0.22 0.14 0.33 0.19c0.11 0.06 0.23 0.1 0.36 0.14c0.12 0.04 0.25 0.06 0.37 0.08c0.13 0.02 0.25 0.02 0.38 0.02c0.14 0.01 0.27 0 0.41-0.02c0.14-0.02 0.27-0.04 0.4-0.08c0.13-0.04 0.26-0.09 0.38-0.15c0.12-0.06 0.24-0.13 0.35-0.2c0.1-0.08 0.2-0.16 0.29-0.25c0.09-0.09 0.17-0.18 0.25-0.29c0.08-0.1 0.14-0.21 0.2-0.32c0.06-0.11 0.11-0.23 0.16-0.35c0.05-0.13 0.09-0.27 0.13-0.4c0.04-0.14 0.07-0.28 0.09-0.41c0.02-0.14 0.04-0.28 0.05-0.42c0.01-0.14 0.02-0.28 0.01-0.42c0-0.14 0-0.29-0.01-0.43c-0.01-0.14-0.03-0.28-0.05-0.43c-0.02-0.14-0.05-0.28-0.09-0.42c-0.03-0.14-0.07-0.28-0.12-0.41c-0.04-0.12-0.09-0.24-0.15-0.35c-0.06-0.11-0.12-0.22-0.2-0.33c-0.07-0.1-0.15-0.2-0.24-0.3c-0.09-0.09-0.18-0.18-0.28-0.26c-0.11-0.08-0.22-0.15-0.35-0.21c-0.12-0.06-0.25-0.11-0.38-0.15c-0.13-0.04-0.26-0.07-0.4-0.09c-0.13-0.02-0.27-0.02-0.41-0.02c-0.13 0-0.26 0-0.39 0.02c-0.13 0.02-0.26 0.04-0.38 0.08c-0.13 0.04-0.25 0.08-0.37 0.14c-0.12 0.06-0.23 0.12-0.34 0.2c-0.1 0.08-0.2 0.16-0.3 0.25c-0.09 0.09-0.18 0.19-0.26 0.29c-0.08 0.1-0.15 0.21-0.22 0.32c-0.06 0.11-0.12 0.23-0.17 0.35c-0.11 0.27-0.19 0.56-0.24 0.84c-0.05 0.29-0.08 0.58-0.08 0.87c0 0.29 0.03 0.59 0.08 0.87c0.05 0.29 0.13 0.57 0.24 0.85l0 0z"/>
	<path id="Layer" class="s5" d="m1 0h32v32h-32v-32z"/>
</svg>