<svg version="1.2" baseProfile="tiny-ps" xmlns="http://www.w3.org/2000/svg" viewBox="0 0 28 28" width="28" height="28">
	<title>twitter-svg</title>
	<style>
		tspan { white-space:pre }
		.s0 { fill: #55acee }
		.s1 { fill: #ffffff }
	</style>
	<path id="Layer" class="s0" d="m2 0h24c1.11 0 2 0.9 2 2v24c0 1.11-0.89 2-2 2h-24c-1.11 0-2-0.89-2-2v-24c0-1.1 0.89-2 2-2z"/>
	<path id="Layer" class="s1" d="m21.67 10.26l0.01 0.49c0 5.01-3.99 10.79-11.29 10.79c-2.24 0-4.33-0.63-6.08-1.7c0.31 0.04 0.63 0.05 0.95 0.05c1.86 0 3.57-0.61 4.93-1.62c-1.74-0.03-3.2-1.13-3.71-2.63c0.24 0.04 0.49 0.07 0.75 0.07c0.36 0 0.71-0.05 1.04-0.13c-1.81-0.35-3.18-1.88-3.18-3.72v-0.05c0.54 0.28 1.15 0.45 1.8 0.47c-1.06-0.68-1.76-1.84-1.76-3.16c0-0.69 0.2-1.35 0.54-1.91c1.96 2.29 4.88 3.8 8.18 3.96c-0.07-0.28-0.1-0.57-0.1-0.86c0-2.09 1.78-3.79 3.97-3.79c1.14 0 2.17 0.46 2.9 1.2c0.9-0.17 1.75-0.48 2.52-0.92c-0.3 0.89-0.93 1.63-1.75 2.1c0.8-0.09 1.57-0.3 2.28-0.6c-0.53 0.76-1.2 1.43-1.98 1.96z"/>
</svg>