<svg version="1.2" baseProfile="tiny-ps" xmlns="http://www.w3.org/2000/svg" viewBox="0 0 200 144" width="200" height="144">
	<title>yahoo-svg</title>
	<style>
		tspan { white-space:pre }
		.s0 { fill: #6b0094 }
		.s1 { fill: #ffffff }
	</style>
	<g id="Layer">
		<path id="Layer" class="s0" d="m74.18 0c42.05 0 74.18 31.11 74.18 71.86c0 40.75-32.13 71.88-74.18 71.88c-42.05 0-74.18-31.13-74.18-71.88c0-40.75 32.13-71.87 74.18-71.87v0z"/>
		<path id="Layer" class="s1" d="m70.99 47.22c-5.16 0.35-10.3 0.71-15.45 1.24c7.81 9.59 15.62 19.34 23.43 28.93c7.63-6.57 15.27-12.95 22.89-19.52c-5.85-0.18-11.72-0.35-17.56-0.7v-7.29c15.79-0.35 31.41-0.52 47.19-0.7v8.7c-5.5 0.54-10.83 0.89-16.14 1.24c-10.29 9.23-20.59 18.45-31.06 27.69c-0.18 7.1-0.35 14.38-0.53 21.47c6.03 0.18 12.07 0.35 18.1 0.72v6.56h-55.72v-6.56c6.03-0.54 12.07-0.89 18.1-1.42v-20.06c-10.83-13.13-21.47-26.08-32.11-39.03c-5.68-0.35-11.19-0.89-16.86-1.24v-7.46h56.43c-0.35 2.48-0.53 4.96-0.7 7.46h0z"/>
		<path id="Layer" class="s0" d="m200 7.12c-8.16 33.89-16.34 67.79-24.5 101.86c-6.74-0.72-13.66-1.42-20.4-2.13c0.71-33.9 1.41-67.97 2.13-101.87c14.19 0.72 28.39 1.42 42.77 2.14l0 0zm-46.86 136.46c-0.7-7.44-1.42-14.9-2.13-22.53c8.88 0.7 17.75 1.41 26.62 2.13v20.4h-24.49h0z"/>
	</g>
</svg>