<svg version="1.2" baseProfile="tiny-ps" xmlns="http://www.w3.org/2000/svg" viewBox="0 0 28 28" width="28" height="28">
	<title>youtube-svg</title>
	<style>
		tspan { white-space:pre }
		.s0 { fill: #e52d27 }
		.s1 { fill: #ffffff }
	</style>
	<path id="Layer" class="s0" d="m2 0h24c1.11 0 2 0.9 2 2v24c0 1.11-0.89 2-2 2h-24c-1.11 0-2-0.89-2-2v-24c0-1.1 0.89-2 2-2z"/>
	<path id="Layer" fill-rule="evenodd" class="s1" d="m23.4 13.3v1.39c0 1.49-0.19 2.97-0.19 2.97c0 0-0.19 1.27-0.76 1.82c-0.73 0.73-1.54 0.74-1.91 0.78c-2.67 0.19-11.65 0.15-13.18 0.01c-0.43-0.08-1.38-0.05-2.11-0.79c-0.57-0.56-0.76-1.82-0.76-1.82c0 0-0.19-1.49-0.19-2.97v-1.39c0-1.49 0.19-2.97 0.19-2.97c0 0 0.19-1.27 0.76-1.82c0.73-0.73 1.54-0.73 1.91-0.78c2.67-0.19 10.7-0.19 13.37 0c0.37 0.04 1.19 0.05 1.91 0.78c0.57 0.56 0.76 1.82 0.76 1.82c0 0 0.19 1.49 0.19 2.97zm-6.36 0.51l-5.16-2.59l0 5.16l5.16-2.57z"/>
</svg>