<svg version="1.2" baseProfile="tiny-ps" xmlns="http://www.w3.org/2000/svg" viewBox="0 0 253 259" width="253" height="259">
	<title>admin-access-svg</title>
	<defs>
		<linearGradient id="grd1" gradientUnits="userSpaceOnUse" x1="135.6" y1="250" x2="135.6" y2="223.1">
			<stop offset="0" stop-color="#ffffff"/>
			<stop offset=".1" stop-color="#f7f8fb"/>
			<stop offset=".4" stop-color="#e1e6ef"/>
			<stop offset=".7" stop-color="#d4dbe8"/>
			<stop offset="1" stop-color="#d0d7e6"/>
		</linearGradient>
	</defs>
	<style>
		tspan { white-space:pre }
		.s0 { fill: #eef0f5 }
		.s1 { fill: #e2e6ef }
		.s2 { fill: url(#grd1) }
		.s3 { fill: #b5ccf7 }
		.s4 { fill: #a1bff8 }
		.s5 { fill: #004dda }
		.s6 { fill: #00379e }
		.s7 { fill: #e5eaf7 }
		.s8 { fill: #f14643 }
		.t9 { font-size: 22px;fill: #e5eaf7;font-weight: bold;font-family: "' DI NCondensed" }
		.s10 { fill: #134ab2 }
		.s11 { fill: #d9e0f3 }
	</style>
	<path id="XMLID_41_" class="s0" d="m63.37 72.87c0.82-38.78 47.81-36.23 77.93-44.73c30.12-8.5 24.9 24.87 46.57 34.19c21.66 9.32 33.36 31.18 28.6 47.85c-4.77 16.67 10.83 23.83 6.96 45.37c-3.87 21.54-36.49 0.8-46.18 18.05c-9.69 17.24-15.44 34.74-33.53 34.68c-18.1-0.06-21.61-16.94-34.22-17.78c-12.61-0.84-45.19 12.84-60.21-1.91c-15.02-14.75 5.97-37.49 6.22-45.48c0.25-8-14.07-12.75-14.45-26.82c-0.38-14.07 16.46-24.61 16.46-24.61c0 0 5.57-5.07 5.86-18.82z"/>
	<path id="XMLID_126_" class="s1" d="m136.46 187.63c-12.44 0.04-14.43-9.41-24.21-12.25c-8.26-2.4-19.73 3.2-28.47 2.99c-9.32-0.23-18.57-2.54-24.11-10.73c-8.31-12.29 1.53-20.71 2.56-32.22c0.65-7.24-8.19-12.99-8.44-22.2c-0.34-12.45 8.47-14.52 13.36-23.64c4.46-8.31 2.34-18.5 8.48-26.95c6.84-9.41 18.28-13.3 29.1-15.99c21.32-5.32 41.98-13.27 56.65 6.51c7.5 10.11 12.82 12.24 22.23 20.48c13.14 11.51 11.74 21.35 13.32 36.93c2.02 19.96 14.35 43.72-15.57 46.68c-13.12 1.3-11.68-0.31-19.05 11.86c-5.97 9.84-13.28 18.6-25.84 18.54z"/>
	<path id="XMLID_68_" class="s2" d="m140.59 223.08c42.21-0.05 83.34 5.24 64.8 19.09c-18.54 13.85-49.47 4.61-95.06 6.92c-45.59 2.31-64.46-11.2-35.05-21.54c12.03-4.23 23.09-4.42 65.31-4.47z"/>
	<path id="XMLID_3_" class="s3" d="m186.49 140.12c0 11.53 2.82 19.68 8.48 20.81c5.66 1.12 9.9-7.59 14.42-7.59c4.52 0 7.92 8.72 4.52 16.87c-3.39 8.16 5.37 13.78-3.68 20.81c-9.05 7.03-16.12-3.37-21.49 0.28c-5.37 3.65-1.41 13.49-18.38 14.34c-16.96 0.84-16.68-12.93-20.64-12.37c-11.79 1.67-6.79 13.21-21.2 15.76c-14.42 2.54-15.27-14.91-23.19-14.91c-7.92 0-8.48 14.34-22.62 14.9c-14.14 0.56-11.31-18.27-9.9-37.11c1.41-18.84-3.39-17.71-15.55-30.36c-12.16-12.65-7.63-29.24 3.68-16.31c11.31 12.93 13.85 5.9 17.53-20.24c3.67-26.15 20.36-47.23 53.44-47.23c61.07 0 54.57 70.85 54.57 82.38z"/>
	<g id="XMLID_64_">
		<path id="XMLID_66_" class="s4" d="m92.09 83.61c0 0-7.62 24.37-11.43 27.27c-0.88 0.67-2.05 1.19-3.33 1.79c0.38-2.35 0.75-4.91 1.15-7.69c3.42-24.34 18.12-44.29 46.81-46.93l48.2 18.9l-10.59 1.85c0 0-11.65 8.25-32.05 11.14c-20.39 2.9-38.77-6.32-38.77-6.32z"/>
		<path id="XMLID_67_" class="s4" d="m62.69 146.8c-1.61-1.49-3.41-3.19-5.41-5.28c-12.16-12.65-7.63-29.24 3.68-16.31c3.06 3.5 5.48 5.53 7.45 6.13c-0.02 9.41-3.7 13.78-5.71 15.46z"/>
	</g>
	<path id="XMLID_56_" class="s5" d="m105.36 51.16c0 0 0.53-1.12-4.82-8.02c-5.35-6.89-7.97-11.57 1.79-14.88c9.76-3.31 35.64-19.49 48.03-8.47c12.39 11.02 36.31 20.12 44.07 30.04c7.76 9.92-20.94 27.1-20.94 27.1l-61.93-14.7l-6.21-11.08z"/>
	<path id="XMLID_4_" class="s6" d="m108.02 109.47c-3.21 0-5.8-2.58-5.8-5.76c0-3.19 2.59-5.76 5.8-5.76c3.21 0 5.8 2.58 5.8 5.76c0 3.19-2.59 5.76-5.8 5.76z"/>
	<path id="XMLID_5_" class="s6" d="m141.33 109.47c-3.21 0-5.8-2.58-5.8-5.76c0-3.19 2.59-5.76 5.8-5.76c3.21 0 5.8 2.58 5.8 5.76c0 3.19-2.59 5.76-5.8 5.76z"/>
	<path id="XMLID_6_" class="s6" d="m124.28 146.02c-2.5 0-4.52-5.59-4.52-12.51c0-6.92 2.02-12.51 4.52-12.51c2.5 0 4.52 5.59 4.52 12.51c0 6.92-2.02 12.51-4.52 12.51z"/>
	<path id="XMLID_10_" class="s5" d="m154.41 75.77c0 0-11.13 5.89-16.88 6.96c-22.04 4.11-46.97-7.23-48.3-13.03c-1.33-5.8 16.52-10.36 16.52-10.36l48.66 16.43z"/>
	<path id="XMLID_54_" class="s4" d="m180.78 145.42c-0.51 7.51-3.54 15.55-5.36 17.78c-1.82 2.23-10.35 4.73-10.21-5.43c0.14-10.15-6.35-27.6-6.35-27.6l21.93 15.25z"/>
	<path id="XMLID_12_" class="s3" d="m178.82 129.94c0 0 3.25 7.01 1.39 18.56c-1.86 11.54-11.61 14.17-11.61 4.01c0-10.16-9.75-22.57-9.75-22.57h19.96z"/>
	<path id="XMLID_11_" class="s6" d="m105.36 59.54v-8.38c0 0 10.37 7 31.23 11.65c13.75 3.06 27.91 5.35 35.97 6.56c3 0.45 4.41 3.93 2.57 6.33v0c-0.83 1.07-2.14 1.65-3.5 1.54l-17.34-1.46c0 0-37.55-3.22-48.93-16.23z"/>
	<path id="XMLID_8_" class="s6" d="m61.23 144.19v0c-1.49 0.24-2.89-0.77-3.13-2.25l-3.81-23.58l5.4-0.86l3.81 23.58c0.24 1.48-0.77 2.87-2.26 3.11z"/>
	<path id="XMLID_13_" class="s7" d="m38.39 123.08l-24.15-29.47l13.65-35.51l37.8-6.04l24.15 29.47l-13.65 35.51l-37.8 6.04z"/>
	<path id="XMLID_14_" class="s8" d="m39.5 120.19l-22.18-27.07l12.54-32.62l34.72-5.55l22.18 27.07l-12.54 32.62l-34.72 5.55z"/>
	<g id="XMLID_15_">
		<g id="Layer">
			<text id="STOP" style="transform: matrix(.988,-0.188,.189,.982,26.802,100.788)" >
				<tspan x="0" y="0" class="t9">STOP
</tspan>
			</text>
		</g>
	</g>
	<path id="XMLID_61_" class="s3" d="m133.88 34.71c0 0 3.26 3.11 7 1.62l2.39 2.84c0 0-3.76 3.36-3.43 6.67c0.33 3.31 2.15 7.8-5.37 8.92c-5.42 0.81-6.2 0.22-6.2 0.22c0 0-4.25-2.98-5.68-5.77c-1.43-2.79 2.18-5 2.27-7.92c0.09-2.92-0.8-5.58-0.8-5.58l2.5-1.8c0 0 3.13 2.58 7.31 0.79z"/>
	<path id="XMLID_9_" class="s4" d="m122.94 149.93c0 0 6.14 1.42 9-3.9c0 0-0.43 5.89-4.5 7.03c-4.07 1.13-4.5-3.13-4.5-3.13z"/>
	<path id="XMLID_69_" class="s10" d="m183.43 70c0 0 10.42-14.84 2.45-17.93c-7.97-3.09-35.11-25.87-42.61-30.83c-7.5-4.95-30.47 2.49-30.48 2.49c11.94-5.39 28.42-12.07 37.57-3.94c12.39 11.02 36.31 20.12 44.07 30.04c4.59 5.87-3.57 14.27-11.01 20.16z"/>
	<path id="XMLID_63_" class="s11" d="m174.09 121c0 0 2.93 3.97 4.73 9.38c1.8 5.42 1.97 15.04 1.97 15.04c0.33-7.17-6.7-24.42-6.7-24.42z"/>
	<path id="XMLID_72_" class="s11" d="m191.97 165.2c-12.33-1.91-8.29-31.48-8.29-50.71c0-19.23-10.19-37.55-10.19-37.55l3.2 5.01c12.23 21.67 9.78 51.1 9.78 58.17c0 11.53 2.82 19.68 8.48 20.81c5.66 1.12 9.9-7.59 14.42-7.59c1.94 0 3.67 1.61 4.75 4.09l0.27 0.68c-7.74-7.74-10.11 9-22.44 7.1z"/>
	<g id="XMLID_71_">
		<path id="XMLID_73_" class="s4" d="m170.37 205.63c-16.96 0.84-16.68-12.93-20.64-12.37c-11.79 1.67-6.79 13.21-21.2 15.76c-14.42 2.54-15.27-14.91-23.19-14.91c-7.92 0-8.48 14.34-22.62 14.9c-14.14 0.56-11.31-18.27-9.9-37.11c0.01-0.1 0.01-0.19 0.02-0.29c-0.14 10.1 0.53 28.97 7.4 29.53c9.39 0.76 16.77-14.04 27.79-11.82c11.03 2.23 13.66 14.48 24.65 8.99c10.99-5.49 12.79-12.49 21.92-6.22c9.13 6.28 23.55 12.34 26.25 4.01c2.71-8.33 6.34-12.87 15.47-10.1c9.13 2.78 16.94 2 18.18-4.93v0c0.62 3.29 0.39 6.45-4.12 9.95c-9.05 7.03-16.27-3.37-21.64 0.28c-5.37 3.65-1.42 13.49-18.38 14.34z"/>
		<path id="XMLID_74_" class="s4" d="m73.05 165.35v0v0v0z"/>
	</g>
</svg>