<svg version="1.2" baseProfile="tiny-ps" xmlns="http://www.w3.org/2000/svg" viewBox="0 0 24 30" width="24" height="30">
	<title>already-customer-svg</title>
	<style>
		tspan { white-space:pre }
		.s0 { fill: #70b632 }
	</style>
	<g id="Layer">
		<path id="Layer" fill-rule="evenodd" class="s0" d="m2.16 28.27h11.38v1.73h-13.12v-5.58c0-2.88 1.09-5.62 3.06-7.71c1.25-1.33 2.75-2.27 4.36-2.84c-2.18-1.3-3.65-3.68-3.65-6.41c0-4.11 3.35-7.46 7.46-7.46c4.11 0 7.46 3.35 7.46 7.46c0 2.72-1.47 5.1-3.65 6.4c1.41 0.51 2.74 1.3 3.89 2.39l-1.19 1.26c-3.81-3.59-9.83-3.42-13.43 0.39c-1.67 1.77-2.59 4.08-2.59 6.52v3.85zm9.5-15.08c3.16 0 5.73-2.57 5.73-5.73c0-3.16-2.57-5.73-5.73-5.73c-3.16 0-5.73 2.57-5.73 5.73c0 3.16 2.57 5.73 5.73 5.73z"/>
		<path id="Layer" class="s0" d="m23.57 20.32l-7.21 7.21l-3.44-3.44l1.22-1.23l2.22 2.21l5.98-5.98l1.22 1.23z"/>
	</g>
</svg>