<svg version="1.2" baseProfile="tiny-ps" xmlns="http://www.w3.org/2000/svg" viewBox="0 0 27 30" width="27" height="30">
	<title>discount-countdown-svg</title>
	<defs>
		<clipPath clipPathUnits="userSpaceOnUse" id="cp1">
			<path d="m12.85 26.04c-4.95-0.2-8.9-4.28-8.9-9.27c0-4.75 3.57-8.67 8.17-9.22l-0.59 4.09c-3.21 0.77-5.61 3.65-5.61 7.11c0 3.9 3.06 7.09 6.92 7.29z"/>
		</clipPath>
		<clipPath clipPathUnits="userSpaceOnUse" id="cp2">
			<path d="m12.85 26.04c-4.95-0.2-8.9-4.28-8.9-9.27c0-4.75 3.57-8.67 8.17-9.22l-0.59 4.09c-3.21 0.77-5.61 3.65-5.61 7.11c0 3.9 3.06 7.09 6.92 7.29z"/>
		</clipPath>
		<clipPath clipPathUnits="userSpaceOnUse" id="cp3">
			<path d="m12.85 26.04c-4.95-0.2-8.9-4.28-8.9-9.27c0-4.75 3.57-8.67 8.17-9.22l-0.59 4.09c-3.21 0.77-5.61 3.65-5.61 7.11c0 3.9 3.06 7.09 6.92 7.29z"/>
		</clipPath>
		<clipPath clipPathUnits="userSpaceOnUse" id="cp4">
			<path d="m12.85 26.04c-4.95-0.2-8.9-4.28-8.9-9.27c0-4.75 3.57-8.67 8.17-9.22l-0.59 4.09c-3.21 0.77-5.61 3.65-5.61 7.11c0 3.9 3.06 7.09 6.92 7.29z"/>
		</clipPath>
		<clipPath clipPathUnits="userSpaceOnUse" id="cp5">
			<path d="m12.85 26.04c-4.95-0.2-8.9-4.28-8.9-9.27c0-4.75 3.57-8.67 8.17-9.22l-0.59 4.09c-3.21 0.77-5.61 3.65-5.61 7.11c0 3.9 3.06 7.09 6.92 7.29z"/>
		</clipPath>
		<clipPath clipPathUnits="userSpaceOnUse" id="cp6">
			<path d="m12.85 26.04c-4.95-0.2-8.9-4.28-8.9-9.27c0-4.75 3.57-8.67 8.17-9.22l-0.59 4.09c-3.21 0.77-5.61 3.65-5.61 7.11c0 3.9 3.06 7.09 6.92 7.29z"/>
		</clipPath>
		<clipPath clipPathUnits="userSpaceOnUse" id="cp7">
			<path d="m12.85 26.04c-4.95-0.2-8.9-4.28-8.9-9.27c0-4.75 3.57-8.67 8.17-9.22l-0.59 4.09c-3.21 0.77-5.61 3.65-5.61 7.11c0 3.9 3.06 7.09 6.92 7.29z"/>
		</clipPath>
		<clipPath clipPathUnits="userSpaceOnUse" id="cp8">
			<path d="m12.85 26.04c-4.95-0.2-8.9-4.28-8.9-9.27c0-4.75 3.57-8.67 8.17-9.22l-0.59 4.09c-3.21 0.77-5.61 3.65-5.61 7.11c0 3.9 3.06 7.09 6.92 7.29z"/>
		</clipPath>
		<clipPath clipPathUnits="userSpaceOnUse" id="cp9">
			<path d="m12.85 26.04c-4.95-0.2-8.9-4.28-8.9-9.27c0-4.75 3.57-8.67 8.17-9.22l-0.59 4.09c-3.21 0.77-5.61 3.65-5.61 7.11c0 3.9 3.06 7.09 6.92 7.29z"/>
		</clipPath>
		<clipPath clipPathUnits="userSpaceOnUse" id="cp10">
			<path d="m12.85 26.04c-4.95-0.2-8.9-4.28-8.9-9.27c0-4.75 3.57-8.67 8.17-9.22l-0.59 4.09c-3.21 0.77-5.61 3.65-5.61 7.11c0 3.9 3.06 7.09 6.92 7.29z"/>
		</clipPath>
		<clipPath clipPathUnits="userSpaceOnUse" id="cp11">
			<path d="m12.85 26.04c-4.95-0.2-8.9-4.28-8.9-9.27c0-4.75 3.57-8.67 8.17-9.22l-0.59 4.09c-3.21 0.77-5.61 3.65-5.61 7.11c0 3.9 3.06 7.09 6.92 7.29z"/>
		</clipPath>
		<clipPath clipPathUnits="userSpaceOnUse" id="cp12">
			<path d="m12.85 26.04c-4.95-0.2-8.9-4.28-8.9-9.27c0-4.75 3.57-8.67 8.17-9.22l-0.59 4.09c-3.21 0.77-5.61 3.65-5.61 7.11c0 3.9 3.06 7.09 6.92 7.29z"/>
		</clipPath>
		<clipPath clipPathUnits="userSpaceOnUse" id="cp13">
			<path d="m12.85 26.04c-4.95-0.2-8.9-4.28-8.9-9.27c0-4.75 3.57-8.67 8.17-9.22l-0.59 4.09c-3.21 0.77-5.61 3.65-5.61 7.11c0 3.9 3.06 7.09 6.92 7.29z"/>
		</clipPath>
		<clipPath clipPathUnits="userSpaceOnUse" id="cp14">
			<path d="m12.85 26.04c-4.95-0.2-8.9-4.28-8.9-9.27c0-4.75 3.57-8.67 8.17-9.22l-0.59 4.09c-3.21 0.77-5.61 3.65-5.61 7.11c0 3.9 3.06 7.09 6.92 7.29z"/>
		</clipPath>
		<clipPath clipPathUnits="userSpaceOnUse" id="cp15">
			<path d="m12.85 26.04c-4.95-0.2-8.9-4.28-8.9-9.27c0-4.75 3.57-8.67 8.17-9.22l-0.59 4.09c-3.21 0.77-5.61 3.65-5.61 7.11c0 3.9 3.06 7.09 6.92 7.29z"/>
		</clipPath>
		<clipPath clipPathUnits="userSpaceOnUse" id="cp16">
			<path d="m12.85 26.04c-4.95-0.2-8.9-4.28-8.9-9.27c0-4.75 3.57-8.67 8.17-9.22l-0.59 4.09c-3.21 0.77-5.61 3.65-5.61 7.11c0 3.9 3.06 7.09 6.92 7.29z"/>
		</clipPath>
		<clipPath clipPathUnits="userSpaceOnUse" id="cp17">
			<path d="m12.85 26.04c-4.95-0.2-8.9-4.28-8.9-9.27c0-4.75 3.57-8.67 8.17-9.22l-0.59 4.09c-3.21 0.77-5.61 3.65-5.61 7.11c0 3.9 3.06 7.09 6.92 7.29z"/>
		</clipPath>
		<clipPath clipPathUnits="userSpaceOnUse" id="cp18">
			<path d="m12.85 26.04c-4.95-0.2-8.9-4.28-8.9-9.27c0-4.75 3.57-8.67 8.17-9.22l-0.59 4.09c-3.21 0.77-5.61 3.65-5.61 7.11c0 3.9 3.06 7.09 6.92 7.29z"/>
		</clipPath>
		<clipPath clipPathUnits="userSpaceOnUse" id="cp19">
			<path d="m12.85 26.04c-4.95-0.2-8.9-4.28-8.9-9.27c0-4.75 3.57-8.67 8.17-9.22l-0.59 4.09c-3.21 0.77-5.61 3.65-5.61 7.11c0 3.9 3.06 7.09 6.92 7.29z"/>
		</clipPath>
		<clipPath clipPathUnits="userSpaceOnUse" id="cp20">
			<path d="m12.85 26.04c-4.95-0.2-8.9-4.28-8.9-9.27c0-4.75 3.57-8.67 8.17-9.22l-0.59 4.09c-3.21 0.77-5.61 3.65-5.61 7.11c0 3.9 3.06 7.09 6.92 7.29z"/>
		</clipPath>
		<clipPath clipPathUnits="userSpaceOnUse" id="cp21">
			<path d="m12.85 26.04c-4.95-0.2-8.9-4.28-8.9-9.27c0-4.75 3.57-8.67 8.17-9.22l-0.59 4.09c-3.21 0.77-5.61 3.65-5.61 7.11c0 3.9 3.06 7.09 6.92 7.29z"/>
		</clipPath>
		<clipPath clipPathUnits="userSpaceOnUse" id="cp22">
			<path d="m12.85 26.04c-4.95-0.2-8.9-4.28-8.9-9.27c0-4.75 3.57-8.67 8.17-9.22l-0.59 4.09c-3.21 0.77-5.61 3.65-5.61 7.11c0 3.9 3.06 7.09 6.92 7.29z"/>
		</clipPath>
		<clipPath clipPathUnits="userSpaceOnUse" id="cp23">
			<path d="m12.85 26.04c-4.95-0.2-8.9-4.28-8.9-9.27c0-4.75 3.57-8.67 8.17-9.22l-0.59 4.09c-3.21 0.77-5.61 3.65-5.61 7.11c0 3.9 3.06 7.09 6.92 7.29z"/>
		</clipPath>
		<clipPath clipPathUnits="userSpaceOnUse" id="cp24">
			<path d="m12.85 26.04c-4.95-0.2-8.9-4.28-8.9-9.27c0-4.75 3.57-8.67 8.17-9.22l-0.59 4.09c-3.21 0.77-5.61 3.65-5.61 7.11c0 3.9 3.06 7.09 6.92 7.29z"/>
		</clipPath>
		<clipPath clipPathUnits="userSpaceOnUse" id="cp25">
			<path d="m12.85 26.04c-4.95-0.2-8.9-4.28-8.9-9.27c0-4.75 3.57-8.67 8.17-9.22l-0.59 4.09c-3.21 0.77-5.61 3.65-5.61 7.11c0 3.9 3.06 7.09 6.92 7.29z"/>
		</clipPath>
		<clipPath clipPathUnits="userSpaceOnUse" id="cp26">
			<path d="m12.85 26.04c-4.95-0.2-8.9-4.28-8.9-9.27c0-4.75 3.57-8.67 8.17-9.22l-0.59 4.09c-3.21 0.77-5.61 3.65-5.61 7.11c0 3.9 3.06 7.09 6.92 7.29z"/>
		</clipPath>
		<clipPath clipPathUnits="userSpaceOnUse" id="cp27">
			<path d="m12.85 26.04c-4.95-0.2-8.9-4.28-8.9-9.27c0-4.75 3.57-8.67 8.17-9.22l-0.59 4.09c-3.21 0.77-5.61 3.65-5.61 7.11c0 3.9 3.06 7.09 6.92 7.29z"/>
		</clipPath>
		<clipPath clipPathUnits="userSpaceOnUse" id="cp28">
			<path d="m12.85 26.04c-4.95-0.2-8.9-4.28-8.9-9.27c0-4.75 3.57-8.67 8.17-9.22l-0.59 4.09c-3.21 0.77-5.61 3.65-5.61 7.11c0 3.9 3.06 7.09 6.92 7.29z"/>
		</clipPath>
		<clipPath clipPathUnits="userSpaceOnUse" id="cp29">
			<path d="m12.85 26.04c-4.95-0.2-8.9-4.28-8.9-9.27c0-4.75 3.57-8.67 8.17-9.22l-0.59 4.09c-3.21 0.77-5.61 3.65-5.61 7.11c0 3.9 3.06 7.09 6.92 7.29z"/>
		</clipPath>
		<clipPath clipPathUnits="userSpaceOnUse" id="cp30">
			<path d="m12.85 26.04c-4.95-0.2-8.9-4.28-8.9-9.27c0-4.75 3.57-8.67 8.17-9.22l-0.59 4.09c-3.21 0.77-5.61 3.65-5.61 7.11c0 3.9 3.06 7.09 6.92 7.29z"/>
		</clipPath>
		<clipPath clipPathUnits="userSpaceOnUse" id="cp31">
			<path d="m12.85 26.04c-4.95-0.2-8.9-4.28-8.9-9.27c0-4.75 3.57-8.67 8.17-9.22l-0.59 4.09c-3.21 0.77-5.61 3.65-5.61 7.11c0 3.9 3.06 7.09 6.92 7.29z"/>
		</clipPath>
		<clipPath clipPathUnits="userSpaceOnUse" id="cp32">
			<path d="m12.85 26.04c-4.95-0.2-8.9-4.28-8.9-9.27c0-4.75 3.57-8.67 8.17-9.22l-0.59 4.09c-3.21 0.77-5.61 3.65-5.61 7.11c0 3.9 3.06 7.09 6.92 7.29z"/>
		</clipPath>
		<clipPath clipPathUnits="userSpaceOnUse" id="cp33">
			<path d="m12.85 26.04c-4.95-0.2-8.9-4.28-8.9-9.27c0-4.75 3.57-8.67 8.17-9.22l-0.59 4.09c-3.21 0.77-5.61 3.65-5.61 7.11c0 3.9 3.06 7.09 6.92 7.29z"/>
		</clipPath>
		<clipPath clipPathUnits="userSpaceOnUse" id="cp34">
			<path d="m12.85 26.04c-4.95-0.2-8.9-4.28-8.9-9.27c0-4.75 3.57-8.67 8.17-9.22l-0.59 4.09c-3.21 0.77-5.61 3.65-5.61 7.11c0 3.9 3.06 7.09 6.92 7.29z"/>
		</clipPath>
		<clipPath clipPathUnits="userSpaceOnUse" id="cp35">
			<path d="m12.85 26.04c-4.95-0.2-8.9-4.28-8.9-9.27c0-4.75 3.57-8.67 8.17-9.22l-0.59 4.09c-3.21 0.77-5.61 3.65-5.61 7.11c0 3.9 3.06 7.09 6.92 7.29z"/>
		</clipPath>
		<clipPath clipPathUnits="userSpaceOnUse" id="cp36">
			<path d="m12.85 26.04c-4.95-0.2-8.9-4.28-8.9-9.27c0-4.75 3.57-8.67 8.17-9.22l-0.59 4.09c-3.21 0.77-5.61 3.65-5.61 7.11c0 3.9 3.06 7.09 6.92 7.29z"/>
		</clipPath>
		<clipPath clipPathUnits="userSpaceOnUse" id="cp37">
			<path d="m12.85 26.04c-4.95-0.2-8.9-4.28-8.9-9.27c0-4.75 3.57-8.67 8.17-9.22l-0.59 4.09c-3.21 0.77-5.61 3.65-5.61 7.11c0 3.9 3.06 7.09 6.92 7.29z"/>
		</clipPath>
		<clipPath clipPathUnits="userSpaceOnUse" id="cp38">
			<path d="m12.85 26.04c-4.95-0.2-8.9-4.28-8.9-9.27c0-4.75 3.57-8.67 8.17-9.22l-0.59 4.09c-3.21 0.77-5.61 3.65-5.61 7.11c0 3.9 3.06 7.09 6.92 7.29z"/>
		</clipPath>
		<clipPath clipPathUnits="userSpaceOnUse" id="cp39">
			<path d="m12.85 26.04c-4.95-0.2-8.9-4.28-8.9-9.27c0-4.75 3.57-8.67 8.17-9.22l-0.59 4.09c-3.21 0.77-5.61 3.65-5.61 7.11c0 3.9 3.06 7.09 6.92 7.29z"/>
		</clipPath>
		<clipPath clipPathUnits="userSpaceOnUse" id="cp40">
			<path d="m12.85 26.04c-4.95-0.2-8.9-4.28-8.9-9.27c0-4.75 3.57-8.67 8.17-9.22l-0.59 4.09c-3.21 0.77-5.61 3.65-5.61 7.11c0 3.9 3.06 7.09 6.92 7.29z"/>
		</clipPath>
		<clipPath clipPathUnits="userSpaceOnUse" id="cp41">
			<path d="m12.85 26.04c-4.95-0.2-8.9-4.28-8.9-9.27c0-4.75 3.57-8.67 8.17-9.22l-0.59 4.09c-3.21 0.77-5.61 3.65-5.61 7.11c0 3.9 3.06 7.09 6.92 7.29z"/>
		</clipPath>
		<clipPath clipPathUnits="userSpaceOnUse" id="cp42">
			<path d="m12.85 26.04c-4.95-0.2-8.9-4.28-8.9-9.27c0-4.75 3.57-8.67 8.17-9.22l-0.59 4.09c-3.21 0.77-5.61 3.65-5.61 7.11c0 3.9 3.06 7.09 6.92 7.29z"/>
		</clipPath>
		<clipPath clipPathUnits="userSpaceOnUse" id="cp43">
			<path d="m12.85 26.04c-4.95-0.2-8.9-4.28-8.9-9.27c0-4.75 3.57-8.67 8.17-9.22l-0.59 4.09c-3.21 0.77-5.61 3.65-5.61 7.11c0 3.9 3.06 7.09 6.92 7.29z"/>
		</clipPath>
		<clipPath clipPathUnits="userSpaceOnUse" id="cp44">
			<path d="m12.85 26.04c-4.95-0.2-8.9-4.28-8.9-9.27c0-4.75 3.57-8.67 8.17-9.22l-0.59 4.09c-3.21 0.77-5.61 3.65-5.61 7.11c0 3.9 3.06 7.09 6.92 7.29z"/>
		</clipPath>
		<clipPath clipPathUnits="userSpaceOnUse" id="cp45">
			<path d="m12.85 26.04c-4.95-0.2-8.9-4.28-8.9-9.27c0-4.75 3.57-8.67 8.17-9.22l-0.59 4.09c-3.21 0.77-5.61 3.65-5.61 7.11c0 3.9 3.06 7.09 6.92 7.29z"/>
		</clipPath>
		<clipPath clipPathUnits="userSpaceOnUse" id="cp46">
			<path d="m12.85 26.04c-4.95-0.2-8.9-4.28-8.9-9.27c0-4.75 3.57-8.67 8.17-9.22l-0.59 4.09c-3.21 0.77-5.61 3.65-5.61 7.11c0 3.9 3.06 7.09 6.92 7.29z"/>
		</clipPath>
		<clipPath clipPathUnits="userSpaceOnUse" id="cp47">
			<path d="m12.85 26.04c-4.95-0.2-8.9-4.28-8.9-9.27c0-4.75 3.57-8.67 8.17-9.22l-0.59 4.09c-3.21 0.77-5.61 3.65-5.61 7.11c0 3.9 3.06 7.09 6.92 7.29z"/>
		</clipPath>
		<clipPath clipPathUnits="userSpaceOnUse" id="cp48">
			<path d="m12.85 26.04c-4.95-0.2-8.9-4.28-8.9-9.27c0-4.75 3.57-8.67 8.17-9.22l-0.59 4.09c-3.21 0.77-5.61 3.65-5.61 7.11c0 3.9 3.06 7.09 6.92 7.29z"/>
		</clipPath>
		<clipPath clipPathUnits="userSpaceOnUse" id="cp49">
			<path d="m12.85 26.04c-4.95-0.2-8.9-4.28-8.9-9.27c0-4.75 3.57-8.67 8.17-9.22l-0.59 4.09c-3.21 0.77-5.61 3.65-5.61 7.11c0 3.9 3.06 7.09 6.92 7.29z"/>
		</clipPath>
		<clipPath clipPathUnits="userSpaceOnUse" id="cp50">
			<path d="m12.85 26.04c-4.95-0.2-8.9-4.28-8.9-9.27c0-4.75 3.57-8.67 8.17-9.22l-0.59 4.09c-3.21 0.77-5.61 3.65-5.61 7.11c0 3.9 3.06 7.09 6.92 7.29z"/>
		</clipPath>
		<clipPath clipPathUnits="userSpaceOnUse" id="cp51">
			<path d="m12.85 26.04c-4.95-0.2-8.9-4.28-8.9-9.27c0-4.75 3.57-8.67 8.17-9.22l-0.59 4.09c-3.21 0.77-5.61 3.65-5.61 7.11c0 3.9 3.06 7.09 6.92 7.29z"/>
		</clipPath>
		<clipPath clipPathUnits="userSpaceOnUse" id="cp52">
			<path d="m12.85 26.04c-4.95-0.2-8.9-4.28-8.9-9.27c0-4.75 3.57-8.67 8.17-9.22l-0.59 4.09c-3.21 0.77-5.61 3.65-5.61 7.11c0 3.9 3.06 7.09 6.92 7.29z"/>
		</clipPath>
		<clipPath clipPathUnits="userSpaceOnUse" id="cp53">
			<path d="m12.85 26.04c-4.95-0.2-8.9-4.28-8.9-9.27c0-4.75 3.57-8.67 8.17-9.22l-0.59 4.09c-3.21 0.77-5.61 3.65-5.61 7.11c0 3.9 3.06 7.09 6.92 7.29z"/>
		</clipPath>
		<clipPath clipPathUnits="userSpaceOnUse" id="cp54">
			<path d="m12.85 26.04c-4.95-0.2-8.9-4.28-8.9-9.27c0-4.75 3.57-8.67 8.17-9.22l-0.59 4.09c-3.21 0.77-5.61 3.65-5.61 7.11c0 3.9 3.06 7.09 6.92 7.29z"/>
		</clipPath>
		<clipPath clipPathUnits="userSpaceOnUse" id="cp55">
			<path d="m12.85 26.04c-4.95-0.2-8.9-4.28-8.9-9.27c0-4.75 3.57-8.67 8.17-9.22l-0.59 4.09c-3.21 0.77-5.61 3.65-5.61 7.11c0 3.9 3.06 7.09 6.92 7.29z"/>
		</clipPath>
		<clipPath clipPathUnits="userSpaceOnUse" id="cp56">
			<path d="m12.85 26.04c-4.95-0.2-8.9-4.28-8.9-9.27c0-4.75 3.57-8.67 8.17-9.22l-0.59 4.09c-3.21 0.77-5.61 3.65-5.61 7.11c0 3.9 3.06 7.09 6.92 7.29z"/>
		</clipPath>
		<clipPath clipPathUnits="userSpaceOnUse" id="cp57">
			<path d="m12.85 26.04c-4.95-0.2-8.9-4.28-8.9-9.27c0-4.75 3.57-8.67 8.17-9.22l-0.59 4.09c-3.21 0.77-5.61 3.65-5.61 7.11c0 3.9 3.06 7.09 6.92 7.29z"/>
		</clipPath>
		<clipPath clipPathUnits="userSpaceOnUse" id="cp58">
			<path d="m12.85 26.04c-4.95-0.2-8.9-4.28-8.9-9.27c0-4.75 3.57-8.67 8.17-9.22l-0.59 4.09c-3.21 0.77-5.61 3.65-5.61 7.11c0 3.9 3.06 7.09 6.92 7.29z"/>
		</clipPath>
		<clipPath clipPathUnits="userSpaceOnUse" id="cp59">
			<path d="m12.85 26.04c-4.95-0.2-8.9-4.28-8.9-9.27c0-4.75 3.57-8.67 8.17-9.22l-0.59 4.09c-3.21 0.77-5.61 3.65-5.61 7.11c0 3.9 3.06 7.09 6.92 7.29z"/>
		</clipPath>
		<clipPath clipPathUnits="userSpaceOnUse" id="cp60">
			<path d="m12.85 26.04c-4.95-0.2-8.9-4.28-8.9-9.27c0-4.75 3.57-8.67 8.17-9.22l-0.59 4.09c-3.21 0.77-5.61 3.65-5.61 7.11c0 3.9 3.06 7.09 6.92 7.29z"/>
		</clipPath>
		<clipPath clipPathUnits="userSpaceOnUse" id="cp61">
			<path d="m12.85 26.04c-4.95-0.2-8.9-4.28-8.9-9.27c0-4.75 3.57-8.67 8.17-9.22l-0.59 4.09c-3.21 0.77-5.61 3.65-5.61 7.11c0 3.9 3.06 7.09 6.92 7.29z"/>
		</clipPath>
		<clipPath clipPathUnits="userSpaceOnUse" id="cp62">
			<path d="m12.85 26.04c-4.95-0.2-8.9-4.28-8.9-9.27c0-4.75 3.57-8.67 8.17-9.22l-0.59 4.09c-3.21 0.77-5.61 3.65-5.61 7.11c0 3.9 3.06 7.09 6.92 7.29z"/>
		</clipPath>
		<clipPath clipPathUnits="userSpaceOnUse" id="cp63">
			<path d="m12.85 26.04c-4.95-0.2-8.9-4.28-8.9-9.27c0-4.75 3.57-8.67 8.17-9.22l-0.59 4.09c-3.21 0.77-5.61 3.65-5.61 7.11c0 3.9 3.06 7.09 6.92 7.29z"/>
		</clipPath>
		<clipPath clipPathUnits="userSpaceOnUse" id="cp64">
			<path d="m12.85 26.04c-4.95-0.2-8.9-4.28-8.9-9.27c0-4.75 3.57-8.67 8.17-9.22l-0.59 4.09c-3.21 0.77-5.61 3.65-5.61 7.11c0 3.9 3.06 7.09 6.92 7.29z"/>
		</clipPath>
		<clipPath clipPathUnits="userSpaceOnUse" id="cp65">
			<path d="m12.85 26.04c-4.95-0.2-8.9-4.28-8.9-9.27c0-4.75 3.57-8.67 8.17-9.22l-0.59 4.09c-3.21 0.77-5.61 3.65-5.61 7.11c0 3.9 3.06 7.09 6.92 7.29z"/>
		</clipPath>
		<clipPath clipPathUnits="userSpaceOnUse" id="cp66">
			<path d="m12.85 26.04c-4.95-0.2-8.9-4.28-8.9-9.27c0-4.75 3.57-8.67 8.17-9.22l-0.59 4.09c-3.21 0.77-5.61 3.65-5.61 7.11c0 3.9 3.06 7.09 6.92 7.29z"/>
		</clipPath>
		<clipPath clipPathUnits="userSpaceOnUse" id="cp67">
			<path d="m12.85 26.04c-4.95-0.2-8.9-4.28-8.9-9.27c0-4.75 3.57-8.67 8.17-9.22l-0.59 4.09c-3.21 0.77-5.61 3.65-5.61 7.11c0 3.9 3.06 7.09 6.92 7.29z"/>
		</clipPath>
		<clipPath clipPathUnits="userSpaceOnUse" id="cp68">
			<path d="m12.85 26.04c-4.95-0.2-8.9-4.28-8.9-9.27c0-4.75 3.57-8.67 8.17-9.22l-0.59 4.09c-3.21 0.77-5.61 3.65-5.61 7.11c0 3.9 3.06 7.09 6.92 7.29z"/>
		</clipPath>
		<clipPath clipPathUnits="userSpaceOnUse" id="cp69">
			<path d="m12.85 26.04c-4.95-0.2-8.9-4.28-8.9-9.27c0-4.75 3.57-8.67 8.17-9.22l-0.59 4.09c-3.21 0.77-5.61 3.65-5.61 7.11c0 3.9 3.06 7.09 6.92 7.29z"/>
		</clipPath>
		<clipPath clipPathUnits="userSpaceOnUse" id="cp70">
			<path d="m12.85 26.04c-4.95-0.2-8.9-4.28-8.9-9.27c0-4.75 3.57-8.67 8.17-9.22l-0.59 4.09c-3.21 0.77-5.61 3.65-5.61 7.11c0 3.9 3.06 7.09 6.92 7.29z"/>
		</clipPath>
		<clipPath clipPathUnits="userSpaceOnUse" id="cp71">
			<path d="m12.85 26.04c-4.95-0.2-8.9-4.28-8.9-9.27c0-4.75 3.57-8.67 8.17-9.22l-0.59 4.09c-3.21 0.77-5.61 3.65-5.61 7.11c0 3.9 3.06 7.09 6.92 7.29z"/>
		</clipPath>
		<clipPath clipPathUnits="userSpaceOnUse" id="cp72">
			<path d="m12.85 26.04c-4.95-0.2-8.9-4.28-8.9-9.27c0-4.75 3.57-8.67 8.17-9.22l-0.59 4.09c-3.21 0.77-5.61 3.65-5.61 7.11c0 3.9 3.06 7.09 6.92 7.29z"/>
		</clipPath>
		<clipPath clipPathUnits="userSpaceOnUse" id="cp73">
			<path d="m12.85 26.04c-4.95-0.2-8.9-4.28-8.9-9.27c0-4.75 3.57-8.67 8.17-9.22l-0.59 4.09c-3.21 0.77-5.61 3.65-5.61 7.11c0 3.9 3.06 7.09 6.92 7.29z"/>
		</clipPath>
		<clipPath clipPathUnits="userSpaceOnUse" id="cp74">
			<path d="m12.85 26.04c-4.95-0.2-8.9-4.28-8.9-9.27c0-4.75 3.57-8.67 8.17-9.22l-0.59 4.09c-3.21 0.77-5.61 3.65-5.61 7.11c0 3.9 3.06 7.09 6.92 7.29z"/>
		</clipPath>
		<clipPath clipPathUnits="userSpaceOnUse" id="cp75">
			<path d="m12.85 26.04c-4.95-0.2-8.9-4.28-8.9-9.27c0-4.75 3.57-8.67 8.17-9.22l-0.59 4.09c-3.21 0.77-5.61 3.65-5.61 7.11c0 3.9 3.06 7.09 6.92 7.29z"/>
		</clipPath>
		<clipPath clipPathUnits="userSpaceOnUse" id="cp76">
			<path d="m12.85 26.04c-4.95-0.2-8.9-4.28-8.9-9.27c0-4.75 3.57-8.67 8.17-9.22l-0.59 4.09c-3.21 0.77-5.61 3.65-5.61 7.11c0 3.9 3.06 7.09 6.92 7.29z"/>
		</clipPath>
		<clipPath clipPathUnits="userSpaceOnUse" id="cp77">
			<path d="m12.85 26.04c-4.95-0.2-8.9-4.28-8.9-9.27c0-4.75 3.57-8.67 8.17-9.22l-0.59 4.09c-3.21 0.77-5.61 3.65-5.61 7.11c0 3.9 3.06 7.09 6.92 7.29z"/>
		</clipPath>
		<clipPath clipPathUnits="userSpaceOnUse" id="cp78">
			<path d="m12.85 26.04c-4.95-0.2-8.9-4.28-8.9-9.27c0-4.75 3.57-8.67 8.17-9.22l-0.59 4.09c-3.21 0.77-5.61 3.65-5.61 7.11c0 3.9 3.06 7.09 6.92 7.29z"/>
		</clipPath>
		<clipPath clipPathUnits="userSpaceOnUse" id="cp79">
			<path d="m12.85 26.04c-4.95-0.2-8.9-4.28-8.9-9.27c0-4.75 3.57-8.67 8.17-9.22l-0.59 4.09c-3.21 0.77-5.61 3.65-5.61 7.11c0 3.9 3.06 7.09 6.92 7.29z"/>
		</clipPath>
		<clipPath clipPathUnits="userSpaceOnUse" id="cp80">
			<path d="m12.85 26.04c-4.95-0.2-8.9-4.28-8.9-9.27c0-4.75 3.57-8.67 8.17-9.22l-0.59 4.09c-3.21 0.77-5.61 3.65-5.61 7.11c0 3.9 3.06 7.09 6.92 7.29z"/>
		</clipPath>
		<clipPath clipPathUnits="userSpaceOnUse" id="cp81">
			<path d="m12.85 26.04c-4.95-0.2-8.9-4.28-8.9-9.27c0-4.75 3.57-8.67 8.17-9.22l-0.59 4.09c-3.21 0.77-5.61 3.65-5.61 7.11c0 3.9 3.06 7.09 6.92 7.29z"/>
		</clipPath>
		<clipPath clipPathUnits="userSpaceOnUse" id="cp82">
			<path d="m12.85 26.04c-4.95-0.2-8.9-4.28-8.9-9.27c0-4.75 3.57-8.67 8.17-9.22l-0.59 4.09c-3.21 0.77-5.61 3.65-5.61 7.11c0 3.9 3.06 7.09 6.92 7.29z"/>
		</clipPath>
		<clipPath clipPathUnits="userSpaceOnUse" id="cp83">
			<path d="m12.85 26.04c-4.95-0.2-8.9-4.28-8.9-9.27c0-4.75 3.57-8.67 8.17-9.22l-0.59 4.09c-3.21 0.77-5.61 3.65-5.61 7.11c0 3.9 3.06 7.09 6.92 7.29z"/>
		</clipPath>
		<clipPath clipPathUnits="userSpaceOnUse" id="cp84">
			<path d="m12.85 26.04c-4.95-0.2-8.9-4.28-8.9-9.27c0-4.75 3.57-8.67 8.17-9.22l-0.59 4.09c-3.21 0.77-5.61 3.65-5.61 7.11c0 3.9 3.06 7.09 6.92 7.29z"/>
		</clipPath>
		<clipPath clipPathUnits="userSpaceOnUse" id="cp85">
			<path d="m12.85 26.04c-4.95-0.2-8.9-4.28-8.9-9.27c0-4.75 3.57-8.67 8.17-9.22l-0.59 4.09c-3.21 0.77-5.61 3.65-5.61 7.11c0 3.9 3.06 7.09 6.92 7.29z"/>
		</clipPath>
		<clipPath clipPathUnits="userSpaceOnUse" id="cp86">
			<path d="m12.85 26.04c-4.95-0.2-8.9-4.28-8.9-9.27c0-4.75 3.57-8.67 8.17-9.22l-0.59 4.09c-3.21 0.77-5.61 3.65-5.61 7.11c0 3.9 3.06 7.09 6.92 7.29z"/>
		</clipPath>
		<clipPath clipPathUnits="userSpaceOnUse" id="cp87">
			<path d="m12.85 26.04c-4.95-0.2-8.9-4.28-8.9-9.27c0-4.75 3.57-8.67 8.17-9.22l-0.59 4.09c-3.21 0.77-5.61 3.65-5.61 7.11c0 3.9 3.06 7.09 6.92 7.29z"/>
		</clipPath>
		<clipPath clipPathUnits="userSpaceOnUse" id="cp88">
			<path d="m12.85 26.04c-4.95-0.2-8.9-4.28-8.9-9.27c0-4.75 3.57-8.67 8.17-9.22l-0.59 4.09c-3.21 0.77-5.61 3.65-5.61 7.11c0 3.9 3.06 7.09 6.92 7.29z"/>
		</clipPath>
		<clipPath clipPathUnits="userSpaceOnUse" id="cp89">
			<path d="m12.85 26.04c-4.95-0.2-8.9-4.28-8.9-9.27c0-4.75 3.57-8.67 8.17-9.22l-0.59 4.09c-3.21 0.77-5.61 3.65-5.61 7.11c0 3.9 3.06 7.09 6.92 7.29z"/>
		</clipPath>
		<clipPath clipPathUnits="userSpaceOnUse" id="cp90">
			<path d="m12.85 26.04c-4.95-0.2-8.9-4.28-8.9-9.27c0-4.75 3.57-8.67 8.17-9.22l-0.59 4.09c-3.21 0.77-5.61 3.65-5.61 7.11c0 3.9 3.06 7.09 6.92 7.29z"/>
		</clipPath>
		<clipPath clipPathUnits="userSpaceOnUse" id="cp91">
			<path d="m12.85 26.04c-4.95-0.2-8.9-4.28-8.9-9.27c0-4.75 3.57-8.67 8.17-9.22l-0.59 4.09c-3.21 0.77-5.61 3.65-5.61 7.11c0 3.9 3.06 7.09 6.92 7.29z"/>
		</clipPath>
		<clipPath clipPathUnits="userSpaceOnUse" id="cp92">
			<path d="m12.85 26.04c-4.95-0.2-8.9-4.28-8.9-9.27c0-4.75 3.57-8.67 8.17-9.22l-0.59 4.09c-3.21 0.77-5.61 3.65-5.61 7.11c0 3.9 3.06 7.09 6.92 7.29z"/>
		</clipPath>
		<clipPath clipPathUnits="userSpaceOnUse" id="cp93">
			<path d="m12.85 26.04c-4.95-0.2-8.9-4.28-8.9-9.27c0-4.75 3.57-8.67 8.17-9.22l-0.59 4.09c-3.21 0.77-5.61 3.65-5.61 7.11c0 3.9 3.06 7.09 6.92 7.29z"/>
		</clipPath>
		<clipPath clipPathUnits="userSpaceOnUse" id="cp94">
			<path d="m12.85 26.04c-4.95-0.2-8.9-4.28-8.9-9.27c0-4.75 3.57-8.67 8.17-9.22l-0.59 4.09c-3.21 0.77-5.61 3.65-5.61 7.11c0 3.9 3.06 7.09 6.92 7.29z"/>
		</clipPath>
		<clipPath clipPathUnits="userSpaceOnUse" id="cp95">
			<path d="m12.85 26.04c-4.95-0.2-8.9-4.28-8.9-9.27c0-4.75 3.57-8.67 8.17-9.22l-0.59 4.09c-3.21 0.77-5.61 3.65-5.61 7.11c0 3.9 3.06 7.09 6.92 7.29z"/>
		</clipPath>
		<clipPath clipPathUnits="userSpaceOnUse" id="cp96">
			<path d="m12.85 26.04c-4.95-0.2-8.9-4.28-8.9-9.27c0-4.75 3.57-8.67 8.17-9.22l-0.59 4.09c-3.21 0.77-5.61 3.65-5.61 7.11c0 3.9 3.06 7.09 6.92 7.29z"/>
		</clipPath>
		<clipPath clipPathUnits="userSpaceOnUse" id="cp97">
			<path d="m12.85 26.04c-4.95-0.2-8.9-4.28-8.9-9.27c0-4.75 3.57-8.67 8.17-9.22l-0.59 4.09c-3.21 0.77-5.61 3.65-5.61 7.11c0 3.9 3.06 7.09 6.92 7.29z"/>
		</clipPath>
		<clipPath clipPathUnits="userSpaceOnUse" id="cp98">
			<path d="m12.85 26.04c-4.95-0.2-8.9-4.28-8.9-9.27c0-4.75 3.57-8.67 8.17-9.22l-0.59 4.09c-3.21 0.77-5.61 3.65-5.61 7.11c0 3.9 3.06 7.09 6.92 7.29z"/>
		</clipPath>
		<clipPath clipPathUnits="userSpaceOnUse" id="cp99">
			<path d="m12.85 26.04c-4.95-0.2-8.9-4.28-8.9-9.27c0-4.75 3.57-8.67 8.17-9.22l-0.59 4.09c-3.21 0.77-5.61 3.65-5.61 7.11c0 3.9 3.06 7.09 6.92 7.29z"/>
		</clipPath>
		<clipPath clipPathUnits="userSpaceOnUse" id="cp100">
			<path d="m12.85 26.04c-4.95-0.2-8.9-4.28-8.9-9.27c0-4.75 3.57-8.67 8.17-9.22l-0.59 4.09c-3.21 0.77-5.61 3.65-5.61 7.11c0 3.9 3.06 7.09 6.92 7.29z"/>
		</clipPath>
		<clipPath clipPathUnits="userSpaceOnUse" id="cp101">
			<path d="m12.85 26.04c-4.95-0.2-8.9-4.28-8.9-9.27c0-4.75 3.57-8.67 8.17-9.22l-0.59 4.09c-3.21 0.77-5.61 3.65-5.61 7.11c0 3.9 3.06 7.09 6.92 7.29z"/>
		</clipPath>
		<clipPath clipPathUnits="userSpaceOnUse" id="cp102">
			<path d="m12.85 26.04c-4.95-0.2-8.9-4.28-8.9-9.27c0-4.75 3.57-8.67 8.17-9.22l-0.59 4.09c-3.21 0.77-5.61 3.65-5.61 7.11c0 3.9 3.06 7.09 6.92 7.29z"/>
		</clipPath>
		<clipPath clipPathUnits="userSpaceOnUse" id="cp103">
			<path d="m12.85 26.04c-4.95-0.2-8.9-4.28-8.9-9.27c0-4.75 3.57-8.67 8.17-9.22l-0.59 4.09c-3.21 0.77-5.61 3.65-5.61 7.11c0 3.9 3.06 7.09 6.92 7.29z"/>
		</clipPath>
		<clipPath clipPathUnits="userSpaceOnUse" id="cp104">
			<path d="m12.85 26.04c-4.95-0.2-8.9-4.28-8.9-9.27c0-4.75 3.57-8.67 8.17-9.22l-0.59 4.09c-3.21 0.77-5.61 3.65-5.61 7.11c0 3.9 3.06 7.09 6.92 7.29z"/>
		</clipPath>
		<clipPath clipPathUnits="userSpaceOnUse" id="cp105">
			<path d="m12.85 26.04c-4.95-0.2-8.9-4.28-8.9-9.27c0-4.75 3.57-8.67 8.17-9.22l-0.59 4.09c-3.21 0.77-5.61 3.65-5.61 7.11c0 3.9 3.06 7.09 6.92 7.29z"/>
		</clipPath>
		<clipPath clipPathUnits="userSpaceOnUse" id="cp106">
			<path d="m12.85 26.04c-4.95-0.2-8.9-4.28-8.9-9.27c0-4.75 3.57-8.67 8.17-9.22l-0.59 4.09c-3.21 0.77-5.61 3.65-5.61 7.11c0 3.9 3.06 7.09 6.92 7.29z"/>
		</clipPath>
		<clipPath clipPathUnits="userSpaceOnUse" id="cp107">
			<path d="m12.85 26.04c-4.95-0.2-8.9-4.28-8.9-9.27c0-4.75 3.57-8.67 8.17-9.22l-0.59 4.09c-3.21 0.77-5.61 3.65-5.61 7.11c0 3.9 3.06 7.09 6.92 7.29z"/>
		</clipPath>
		<clipPath clipPathUnits="userSpaceOnUse" id="cp108">
			<path d="m12.85 26.04c-4.95-0.2-8.9-4.28-8.9-9.27c0-4.75 3.57-8.67 8.17-9.22l-0.59 4.09c-3.21 0.77-5.61 3.65-5.61 7.11c0 3.9 3.06 7.09 6.92 7.29z"/>
		</clipPath>
		<clipPath clipPathUnits="userSpaceOnUse" id="cp109">
			<path d="m12.85 26.04c-4.95-0.2-8.9-4.28-8.9-9.27c0-4.75 3.57-8.67 8.17-9.22l-0.59 4.09c-3.21 0.77-5.61 3.65-5.61 7.11c0 3.9 3.06 7.09 6.92 7.29z"/>
		</clipPath>
		<clipPath clipPathUnits="userSpaceOnUse" id="cp110">
			<path d="m12.85 26.04c-4.95-0.2-8.9-4.28-8.9-9.27c0-4.75 3.57-8.67 8.17-9.22l-0.59 4.09c-3.21 0.77-5.61 3.65-5.61 7.11c0 3.9 3.06 7.09 6.92 7.29z"/>
		</clipPath>
		<clipPath clipPathUnits="userSpaceOnUse" id="cp111">
			<path d="m12.85 26.04c-4.95-0.2-8.9-4.28-8.9-9.27c0-4.75 3.57-8.67 8.17-9.22l-0.59 4.09c-3.21 0.77-5.61 3.65-5.61 7.11c0 3.9 3.06 7.09 6.92 7.29z"/>
		</clipPath>
		<clipPath clipPathUnits="userSpaceOnUse" id="cp112">
			<path d="m12.85 26.04c-4.95-0.2-8.9-4.28-8.9-9.27c0-4.75 3.57-8.67 8.17-9.22l-0.59 4.09c-3.21 0.77-5.61 3.65-5.61 7.11c0 3.9 3.06 7.09 6.92 7.29z"/>
		</clipPath>
		<clipPath clipPathUnits="userSpaceOnUse" id="cp113">
			<path d="m12.85 26.04c-4.95-0.2-8.9-4.28-8.9-9.27c0-4.75 3.57-8.67 8.17-9.22l-0.59 4.09c-3.21 0.77-5.61 3.65-5.61 7.11c0 3.9 3.06 7.09 6.92 7.29z"/>
		</clipPath>
		<clipPath clipPathUnits="userSpaceOnUse" id="cp114">
			<path d="m12.85 26.04c-4.95-0.2-8.9-4.28-8.9-9.27c0-4.75 3.57-8.67 8.17-9.22l-0.59 4.09c-3.21 0.77-5.61 3.65-5.61 7.11c0 3.9 3.06 7.09 6.92 7.29z"/>
		</clipPath>
		<clipPath clipPathUnits="userSpaceOnUse" id="cp115">
			<path d="m12.85 26.04c-4.95-0.2-8.9-4.28-8.9-9.27c0-4.75 3.57-8.67 8.17-9.22l-0.59 4.09c-3.21 0.77-5.61 3.65-5.61 7.11c0 3.9 3.06 7.09 6.92 7.29z"/>
		</clipPath>
		<clipPath clipPathUnits="userSpaceOnUse" id="cp116">
			<path d="m12.85 26.04c-4.95-0.2-8.9-4.28-8.9-9.27c0-4.75 3.57-8.67 8.17-9.22l-0.59 4.09c-3.21 0.77-5.61 3.65-5.61 7.11c0 3.9 3.06 7.09 6.92 7.29z"/>
		</clipPath>
		<clipPath clipPathUnits="userSpaceOnUse" id="cp117">
			<path d="m12.85 26.04c-4.95-0.2-8.9-4.28-8.9-9.27c0-4.75 3.57-8.67 8.17-9.22l-0.59 4.09c-3.21 0.77-5.61 3.65-5.61 7.11c0 3.9 3.06 7.09 6.92 7.29z"/>
		</clipPath>
		<clipPath clipPathUnits="userSpaceOnUse" id="cp118">
			<path d="m12.85 26.04c-4.95-0.2-8.9-4.28-8.9-9.27c0-4.75 3.57-8.67 8.17-9.22l-0.59 4.09c-3.21 0.77-5.61 3.65-5.61 7.11c0 3.9 3.06 7.09 6.92 7.29z"/>
		</clipPath>
		<clipPath clipPathUnits="userSpaceOnUse" id="cp119">
			<path d="m12.85 26.04c-4.95-0.2-8.9-4.28-8.9-9.27c0-4.75 3.57-8.67 8.17-9.22l-0.59 4.09c-3.21 0.77-5.61 3.65-5.61 7.11c0 3.9 3.06 7.09 6.92 7.29z"/>
		</clipPath>
		<clipPath clipPathUnits="userSpaceOnUse" id="cp120">
			<path d="m12.85 26.04c-4.95-0.2-8.9-4.28-8.9-9.27c0-4.75 3.57-8.67 8.17-9.22l-0.59 4.09c-3.21 0.77-5.61 3.65-5.61 7.11c0 3.9 3.06 7.09 6.92 7.29z"/>
		</clipPath>
		<clipPath clipPathUnits="userSpaceOnUse" id="cp121">
			<path d="m12.85 26.04c-4.95-0.2-8.9-4.28-8.9-9.27c0-4.75 3.57-8.67 8.17-9.22l-0.59 4.09c-3.21 0.77-5.61 3.65-5.61 7.11c0 3.9 3.06 7.09 6.92 7.29z"/>
		</clipPath>
		<clipPath clipPathUnits="userSpaceOnUse" id="cp122">
			<path d="m12.85 26.04c-4.95-0.2-8.9-4.28-8.9-9.27c0-4.75 3.57-8.67 8.17-9.22l-0.59 4.09c-3.21 0.77-5.61 3.65-5.61 7.11c0 3.9 3.06 7.09 6.92 7.29z"/>
		</clipPath>
		<clipPath clipPathUnits="userSpaceOnUse" id="cp123">
			<path d="m12.85 26.04c-4.95-0.2-8.9-4.28-8.9-9.27c0-4.75 3.57-8.67 8.17-9.22l-0.59 4.09c-3.21 0.77-5.61 3.65-5.61 7.11c0 3.9 3.06 7.09 6.92 7.29z"/>
		</clipPath>
		<clipPath clipPathUnits="userSpaceOnUse" id="cp124">
			<path d="m12.85 26.04c-4.95-0.2-8.9-4.28-8.9-9.27c0-4.75 3.57-8.67 8.17-9.22l-0.59 4.09c-3.21 0.77-5.61 3.65-5.61 7.11c0 3.9 3.06 7.09 6.92 7.29z"/>
		</clipPath>
		<clipPath clipPathUnits="userSpaceOnUse" id="cp125">
			<path d="m12.85 26.04c-4.95-0.2-8.9-4.28-8.9-9.27c0-4.75 3.57-8.67 8.17-9.22l-0.59 4.09c-3.21 0.77-5.61 3.65-5.61 7.11c0 3.9 3.06 7.09 6.92 7.29z"/>
		</clipPath>
		<clipPath clipPathUnits="userSpaceOnUse" id="cp126">
			<path d="m12.85 26.04c-4.95-0.2-8.9-4.28-8.9-9.27c0-4.75 3.57-8.67 8.17-9.22l-0.59 4.09c-3.21 0.77-5.61 3.65-5.61 7.11c0 3.9 3.06 7.09 6.92 7.29z"/>
		</clipPath>
		<clipPath clipPathUnits="userSpaceOnUse" id="cp127">
			<path d="m12.85 26.04c-4.95-0.2-8.9-4.28-8.9-9.27c0-4.75 3.57-8.67 8.17-9.22l-0.59 4.09c-3.21 0.77-5.61 3.65-5.61 7.11c0 3.9 3.06 7.09 6.92 7.29z"/>
		</clipPath>
		<clipPath clipPathUnits="userSpaceOnUse" id="cp128">
			<path d="m12.85 26.04c-4.95-0.2-8.9-4.28-8.9-9.27c0-4.75 3.57-8.67 8.17-9.22l-0.59 4.09c-3.21 0.77-5.61 3.65-5.61 7.11c0 3.9 3.06 7.09 6.92 7.29z"/>
		</clipPath>
		<clipPath clipPathUnits="userSpaceOnUse" id="cp129">
			<path d="m12.85 26.04c-4.95-0.2-8.9-4.28-8.9-9.27c0-4.75 3.57-8.67 8.17-9.22l-0.59 4.09c-3.21 0.77-5.61 3.65-5.61 7.11c0 3.9 3.06 7.09 6.92 7.29z"/>
		</clipPath>
		<clipPath clipPathUnits="userSpaceOnUse" id="cp130">
			<path d="m12.85 26.04c-4.95-0.2-8.9-4.28-8.9-9.27c0-4.75 3.57-8.67 8.17-9.22l-0.59 4.09c-3.21 0.77-5.61 3.65-5.61 7.11c0 3.9 3.06 7.09 6.92 7.29z"/>
		</clipPath>
		<clipPath clipPathUnits="userSpaceOnUse" id="cp131">
			<path d="m12.85 26.04c-4.95-0.2-8.9-4.28-8.9-9.27c0-4.75 3.57-8.67 8.17-9.22l-0.59 4.09c-3.21 0.77-5.61 3.65-5.61 7.11c0 3.9 3.06 7.09 6.92 7.29z"/>
		</clipPath>
		<clipPath clipPathUnits="userSpaceOnUse" id="cp132">
			<path d="m12.85 26.04c-4.95-0.2-8.9-4.28-8.9-9.27c0-4.75 3.57-8.67 8.17-9.22l-0.59 4.09c-3.21 0.77-5.61 3.65-5.61 7.11c0 3.9 3.06 7.09 6.92 7.29z"/>
		</clipPath>
		<clipPath clipPathUnits="userSpaceOnUse" id="cp133">
			<path d="m12.85 26.04c-4.95-0.2-8.9-4.28-8.9-9.27c0-4.75 3.57-8.67 8.17-9.22l-0.59 4.09c-3.21 0.77-5.61 3.65-5.61 7.11c0 3.9 3.06 7.09 6.92 7.29z"/>
		</clipPath>
		<clipPath clipPathUnits="userSpaceOnUse" id="cp134">
			<path d="m12.85 26.04c-4.95-0.2-8.9-4.28-8.9-9.27c0-4.75 3.57-8.67 8.17-9.22l-0.59 4.09c-3.21 0.77-5.61 3.65-5.61 7.11c0 3.9 3.06 7.09 6.92 7.29z"/>
		</clipPath>
		<clipPath clipPathUnits="userSpaceOnUse" id="cp135">
			<path d="m12.85 26.04c-4.95-0.2-8.9-4.28-8.9-9.27c0-4.75 3.57-8.67 8.17-9.22l-0.59 4.09c-3.21 0.77-5.61 3.65-5.61 7.11c0 3.9 3.06 7.09 6.92 7.29z"/>
		</clipPath>
		<clipPath clipPathUnits="userSpaceOnUse" id="cp136">
			<path d="m12.85 26.04c-4.95-0.2-8.9-4.28-8.9-9.27c0-4.75 3.57-8.67 8.17-9.22l-0.59 4.09c-3.21 0.77-5.61 3.65-5.61 7.11c0 3.9 3.06 7.09 6.92 7.29z"/>
		</clipPath>
		<clipPath clipPathUnits="userSpaceOnUse" id="cp137">
			<path d="m12.85 26.04c-4.95-0.2-8.9-4.28-8.9-9.27c0-4.75 3.57-8.67 8.17-9.22l-0.59 4.09c-3.21 0.77-5.61 3.65-5.61 7.11c0 3.9 3.06 7.09 6.92 7.29z"/>
		</clipPath>
		<clipPath clipPathUnits="userSpaceOnUse" id="cp138">
			<path d="m12.85 26.04c-4.95-0.2-8.9-4.28-8.9-9.27c0-4.75 3.57-8.67 8.17-9.22l-0.59 4.09c-3.21 0.77-5.61 3.65-5.61 7.11c0 3.9 3.06 7.09 6.92 7.29z"/>
		</clipPath>
		<clipPath clipPathUnits="userSpaceOnUse" id="cp139">
			<path d="m12.85 26.04c-4.95-0.2-8.9-4.28-8.9-9.27c0-4.75 3.57-8.67 8.17-9.22l-0.59 4.09c-3.21 0.77-5.61 3.65-5.61 7.11c0 3.9 3.06 7.09 6.92 7.29z"/>
		</clipPath>
		<clipPath clipPathUnits="userSpaceOnUse" id="cp140">
			<path d="m12.85 26.04c-4.95-0.2-8.9-4.28-8.9-9.27c0-4.75 3.57-8.67 8.17-9.22l-0.59 4.09c-3.21 0.77-5.61 3.65-5.61 7.11c0 3.9 3.06 7.09 6.92 7.29z"/>
		</clipPath>
		<clipPath clipPathUnits="userSpaceOnUse" id="cp141">
			<path d="m12.85 26.04c-4.95-0.2-8.9-4.28-8.9-9.27c0-4.75 3.57-8.67 8.17-9.22l-0.59 4.09c-3.21 0.77-5.61 3.65-5.61 7.11c0 3.9 3.06 7.09 6.92 7.29z"/>
		</clipPath>
		<clipPath clipPathUnits="userSpaceOnUse" id="cp142">
			<path d="m12.85 26.04c-4.95-0.2-8.9-4.28-8.9-9.27c0-4.75 3.57-8.67 8.17-9.22l-0.59 4.09c-3.21 0.77-5.61 3.65-5.61 7.11c0 3.9 3.06 7.09 6.92 7.29z"/>
		</clipPath>
		<clipPath clipPathUnits="userSpaceOnUse" id="cp143">
			<path d="m12.85 26.04c-4.95-0.2-8.9-4.28-8.9-9.27c0-4.75 3.57-8.67 8.17-9.22l-0.59 4.09c-3.21 0.77-5.61 3.65-5.61 7.11c0 3.9 3.06 7.09 6.92 7.29z"/>
		</clipPath>
		<clipPath clipPathUnits="userSpaceOnUse" id="cp144">
			<path d="m12.85 26.04c-4.95-0.2-8.9-4.28-8.9-9.27c0-4.75 3.57-8.67 8.17-9.22l-0.59 4.09c-3.21 0.77-5.61 3.65-5.61 7.11c0 3.9 3.06 7.09 6.92 7.29z"/>
		</clipPath>
		<clipPath clipPathUnits="userSpaceOnUse" id="cp145">
			<path d="m12.85 26.04c-4.95-0.2-8.9-4.28-8.9-9.27c0-4.75 3.57-8.67 8.17-9.22l-0.59 4.09c-3.21 0.77-5.61 3.65-5.61 7.11c0 3.9 3.06 7.09 6.92 7.29z"/>
		</clipPath>
		<clipPath clipPathUnits="userSpaceOnUse" id="cp146">
			<path d="m12.85 26.04c-4.95-0.2-8.9-4.28-8.9-9.27c0-4.75 3.57-8.67 8.17-9.22l-0.59 4.09c-3.21 0.77-5.61 3.65-5.61 7.11c0 3.9 3.06 7.09 6.92 7.29z"/>
		</clipPath>
		<clipPath clipPathUnits="userSpaceOnUse" id="cp147">
			<path d="m12.85 26.04c-4.95-0.2-8.9-4.28-8.9-9.27c0-4.75 3.57-8.67 8.17-9.22l-0.59 4.09c-3.21 0.77-5.61 3.65-5.61 7.11c0 3.9 3.06 7.09 6.92 7.29z"/>
		</clipPath>
		<clipPath clipPathUnits="userSpaceOnUse" id="cp148">
			<path d="m12.85 26.04c-4.95-0.2-8.9-4.28-8.9-9.27c0-4.75 3.57-8.67 8.17-9.22l-0.59 4.09c-3.21 0.77-5.61 3.65-5.61 7.11c0 3.9 3.06 7.09 6.92 7.29z"/>
		</clipPath>
		<clipPath clipPathUnits="userSpaceOnUse" id="cp149">
			<path d="m12.85 26.04c-4.95-0.2-8.9-4.28-8.9-9.27c0-4.75 3.57-8.67 8.17-9.22l-0.59 4.09c-3.21 0.77-5.61 3.65-5.61 7.11c0 3.9 3.06 7.09 6.92 7.29z"/>
		</clipPath>
		<clipPath clipPathUnits="userSpaceOnUse" id="cp150">
			<path d="m12.85 26.04c-4.95-0.2-8.9-4.28-8.9-9.27c0-4.75 3.57-8.67 8.17-9.22l-0.59 4.09c-3.21 0.77-5.61 3.65-5.61 7.11c0 3.9 3.06 7.09 6.92 7.29z"/>
		</clipPath>
		<clipPath clipPathUnits="userSpaceOnUse" id="cp151">
			<path d="m12.85 26.04c-4.95-0.2-8.9-4.28-8.9-9.27c0-4.75 3.57-8.67 8.17-9.22l-0.59 4.09c-3.21 0.77-5.61 3.65-5.61 7.11c0 3.9 3.06 7.09 6.92 7.29z"/>
		</clipPath>
		<clipPath clipPathUnits="userSpaceOnUse" id="cp152">
			<path d="m12.85 26.04c-4.95-0.2-8.9-4.28-8.9-9.27c0-4.75 3.57-8.67 8.17-9.22l-0.59 4.09c-3.21 0.77-5.61 3.65-5.61 7.11c0 3.9 3.06 7.09 6.92 7.29z"/>
		</clipPath>
		<clipPath clipPathUnits="userSpaceOnUse" id="cp153">
			<path d="m12.85 26.04c-4.95-0.2-8.9-4.28-8.9-9.27c0-4.75 3.57-8.67 8.17-9.22l-0.59 4.09c-3.21 0.77-5.61 3.65-5.61 7.11c0 3.9 3.06 7.09 6.92 7.29z"/>
		</clipPath>
		<clipPath clipPathUnits="userSpaceOnUse" id="cp154">
			<path d="m12.85 26.04c-4.95-0.2-8.9-4.28-8.9-9.27c0-4.75 3.57-8.67 8.17-9.22l-0.59 4.09c-3.21 0.77-5.61 3.65-5.61 7.11c0 3.9 3.06 7.09 6.92 7.29z"/>
		</clipPath>
		<clipPath clipPathUnits="userSpaceOnUse" id="cp155">
			<path d="m12.85 26.04c-4.95-0.2-8.9-4.28-8.9-9.27c0-4.75 3.57-8.67 8.17-9.22l-0.59 4.09c-3.21 0.77-5.61 3.65-5.61 7.11c0 3.9 3.06 7.09 6.92 7.29z"/>
		</clipPath>
		<clipPath clipPathUnits="userSpaceOnUse" id="cp156">
			<path d="m12.85 26.04c-4.95-0.2-8.9-4.28-8.9-9.27c0-4.75 3.57-8.67 8.17-9.22l-0.59 4.09c-3.21 0.77-5.61 3.65-5.61 7.11c0 3.9 3.06 7.09 6.92 7.29z"/>
		</clipPath>
		<clipPath clipPathUnits="userSpaceOnUse" id="cp157">
			<path d="m12.85 26.04c-4.95-0.2-8.9-4.28-8.9-9.27c0-4.75 3.57-8.67 8.17-9.22l-0.59 4.09c-3.21 0.77-5.61 3.65-5.61 7.11c0 3.9 3.06 7.09 6.92 7.29z"/>
		</clipPath>
		<clipPath clipPathUnits="userSpaceOnUse" id="cp158">
			<path d="m12.85 26.04c-4.95-0.2-8.9-4.28-8.9-9.27c0-4.75 3.57-8.67 8.17-9.22l-0.59 4.09c-3.21 0.77-5.61 3.65-5.61 7.11c0 3.9 3.06 7.09 6.92 7.29z"/>
		</clipPath>
		<clipPath clipPathUnits="userSpaceOnUse" id="cp159">
			<path d="m12.85 26.04c-4.95-0.2-8.9-4.28-8.9-9.27c0-4.75 3.57-8.67 8.17-9.22l-0.59 4.09c-3.21 0.77-5.61 3.65-5.61 7.11c0 3.9 3.06 7.09 6.92 7.29z"/>
		</clipPath>
		<clipPath clipPathUnits="userSpaceOnUse" id="cp160">
			<path d="m12.85 26.04c-4.95-0.2-8.9-4.28-8.9-9.27c0-4.75 3.57-8.67 8.17-9.22l-0.59 4.09c-3.21 0.77-5.61 3.65-5.61 7.11c0 3.9 3.06 7.09 6.92 7.29z"/>
		</clipPath>
		<clipPath clipPathUnits="userSpaceOnUse" id="cp161">
			<path d="m12.85 26.04c-4.95-0.2-8.9-4.28-8.9-9.27c0-4.75 3.57-8.67 8.17-9.22l-0.59 4.09c-3.21 0.77-5.61 3.65-5.61 7.11c0 3.9 3.06 7.09 6.92 7.29z"/>
		</clipPath>
		<clipPath clipPathUnits="userSpaceOnUse" id="cp162">
			<path d="m12.85 26.04c-4.95-0.2-8.9-4.28-8.9-9.27c0-4.75 3.57-8.67 8.17-9.22l-0.59 4.09c-3.21 0.77-5.61 3.65-5.61 7.11c0 3.9 3.06 7.09 6.92 7.29z"/>
		</clipPath>
		<clipPath clipPathUnits="userSpaceOnUse" id="cp163">
			<path d="m12.85 26.04c-4.95-0.2-8.9-4.28-8.9-9.27c0-4.75 3.57-8.67 8.17-9.22l-0.59 4.09c-3.21 0.77-5.61 3.65-5.61 7.11c0 3.9 3.06 7.09 6.92 7.29z"/>
		</clipPath>
		<clipPath clipPathUnits="userSpaceOnUse" id="cp164">
			<path d="m12.85 26.04c-4.95-0.2-8.9-4.28-8.9-9.27c0-4.75 3.57-8.67 8.17-9.22l-0.59 4.09c-3.21 0.77-5.61 3.65-5.61 7.11c0 3.9 3.06 7.09 6.92 7.29z"/>
		</clipPath>
		<clipPath clipPathUnits="userSpaceOnUse" id="cp165">
			<path d="m12.85 26.04c-4.95-0.2-8.9-4.28-8.9-9.27c0-4.75 3.57-8.67 8.17-9.22l-0.59 4.09c-3.21 0.77-5.61 3.65-5.61 7.11c0 3.9 3.06 7.09 6.92 7.29z"/>
		</clipPath>
		<clipPath clipPathUnits="userSpaceOnUse" id="cp166">
			<path d="m12.85 26.04c-4.95-0.2-8.9-4.28-8.9-9.27c0-4.75 3.57-8.67 8.17-9.22l-0.59 4.09c-3.21 0.77-5.61 3.65-5.61 7.11c0 3.9 3.06 7.09 6.92 7.29z"/>
		</clipPath>
		<clipPath clipPathUnits="userSpaceOnUse" id="cp167">
			<path d="m12.85 26.04c-4.95-0.2-8.9-4.28-8.9-9.27c0-4.75 3.57-8.67 8.17-9.22l-0.59 4.09c-3.21 0.77-5.61 3.65-5.61 7.11c0 3.9 3.06 7.09 6.92 7.29z"/>
		</clipPath>
		<clipPath clipPathUnits="userSpaceOnUse" id="cp168">
			<path d="m12.85 26.04c-4.95-0.2-8.9-4.28-8.9-9.27c0-4.75 3.57-8.67 8.17-9.22l-0.59 4.09c-3.21 0.77-5.61 3.65-5.61 7.11c0 3.9 3.06 7.09 6.92 7.29z"/>
		</clipPath>
		<clipPath clipPathUnits="userSpaceOnUse" id="cp169">
			<path d="m12.85 26.04c-4.95-0.2-8.9-4.28-8.9-9.27c0-4.75 3.57-8.67 8.17-9.22l-0.59 4.09c-3.21 0.77-5.61 3.65-5.61 7.11c0 3.9 3.06 7.09 6.92 7.29z"/>
		</clipPath>
		<clipPath clipPathUnits="userSpaceOnUse" id="cp170">
			<path d="m12.85 26.04c-4.95-0.2-8.9-4.28-8.9-9.27c0-4.75 3.57-8.67 8.17-9.22l-0.59 4.09c-3.21 0.77-5.61 3.65-5.61 7.11c0 3.9 3.06 7.09 6.92 7.29z"/>
		</clipPath>
		<clipPath clipPathUnits="userSpaceOnUse" id="cp171">
			<path d="m12.85 26.04c-4.95-0.2-8.9-4.28-8.9-9.27c0-4.75 3.57-8.67 8.17-9.22l-0.59 4.09c-3.21 0.77-5.61 3.65-5.61 7.11c0 3.9 3.06 7.09 6.92 7.29z"/>
		</clipPath>
		<clipPath clipPathUnits="userSpaceOnUse" id="cp172">
			<path d="m12.85 26.04c-4.95-0.2-8.9-4.28-8.9-9.27c0-4.75 3.57-8.67 8.17-9.22l-0.59 4.09c-3.21 0.77-5.61 3.65-5.61 7.11c0 3.9 3.06 7.09 6.92 7.29z"/>
		</clipPath>
		<clipPath clipPathUnits="userSpaceOnUse" id="cp173">
			<path d="m12.85 26.04c-4.95-0.2-8.9-4.28-8.9-9.27c0-4.75 3.57-8.67 8.17-9.22l-0.59 4.09c-3.21 0.77-5.61 3.65-5.61 7.11c0 3.9 3.06 7.09 6.92 7.29z"/>
		</clipPath>
		<clipPath clipPathUnits="userSpaceOnUse" id="cp174">
			<path d="m12.85 26.04c-4.95-0.2-8.9-4.28-8.9-9.27c0-4.75 3.57-8.67 8.17-9.22l-0.59 4.09c-3.21 0.77-5.61 3.65-5.61 7.11c0 3.9 3.06 7.09 6.92 7.29z"/>
		</clipPath>
		<clipPath clipPathUnits="userSpaceOnUse" id="cp175">
			<path d="m12.85 26.04c-4.95-0.2-8.9-4.28-8.9-9.27c0-4.75 3.57-8.67 8.17-9.22l-0.59 4.09c-3.21 0.77-5.61 3.65-5.61 7.11c0 3.9 3.06 7.09 6.92 7.29z"/>
		</clipPath>
		<clipPath clipPathUnits="userSpaceOnUse" id="cp176">
			<path d="m12.85 26.04c-4.95-0.2-8.9-4.28-8.9-9.27c0-4.75 3.57-8.67 8.17-9.22l-0.59 4.09c-3.21 0.77-5.61 3.65-5.61 7.11c0 3.9 3.06 7.09 6.92 7.29z"/>
		</clipPath>
		<clipPath clipPathUnits="userSpaceOnUse" id="cp177">
			<path d="m12.85 26.04c-4.95-0.2-8.9-4.28-8.9-9.27c0-4.75 3.57-8.67 8.17-9.22l-0.59 4.09c-3.21 0.77-5.61 3.65-5.61 7.11c0 3.9 3.06 7.09 6.92 7.29z"/>
		</clipPath>
		<clipPath clipPathUnits="userSpaceOnUse" id="cp178">
			<path d="m12.85 26.04c-4.95-0.2-8.9-4.28-8.9-9.27c0-4.75 3.57-8.67 8.17-9.22l-0.59 4.09c-3.21 0.77-5.61 3.65-5.61 7.11c0 3.9 3.06 7.09 6.92 7.29z"/>
		</clipPath>
		<clipPath clipPathUnits="userSpaceOnUse" id="cp179">
			<path d="m12.85 26.04c-4.95-0.2-8.9-4.28-8.9-9.27c0-4.75 3.57-8.67 8.17-9.22l-0.59 4.09c-3.21 0.77-5.61 3.65-5.61 7.11c0 3.9 3.06 7.09 6.92 7.29z"/>
		</clipPath>
		<clipPath clipPathUnits="userSpaceOnUse" id="cp180">
			<path d="m12.85 26.04c-4.95-0.2-8.9-4.28-8.9-9.27c0-4.75 3.57-8.67 8.17-9.22l-0.59 4.09c-3.21 0.77-5.61 3.65-5.61 7.11c0 3.9 3.06 7.09 6.92 7.29z"/>
		</clipPath>
		<clipPath clipPathUnits="userSpaceOnUse" id="cp181">
			<path d="m12.85 26.04c-4.95-0.2-8.9-4.28-8.9-9.27c0-4.75 3.57-8.67 8.17-9.22l-0.59 4.09c-3.21 0.77-5.61 3.65-5.61 7.11c0 3.9 3.06 7.09 6.92 7.29z"/>
		</clipPath>
	</defs>
	<style>
		tspan { white-space:pre }
		.s0 { fill: #ffffff }
		.s1 { fill: #f33f33 }
		.s2 { fill: #fe0600 }
		.s3 { fill: #fe0700 }
		.s4 { fill: #fe0800 }
		.s5 { fill: #fe0900 }
		.s6 { fill: #fe0a00 }
		.s7 { fill: #fe0b00 }
		.s8 { fill: #fe0c00 }
		.s9 { fill: #fe0d00 }
		.s10 { fill: #fe0e00 }
		.s11 { fill: #fe0f00 }
		.s12 { fill: #fe1000 }
		.s13 { fill: #fe1100 }
		.s14 { fill: #fe1200 }
		.s15 { fill: #fe1300 }
		.s16 { fill: #fe1400 }
		.s17 { fill: #fe1500 }
		.s18 { fill: #fe1600 }
		.s19 { fill: #fe1700 }
		.s20 { fill: #fe1800 }
		.s21 { fill: #fe1900 }
		.s22 { fill: #fe1a00 }
		.s23 { fill: #fe1b00 }
		.s24 { fill: #fe1c00 }
		.s25 { fill: #fe1d01 }
		.s26 { fill: #fe1e01 }
		.s27 { fill: #fe1f01 }
		.s28 { fill: #fe2001 }
		.s29 { fill: #fe2101 }
		.s30 { fill: #fe2201 }
		.s31 { fill: #fe2301 }
		.s32 { fill: #fe2401 }
		.s33 { fill: #fe2501 }
		.s34 { fill: #fe2601 }
		.s35 { fill: #fe2701 }
		.s36 { fill: #fe2801 }
		.s37 { fill: #fe2901 }
		.s38 { fill: #fe2a01 }
		.s39 { fill: #fe2b01 }
		.s40 { fill: #fe2c01 }
		.s41 { fill: #fe2d01 }
		.s42 { fill: #fe2e01 }
		.s43 { fill: #fe2f01 }
		.s44 { fill: #fe3001 }
		.s45 { fill: #fe3101 }
		.s46 { fill: #fe3201 }
		.s47 { fill: #fe3301 }
		.s48 { fill: #fe3401 }
		.s49 { fill: #fe3501 }
		.s50 { fill: #fe3601 }
		.s51 { fill: #fe3701 }
		.s52 { fill: #fe3801 }
		.s53 { fill: #fe3901 }
		.s54 { fill: #fe3a01 }
		.s55 { fill: #fe3b01 }
		.s56 { fill: #fe3c01 }
		.s57 { fill: #fe3d01 }
		.s58 { fill: #fe3e01 }
		.s59 { fill: #fe3f01 }
		.s60 { fill: #fe4001 }
		.s61 { fill: #fe4101 }
		.s62 { fill: #fe4201 }
		.s63 { fill: #fe4301 }
		.s64 { fill: #fe4401 }
		.s65 { fill: #fe4501 }
		.s66 { fill: #fe4601 }
		.s67 { fill: #fe4701 }
		.s68 { fill: #fe4801 }
		.s69 { fill: #fe4902 }
		.s70 { fill: #fe4a02 }
		.s71 { fill: #fe4b02 }
		.s72 { fill: #fe4c02 }
		.s73 { fill: #fe4d02 }
		.s74 { fill: #fe4e02 }
		.s75 { fill: #fe4f02 }
		.s76 { fill: #fe5002 }
		.s77 { fill: #fe5102 }
		.s78 { fill: #fe5202 }
		.s79 { fill: #fe5302 }
		.s80 { fill: #fe5402 }
		.s81 { fill: #fe5502 }
		.s82 { fill: #fe5602 }
		.s83 { fill: #fe5702 }
		.s84 { fill: #fe5802 }
		.s85 { fill: #fe5902 }
		.s86 { fill: #fe5a02 }
		.s87 { fill: #fe5b02 }
		.s88 { fill: #fe5c02 }
		.s89 { fill: #fe5d02 }
		.s90 { fill: #fe5e02 }
		.s91 { fill: #ff5f02 }
		.s92 { fill: #ff6102 }
		.s93 { fill: #ff6202 }
		.s94 { fill: #ff6302 }
		.s95 { fill: #ff6402 }
		.s96 { fill: #ff6502 }
		.s97 { fill: #ff6602 }
		.s98 { fill: #ff6702 }
		.s99 { fill: #ff6802 }
		.s100 { fill: #ff6902 }
		.s101 { fill: #ff6a02 }
		.s102 { fill: #ff6b02 }
		.s103 { fill: #ff6c02 }
		.s104 { fill: #ff6d02 }
		.s105 { fill: #ff6e02 }
		.s106 { fill: #ff6f02 }
		.s107 { fill: #ff7002 }
		.s108 { fill: #ff7102 }
		.s109 { fill: #ff7202 }
		.s110 { fill: #ff7302 }
		.s111 { fill: #ff7402 }
		.s112 { fill: #ff7502 }
		.s113 { fill: #ff7602 }
		.s114 { fill: #ff7703 }
		.s115 { fill: #ff7803 }
		.s116 { fill: #ff7903 }
		.s117 { fill: #ff7a03 }
		.s118 { fill: #ff7b03 }
		.s119 { fill: #ff7c03 }
		.s120 { fill: #ff7d03 }
		.s121 { fill: #ff7e03 }
		.s122 { fill: #ff7f03 }
		.s123 { fill: #ff8003 }
		.s124 { fill: #ff8103 }
		.s125 { fill: #ff8203 }
		.s126 { fill: #ff8303 }
		.s127 { fill: #ff8403 }
		.s128 { fill: #ff8503 }
		.s129 { fill: #ff8603 }
		.s130 { fill: #ff8703 }
		.s131 { fill: #ff8803 }
		.s132 { fill: #ff8903 }
		.s133 { fill: #ff8a03 }
		.s134 { fill: #ff8b03 }
		.s135 { fill: #ff8c03 }
		.s136 { fill: #ff8d03 }
		.s137 { fill: #ff8e03 }
		.s138 { fill: #ff8f03 }
		.s139 { fill: #ff9003 }
		.s140 { fill: #ff9103 }
		.s141 { fill: #ff9203 }
		.s142 { fill: #ff9303 }
		.s143 { fill: #ff9403 }
		.s144 { fill: #ff9503 }
		.s145 { fill: #ff9603 }
		.s146 { fill: #ff9703 }
		.s147 { fill: #ff9803 }
		.s148 { fill: #ff9903 }
		.s149 { fill: #ff9a03 }
		.s150 { fill: #ff9b03 }
		.s151 { fill: #ff9c03 }
		.s152 { fill: #ff9d03 }
		.s153 { fill: #ff9e03 }
		.s154 { fill: #ff9f03 }
		.s155 { fill: #ffa003 }
		.s156 { fill: #ffa103 }
		.s157 { fill: #ffa203 }
		.s158 { fill: #ffa304 }
		.s159 { fill: #ffa404 }
		.s160 { fill: #ffa504 }
		.s161 { fill: #ffa604 }
		.s162 { fill: #ffa704 }
		.s163 { fill: #ffa804 }
		.s164 { fill: #ffa904 }
		.s165 { fill: #ffaa04 }
		.s166 { fill: #ffab04 }
		.s167 { fill: #ffac04 }
		.s168 { fill: #ffad04 }
		.s169 { fill: #ffae04 }
		.s170 { fill: #ffaf04 }
		.s171 { fill: #ffb004 }
		.s172 { fill: #ffb104 }
		.s173 { fill: #ffb204 }
		.s174 { fill: #ffb304 }
		.s175 { fill: #ffb404 }
		.s176 { fill: #ffb504 }
		.s177 { fill: #ffb604 }
		.s178 { fill: #ffb704 }
		.s179 { fill: #ffb804 }
		.s180 { fill: #ffb904 }
	</style>
	<g id="Layer">
		<path id="Layer" class="s0" d="m13.23 28.76c-6.63 0-11.99-5.36-11.99-12c0-6.63 5.36-12 11.99-12c6.63 0 11.99 5.36 11.99 12c0 6.63-5.36 12-11.99 12z"/>
	</g>
	<path id="Layer" fill-rule="evenodd" class="s1" d="m26.47 16.76c0 7.3-5.94 13.24-13.24 13.24c-7.3 0-13.23-5.94-13.23-13.23c0-6.78 5.13-12.38 11.71-13.14v-0.78h-1.08c-0.34 0-0.62-0.28-0.62-0.62v-1.6c0-0.34 0.28-0.62 0.62-0.62h5.22c0.34 0 0.62 0.28 0.62 0.62v1.6c0 0.34-0.28 0.62-0.62 0.62h-1.08v0.78c6.58 0.76 11.71 6.36 11.71 13.14zm-2.48 0c0-5.93-4.83-10.76-10.76-10.76c-5.93 0-10.75 4.82-10.75 10.76c0 5.93 4.82 10.75 10.75 10.75c5.93 0 10.76-4.82 10.76-10.75z"/>
	<g id="Layer">
		<g id="Layer">
			<g id="Layer">
				<g id="Layer">
					<g id="Clip-Path" clip-path="url(#cp1)">
						<path id="Layer" class="s2" d="m3.96 23.69l5.53 2.35h-5.53v-2.35z"/>
					</g>
				</g>
			</g>
			<g id="Layer">
				<g id="Layer">
					<g id="Clip-Path" clip-path="url(#cp2)">
						<path id="Layer" class="s2" d="m3.96 23.6l5.75 2.44h-0.22l-5.53-2.35v-0.09z"/>
					</g>
				</g>
			</g>
			<g id="Layer">
				<g id="Layer">
					<g id="Clip-Path" clip-path="url(#cp3)">
						<path id="Layer" class="s3" d="m3.96 23.5l5.96 2.53h-0.22l-5.75-2.44v-0.09z"/>
					</g>
				</g>
			</g>
			<g id="Layer">
				<g id="Layer">
					<g id="Clip-Path" clip-path="url(#cp4)">
						<path id="Layer" class="s4" d="m3.96 23.41l6.19 2.63h-0.22l-5.96-2.53v-0.09z"/>
					</g>
				</g>
			</g>
			<g id="Layer">
				<g id="Layer">
					<g id="Clip-Path" clip-path="url(#cp5)">
						<path id="Layer" class="s5" d="m3.96 23.32l6.4 2.72h-0.21l-6.19-2.63v-0.09z"/>
					</g>
				</g>
			</g>
			<g id="Layer">
				<g id="Layer">
					<g id="Clip-Path" clip-path="url(#cp6)">
						<path id="Layer" class="s6" d="m3.96 23.23l6.62 2.81h-0.22l-6.4-2.72v-0.09z"/>
					</g>
				</g>
			</g>
			<g id="Layer">
				<g id="Layer">
					<g id="Clip-Path" clip-path="url(#cp7)">
						<path id="Layer" class="s7" d="m3.96 23.14l6.83 2.9h-0.22l-6.62-2.81v-0.09z"/>
					</g>
				</g>
			</g>
			<g id="Layer">
				<g id="Layer">
					<g id="Clip-Path" clip-path="url(#cp8)">
						<path id="Layer" class="s8" d="m3.96 23.04l7.05 2.99h-0.22l-6.83-2.9v-0.09z"/>
					</g>
				</g>
			</g>
			<g id="Layer">
				<g id="Layer">
					<g id="Clip-Path" clip-path="url(#cp9)">
						<path id="Layer" class="s9" d="m3.96 22.95l7.27 3.09h-0.22l-7.05-2.99v-0.09z"/>
					</g>
				</g>
			</g>
			<g id="Layer">
				<g id="Layer">
					<g id="Clip-Path" clip-path="url(#cp10)">
						<path id="Layer" class="s10" d="m3.96 22.86l7.49 3.18h-0.22l-7.27-3.09v-0.09z"/>
					</g>
				</g>
			</g>
			<g id="Layer">
				<g id="Layer">
					<g id="Clip-Path" clip-path="url(#cp11)">
						<path id="Layer" class="s11" d="m3.96 22.77l7.7 3.27h-0.22l-7.49-3.18v-0.09z"/>
					</g>
				</g>
			</g>
			<g id="Layer">
				<g id="Layer">
					<g id="Clip-Path" clip-path="url(#cp12)">
						<path id="Layer" class="s12" d="m3.96 22.67l7.92 3.36h-0.22l-7.7-3.27v-0.09z"/>
					</g>
				</g>
			</g>
			<g id="Layer">
				<g id="Layer">
					<g id="Clip-Path" clip-path="url(#cp13)">
						<path id="Layer" class="s13" d="m3.96 22.58l8.14 3.45h-0.22l-7.92-3.36v-0.09z"/>
					</g>
				</g>
			</g>
			<g id="Layer">
				<g id="Layer">
					<g id="Clip-Path" clip-path="url(#cp14)">
						<path id="Layer" class="s14" d="m3.96 22.49l8.35 3.55h-0.22l-8.14-3.45v-0.09z"/>
					</g>
				</g>
			</g>
			<g id="Layer">
				<g id="Layer">
					<g id="Clip-Path" clip-path="url(#cp15)">
						<path id="Layer" class="s15" d="m3.96 22.4l8.57 3.64h-0.22l-8.35-3.55v-0.09z"/>
					</g>
				</g>
			</g>
			<g id="Layer">
				<g id="Layer">
					<g id="Clip-Path" clip-path="url(#cp16)">
						<path id="Layer" class="s16" d="m3.96 22.31l8.79 3.73h-0.22l-8.57-3.64v-0.09z"/>
					</g>
				</g>
			</g>
			<g id="Layer">
				<g id="Layer">
					<g id="Clip-Path" clip-path="url(#cp17)">
						<path id="Layer" class="s17" d="m3.96 22.21l8.9 3.78v0.05h-0.11l-8.79-3.73v-0.09z"/>
					</g>
				</g>
			</g>
			<g id="Layer">
				<g id="Layer">
					<g id="Clip-Path" clip-path="url(#cp18)">
						<path id="Layer" class="s18" d="m3.96 22.12l8.9 3.78v0.09l-8.9-3.78v-0.09z"/>
					</g>
				</g>
			</g>
			<g id="Layer">
				<g id="Layer">
					<g id="Clip-Path" clip-path="url(#cp19)">
						<path id="Layer" class="s19" d="m3.96 22.03l8.9 3.78v0.09l-8.9-3.78v-0.09z"/>
					</g>
				</g>
			</g>
			<g id="Layer">
				<g id="Layer">
					<g id="Clip-Path" clip-path="url(#cp20)">
						<path id="Layer" class="s20" d="m3.96 21.94l8.9 3.78v0.09l-8.9-3.78v-0.09z"/>
					</g>
				</g>
			</g>
			<g id="Layer">
				<g id="Layer">
					<g id="Clip-Path" clip-path="url(#cp21)">
						<path id="Layer" class="s21" d="m3.96 21.85l8.9 3.78v0.09l-8.9-3.78v-0.09z"/>
					</g>
				</g>
			</g>
			<g id="Layer">
				<g id="Layer">
					<g id="Clip-Path" clip-path="url(#cp22)">
						<path id="Layer" class="s22" d="m3.96 21.75l8.9 3.78v0.09l-8.9-3.78v-0.09z"/>
					</g>
				</g>
			</g>
			<g id="Layer">
				<g id="Layer">
					<g id="Clip-Path" clip-path="url(#cp23)">
						<path id="Layer" class="s23" d="m3.96 21.66l8.9 3.78v0.09l-8.9-3.78v-0.09z"/>
					</g>
				</g>
			</g>
			<g id="Layer">
				<g id="Layer">
					<g id="Clip-Path" clip-path="url(#cp24)">
						<path id="Layer" class="s24" d="m3.96 21.57l8.9 3.77v0.09l-8.9-3.78v-0.09z"/>
					</g>
				</g>
			</g>
			<g id="Layer">
				<g id="Layer">
					<g id="Clip-Path" clip-path="url(#cp25)">
						<path id="Layer" class="s25" d="m3.96 21.48l8.9 3.77v0.09l-8.9-3.77v-0.09z"/>
					</g>
				</g>
			</g>
			<g id="Layer">
				<g id="Layer">
					<g id="Clip-Path" clip-path="url(#cp26)">
						<path id="Layer" class="s26" d="m3.96 21.39l8.9 3.77v0.09l-8.9-3.77v-0.09z"/>
					</g>
				</g>
			</g>
			<g id="Layer">
				<g id="Layer">
					<g id="Clip-Path" clip-path="url(#cp27)">
						<path id="Layer" class="s27" d="m3.96 21.29l8.9 3.78v0.09l-8.9-3.77v-0.09z"/>
					</g>
				</g>
			</g>
			<g id="Layer">
				<g id="Layer">
					<g id="Clip-Path" clip-path="url(#cp28)">
						<path id="Layer" class="s28" d="m3.96 21.2l8.9 3.78v0.09l-8.9-3.78v-0.09z"/>
					</g>
				</g>
			</g>
			<g id="Layer">
				<g id="Layer">
					<g id="Clip-Path" clip-path="url(#cp29)">
						<path id="Layer" class="s29" d="m3.96 21.11l8.9 3.78v0.09l-8.9-3.78v-0.09z"/>
					</g>
				</g>
			</g>
			<g id="Layer">
				<g id="Layer">
					<g id="Clip-Path" clip-path="url(#cp30)">
						<path id="Layer" class="s30" d="m3.96 21.01l8.9 3.78v0.09l-8.9-3.78v-0.09z"/>
					</g>
				</g>
			</g>
			<g id="Layer">
				<g id="Layer">
					<g id="Clip-Path" clip-path="url(#cp31)">
						<path id="Layer" class="s31" d="m3.96 20.92l8.9 3.78v0.09l-8.9-3.78v-0.09z"/>
					</g>
				</g>
			</g>
			<g id="Layer">
				<g id="Layer">
					<g id="Clip-Path" clip-path="url(#cp32)">
						<path id="Layer" class="s32" d="m3.96 20.83l8.9 3.78v0.09l-8.9-3.78v-0.09z"/>
					</g>
				</g>
			</g>
			<g id="Layer">
				<g id="Layer">
					<g id="Clip-Path" clip-path="url(#cp33)">
						<path id="Layer" class="s33" d="m3.96 20.74l8.9 3.78v0.09l-8.9-3.78v-0.09z"/>
					</g>
				</g>
			</g>
			<g id="Layer">
				<g id="Layer">
					<g id="Clip-Path" clip-path="url(#cp34)">
						<path id="Layer" class="s34" d="m3.96 20.65l8.9 3.78v0.09l-8.9-3.78v-0.09z"/>
					</g>
				</g>
			</g>
			<g id="Layer">
				<g id="Layer">
					<g id="Clip-Path" clip-path="url(#cp35)">
						<path id="Layer" class="s35" d="m3.96 20.55l8.9 3.77v0.09l-8.9-3.78v-0.09z"/>
					</g>
				</g>
			</g>
			<g id="Layer">
				<g id="Layer">
					<g id="Clip-Path" clip-path="url(#cp36)">
						<path id="Layer" class="s36" d="m3.96 20.46l8.9 3.78v0.09l-8.9-3.77v-0.09z"/>
					</g>
				</g>
			</g>
			<g id="Layer">
				<g id="Layer">
					<g id="Clip-Path" clip-path="url(#cp37)">
						<path id="Layer" class="s37" d="m3.96 20.37l8.9 3.78v0.09l-8.9-3.78v-0.09z"/>
					</g>
				</g>
			</g>
			<g id="Layer">
				<g id="Layer">
					<g id="Clip-Path" clip-path="url(#cp38)">
						<path id="Layer" class="s38" d="m3.96 20.28l8.9 3.78v0.09l-8.9-3.78v-0.09z"/>
					</g>
				</g>
			</g>
			<g id="Layer">
				<g id="Layer">
					<g id="Clip-Path" clip-path="url(#cp39)">
						<path id="Layer" class="s39" d="m3.96 20.19l8.9 3.77v0.09l-8.9-3.78v-0.09z"/>
					</g>
				</g>
			</g>
			<g id="Layer">
				<g id="Layer">
					<g id="Clip-Path" clip-path="url(#cp40)">
						<path id="Layer" class="s40" d="m3.96 20.09l8.9 3.78v0.09l-8.9-3.77v-0.09z"/>
					</g>
				</g>
			</g>
			<g id="Layer">
				<g id="Layer">
					<g id="Clip-Path" clip-path="url(#cp41)">
						<path id="Layer" class="s41" d="m3.96 20l8.9 3.78v0.09l-8.9-3.78v-0.09z"/>
					</g>
				</g>
			</g>
			<g id="Layer">
				<g id="Layer">
					<g id="Clip-Path" clip-path="url(#cp42)">
						<path id="Layer" class="s42" d="m3.96 19.91l8.9 3.78v0.09l-8.9-3.78v-0.09z"/>
					</g>
				</g>
			</g>
			<g id="Layer">
				<g id="Layer">
					<g id="Clip-Path" clip-path="url(#cp43)">
						<path id="Layer" class="s43" d="m3.96 19.82l8.9 3.78v0.09l-8.9-3.78v-0.09z"/>
					</g>
				</g>
			</g>
			<g id="Layer">
				<g id="Layer">
					<g id="Clip-Path" clip-path="url(#cp44)">
						<path id="Layer" class="s44" d="m3.96 19.73l8.9 3.78v0.09l-8.9-3.78v-0.09z"/>
					</g>
				</g>
			</g>
			<g id="Layer">
				<g id="Layer">
					<g id="Clip-Path" clip-path="url(#cp45)">
						<path id="Layer" class="s45" d="m3.96 19.63l8.9 3.78v0.09l-8.9-3.78v-0.09z"/>
					</g>
				</g>
			</g>
			<g id="Layer">
				<g id="Layer">
					<g id="Clip-Path" clip-path="url(#cp46)">
						<path id="Layer" class="s46" d="m3.96 19.54l8.9 3.77v0.09l-8.9-3.78v-0.09z"/>
					</g>
				</g>
			</g>
			<g id="Layer">
				<g id="Layer">
					<g id="Clip-Path" clip-path="url(#cp47)">
						<path id="Layer" class="s47" d="m3.96 19.45l8.9 3.78v0.09l-8.9-3.77v-0.09z"/>
					</g>
				</g>
			</g>
			<g id="Layer">
				<g id="Layer">
					<g id="Clip-Path" clip-path="url(#cp48)">
						<path id="Layer" class="s48" d="m3.96 19.36l8.9 3.78v0.09l-8.9-3.78v-0.09z"/>
					</g>
				</g>
			</g>
			<g id="Layer">
				<g id="Layer">
					<g id="Clip-Path" clip-path="url(#cp49)">
						<path id="Layer" class="s49" d="m3.96 19.26l8.9 3.78v0.09l-8.9-3.78v-0.09z"/>
					</g>
				</g>
			</g>
			<g id="Layer">
				<g id="Layer">
					<g id="Clip-Path" clip-path="url(#cp50)">
						<path id="Layer" class="s50" d="m3.96 19.17l8.9 3.77v0.09l-8.9-3.78v-0.09z"/>
					</g>
				</g>
			</g>
			<g id="Layer">
				<g id="Layer">
					<g id="Clip-Path" clip-path="url(#cp51)">
						<path id="Layer" class="s51" d="m3.96 19.08l8.9 3.78v0.09l-8.9-3.77v-0.09z"/>
					</g>
				</g>
			</g>
			<g id="Layer">
				<g id="Layer">
					<g id="Clip-Path" clip-path="url(#cp52)">
						<path id="Layer" class="s52" d="m3.96 18.99l8.9 3.78v0.09l-8.9-3.78v-0.09z"/>
					</g>
				</g>
			</g>
			<g id="Layer">
				<g id="Layer">
					<g id="Clip-Path" clip-path="url(#cp53)">
						<path id="Layer" class="s53" d="m3.96 18.89l8.9 3.78v0.09l-8.9-3.78v-0.09z"/>
					</g>
				</g>
			</g>
			<g id="Layer">
				<g id="Layer">
					<g id="Clip-Path" clip-path="url(#cp54)">
						<path id="Layer" class="s54" d="m3.96 18.8l8.9 3.78v0.09l-8.9-3.78v-0.09z"/>
					</g>
				</g>
			</g>
			<g id="Layer">
				<g id="Layer">
					<g id="Clip-Path" clip-path="url(#cp55)">
						<path id="Layer" class="s55" d="m3.96 18.71l8.9 3.78v0.09l-8.9-3.78v-0.09z"/>
					</g>
				</g>
			</g>
			<g id="Layer">
				<g id="Layer">
					<g id="Clip-Path" clip-path="url(#cp56)">
						<path id="Layer" class="s56" d="m3.96 18.62l8.9 3.78v0.09l-8.9-3.78v-0.09z"/>
					</g>
				</g>
			</g>
			<g id="Layer">
				<g id="Layer">
					<g id="Clip-Path" clip-path="url(#cp57)">
						<path id="Layer" class="s57" d="m3.96 18.52l8.9 3.78v0.09l-8.9-3.78v-0.09z"/>
					</g>
				</g>
			</g>
			<g id="Layer">
				<g id="Layer">
					<g id="Clip-Path" clip-path="url(#cp58)">
						<path id="Layer" class="s58" d="m3.96 18.43l8.9 3.77v0.09l-8.9-3.78v-0.09z"/>
					</g>
				</g>
			</g>
			<g id="Layer">
				<g id="Layer">
					<g id="Clip-Path" clip-path="url(#cp59)">
						<path id="Layer" class="s59" d="m3.96 18.34l8.9 3.78v0.09l-8.9-3.77v-0.09z"/>
					</g>
				</g>
			</g>
			<g id="Layer">
				<g id="Layer">
					<g id="Clip-Path" clip-path="url(#cp60)">
						<path id="Layer" class="s60" d="m3.96 18.25l8.9 3.77v0.09l-8.9-3.78v-0.09z"/>
					</g>
				</g>
			</g>
			<g id="Layer">
				<g id="Layer">
					<g id="Clip-Path" clip-path="url(#cp61)">
						<path id="Layer" class="s61" d="m3.96 18.16l8.9 3.78v0.09l-8.9-3.77v-0.09z"/>
					</g>
				</g>
			</g>
			<g id="Layer">
				<g id="Layer">
					<g id="Clip-Path" clip-path="url(#cp62)">
						<path id="Layer" class="s62" d="m3.96 18.06l8.9 3.78v0.09l-8.9-3.78v-0.09z"/>
					</g>
				</g>
			</g>
			<g id="Layer">
				<g id="Layer">
					<g id="Clip-Path" clip-path="url(#cp63)">
						<path id="Layer" class="s63" d="m3.96 17.97l8.9 3.78v0.09l-8.9-3.78v-0.09z"/>
					</g>
				</g>
			</g>
			<g id="Layer">
				<g id="Layer">
					<g id="Clip-Path" clip-path="url(#cp64)">
						<path id="Layer" class="s64" d="m3.96 17.88l8.9 3.77v0.09l-8.9-3.78v-0.09z"/>
					</g>
				</g>
			</g>
			<g id="Layer">
				<g id="Layer">
					<g id="Clip-Path" clip-path="url(#cp65)">
						<path id="Layer" class="s65" d="m3.96 17.79l8.9 3.77v0.09l-8.9-3.77v-0.09z"/>
					</g>
				</g>
			</g>
			<g id="Layer">
				<g id="Layer">
					<g id="Clip-Path" clip-path="url(#cp66)">
						<path id="Layer" class="s66" d="m3.96 17.7l8.9 3.78v0.09l-8.9-3.77v-0.09z"/>
					</g>
				</g>
			</g>
			<g id="Layer">
				<g id="Layer">
					<g id="Clip-Path" clip-path="url(#cp67)">
						<path id="Layer" class="s67" d="m3.96 17.6l8.9 3.78v0.1l-8.9-3.78v-0.09z"/>
					</g>
				</g>
			</g>
			<g id="Layer">
				<g id="Layer">
					<g id="Clip-Path" clip-path="url(#cp68)">
						<path id="Layer" class="s68" d="m3.96 17.51l8.9 3.77v0.09l-8.9-3.78v-0.09z"/>
					</g>
				</g>
			</g>
			<g id="Layer">
				<g id="Layer">
					<g id="Clip-Path" clip-path="url(#cp69)">
						<path id="Layer" class="s69" d="m3.96 17.42l8.9 3.78v0.09l-8.9-3.77v-0.09z"/>
					</g>
				</g>
			</g>
			<g id="Layer">
				<g id="Layer">
					<g id="Clip-Path" clip-path="url(#cp70)">
						<path id="Layer" class="s70" d="m3.96 17.33l8.9 3.78v0.09l-8.9-3.78v-0.09z"/>
					</g>
				</g>
			</g>
			<g id="Layer">
				<g id="Layer">
					<g id="Clip-Path" clip-path="url(#cp71)">
						<path id="Layer" class="s71" d="m3.96 17.23l8.9 3.78v0.09l-8.9-3.78v-0.1z"/>
					</g>
				</g>
			</g>
			<g id="Layer">
				<g id="Layer">
					<g id="Clip-Path" clip-path="url(#cp72)">
						<path id="Layer" class="s72" d="m3.96 17.14l8.9 3.78v0.09l-8.9-3.78v-0.09z"/>
					</g>
				</g>
			</g>
			<g id="Layer">
				<g id="Layer">
					<g id="Clip-Path" clip-path="url(#cp73)">
						<path id="Layer" class="s73" d="m3.96 17.05l8.9 3.78v0.09l-8.9-3.78v-0.09z"/>
					</g>
				</g>
			</g>
			<g id="Layer">
				<g id="Layer">
					<g id="Clip-Path" clip-path="url(#cp74)">
						<path id="Layer" class="s74" d="m3.96 16.96l8.9 3.78v0.09l-8.9-3.78v-0.09z"/>
					</g>
				</g>
			</g>
			<g id="Layer">
				<g id="Layer">
					<g id="Clip-Path" clip-path="url(#cp75)">
						<path id="Layer" class="s75" d="m3.96 16.86l8.9 3.78v0.09l-8.9-3.78v-0.09z"/>
					</g>
				</g>
			</g>
			<g id="Layer">
				<g id="Layer">
					<g id="Clip-Path" clip-path="url(#cp76)">
						<path id="Layer" class="s76" d="m3.96 16.77l8.9 3.78v0.09l-8.9-3.78v-0.09z"/>
					</g>
				</g>
			</g>
			<g id="Layer">
				<g id="Layer">
					<g id="Clip-Path" clip-path="url(#cp77)">
						<path id="Layer" class="s77" d="m3.96 16.68l8.9 3.78v0.09l-8.9-3.78v-0.09z"/>
					</g>
				</g>
			</g>
			<g id="Layer">
				<g id="Layer">
					<g id="Clip-Path" clip-path="url(#cp78)">
						<path id="Layer" class="s78" d="m3.96 16.59l8.9 3.78v0.09l-8.9-3.78v-0.09z"/>
					</g>
				</g>
			</g>
			<g id="Layer">
				<g id="Layer">
					<g id="Clip-Path" clip-path="url(#cp79)">
						<path id="Layer" class="s79" d="m3.96 16.5l8.9 3.77v0.09l-8.9-3.78v-0.09z"/>
					</g>
				</g>
			</g>
			<g id="Layer">
				<g id="Layer">
					<g id="Clip-Path" clip-path="url(#cp80)">
						<path id="Layer" class="s80" d="m3.96 16.4l8.9 3.78v0.09l-8.9-3.77v-0.09z"/>
					</g>
				</g>
			</g>
			<g id="Layer">
				<g id="Layer">
					<g id="Clip-Path" clip-path="url(#cp81)">
						<path id="Layer" class="s81" d="m3.96 16.31l8.9 3.78v0.09l-8.9-3.78v-0.09z"/>
					</g>
				</g>
			</g>
			<g id="Layer">
				<g id="Layer">
					<g id="Clip-Path" clip-path="url(#cp82)">
						<path id="Layer" class="s82" d="m3.96 16.22l8.9 3.78v0.09l-8.9-3.78v-0.09z"/>
					</g>
				</g>
			</g>
			<g id="Layer">
				<g id="Layer">
					<g id="Clip-Path" clip-path="url(#cp83)">
						<path id="Layer" class="s83" d="m3.96 16.13l8.9 3.78v0.09l-8.9-3.78v-0.09z"/>
					</g>
				</g>
			</g>
			<g id="Layer">
				<g id="Layer">
					<g id="Clip-Path" clip-path="url(#cp84)">
						<path id="Layer" class="s84" d="m3.96 16.04l8.9 3.78v0.09l-8.9-3.78v-0.09z"/>
					</g>
				</g>
			</g>
			<g id="Layer">
				<g id="Layer">
					<g id="Clip-Path" clip-path="url(#cp85)">
						<path id="Layer" class="s85" d="m3.96 15.94l8.9 3.78v0.09l-8.9-3.78v-0.09z"/>
					</g>
				</g>
			</g>
			<g id="Layer">
				<g id="Layer">
					<g id="Clip-Path" clip-path="url(#cp86)">
						<path id="Layer" class="s86" d="m3.96 15.85l8.9 3.78v0.09l-8.9-3.78v-0.09z"/>
					</g>
				</g>
			</g>
			<g id="Layer">
				<g id="Layer">
					<g id="Clip-Path" clip-path="url(#cp87)">
						<path id="Layer" class="s87" d="m3.96 15.76l8.9 3.78v0.09l-8.9-3.78v-0.09z"/>
					</g>
				</g>
			</g>
			<g id="Layer">
				<g id="Layer">
					<g id="Clip-Path" clip-path="url(#cp88)">
						<path id="Layer" class="s88" d="m3.96 15.67l8.9 3.77v0.09l-8.9-3.78v-0.09z"/>
					</g>
				</g>
			</g>
			<g id="Layer">
				<g id="Layer">
					<g id="Clip-Path" clip-path="url(#cp89)">
						<path id="Layer" class="s89" d="m3.96 15.57l8.9 3.78v0.09l-8.9-3.77v-0.09z"/>
					</g>
				</g>
			</g>
			<g id="Layer">
				<g id="Layer">
					<g id="Clip-Path" clip-path="url(#cp90)">
						<path id="Layer" class="s90" d="m3.96 15.48l8.9 3.78v0.09l-8.9-3.78v-0.09z"/>
					</g>
				</g>
			</g>
			<g id="Layer">
				<g id="Layer">
					<g id="Clip-Path" clip-path="url(#cp91)">
						<path id="Layer" class="s91" d="m3.96 15.39l8.9 3.78v0.09l-8.9-3.78v-0.09z"/>
					</g>
				</g>
			</g>
			<g id="Layer">
				<g id="Layer">
					<g id="Clip-Path" clip-path="url(#cp92)">
						<path id="Layer" class="s92" d="m3.96 15.3l8.9 3.78v0.09l-8.9-3.78v-0.09z"/>
					</g>
				</g>
			</g>
			<g id="Layer">
				<g id="Layer">
					<g id="Clip-Path" clip-path="url(#cp93)">
						<path id="Layer" class="s93" d="m3.96 15.21l8.9 3.78v0.09l-8.9-3.78v-0.09z"/>
					</g>
				</g>
			</g>
			<g id="Layer">
				<g id="Layer">
					<g id="Clip-Path" clip-path="url(#cp94)">
						<path id="Layer" class="s94" d="m3.96 15.12l8.9 3.78v0.09l-8.9-3.78v-0.09z"/>
					</g>
				</g>
			</g>
			<g id="Layer">
				<g id="Layer">
					<g id="Clip-Path" clip-path="url(#cp95)">
						<path id="Layer" class="s95" d="m3.96 15.02l8.9 3.78v0.09l-8.9-3.78v-0.09z"/>
					</g>
				</g>
			</g>
			<g id="Layer">
				<g id="Layer">
					<g id="Clip-Path" clip-path="url(#cp96)">
						<path id="Layer" class="s96" d="m3.96 14.93l8.9 3.78v0.09l-8.9-3.78v-0.09z"/>
					</g>
				</g>
			</g>
			<g id="Layer">
				<g id="Layer">
					<g id="Clip-Path" clip-path="url(#cp97)">
						<path id="Layer" class="s97" d="m3.96 14.84l8.9 3.78v0.09l-8.9-3.78v-0.09z"/>
					</g>
				</g>
			</g>
			<g id="Layer">
				<g id="Layer">
					<g id="Clip-Path" clip-path="url(#cp98)">
						<path id="Layer" class="s98" d="m3.96 14.75l8.9 3.78v0.09l-8.9-3.78v-0.09z"/>
					</g>
				</g>
			</g>
			<g id="Layer">
				<g id="Layer">
					<g id="Clip-Path" clip-path="url(#cp99)">
						<path id="Layer" class="s99" d="m3.96 14.65l8.9 3.78v0.09l-8.9-3.78v-0.09z"/>
					</g>
				</g>
			</g>
			<g id="Layer">
				<g id="Layer">
					<g id="Clip-Path" clip-path="url(#cp100)">
						<path id="Layer" class="s100" d="m3.96 14.56l8.9 3.78v0.09l-8.9-3.78v-0.09z"/>
					</g>
				</g>
			</g>
			<g id="Layer">
				<g id="Layer">
					<g id="Clip-Path" clip-path="url(#cp101)">
						<path id="Layer" class="s101" d="m3.96 14.47l8.9 3.78v0.09l-8.9-3.78v-0.09z"/>
					</g>
				</g>
			</g>
			<g id="Layer">
				<g id="Layer">
					<g id="Clip-Path" clip-path="url(#cp102)">
						<path id="Layer" class="s102" d="m3.96 14.38l8.9 3.78v0.09l-8.9-3.78v-0.09z"/>
					</g>
				</g>
			</g>
			<g id="Layer">
				<g id="Layer">
					<g id="Clip-Path" clip-path="url(#cp103)">
						<path id="Layer" class="s103" d="m3.96 14.28l8.9 3.78v0.09l-8.9-3.78v-0.09z"/>
					</g>
				</g>
			</g>
			<g id="Layer">
				<g id="Layer">
					<g id="Clip-Path" clip-path="url(#cp104)">
						<path id="Layer" class="s104" d="m3.96 14.19l8.9 3.78v0.09l-8.9-3.78v-0.09z"/>
					</g>
				</g>
			</g>
			<g id="Layer">
				<g id="Layer">
					<g id="Clip-Path" clip-path="url(#cp105)">
						<path id="Layer" class="s105" d="m3.96 14.1l8.9 3.78v0.09l-8.9-3.78v-0.09z"/>
					</g>
				</g>
			</g>
			<g id="Layer">
				<g id="Layer">
					<g id="Clip-Path" clip-path="url(#cp106)">
						<path id="Layer" class="s106" d="m3.96 14.01l8.9 3.78v0.09l-8.9-3.78v-0.09z"/>
					</g>
				</g>
			</g>
			<g id="Layer">
				<g id="Layer">
					<g id="Clip-Path" clip-path="url(#cp107)">
						<path id="Layer" class="s107" d="m3.96 13.92l8.9 3.77v0.09l-8.9-3.78v-0.09z"/>
					</g>
				</g>
			</g>
			<g id="Layer">
				<g id="Layer">
					<g id="Clip-Path" clip-path="url(#cp108)">
						<path id="Layer" class="s108" d="m3.96 13.82l8.9 3.78v0.09l-8.9-3.77v-0.09z"/>
					</g>
				</g>
			</g>
			<g id="Layer">
				<g id="Layer">
					<g id="Clip-Path" clip-path="url(#cp109)">
						<path id="Layer" class="s109" d="m3.96 13.73l8.9 3.78v0.09l-8.9-3.78v-0.09z"/>
					</g>
				</g>
			</g>
			<g id="Layer">
				<g id="Layer">
					<g id="Clip-Path" clip-path="url(#cp110)">
						<path id="Layer" class="s110" d="m3.96 13.64l8.9 3.78v0.09l-8.9-3.78v-0.09z"/>
					</g>
				</g>
			</g>
			<g id="Layer">
				<g id="Layer">
					<g id="Clip-Path" clip-path="url(#cp111)">
						<path id="Layer" class="s111" d="m3.96 13.55l8.9 3.77v0.09l-8.9-3.78v-0.09z"/>
					</g>
				</g>
			</g>
			<g id="Layer">
				<g id="Layer">
					<g id="Clip-Path" clip-path="url(#cp112)">
						<path id="Layer" class="s112" d="m3.96 13.46l8.9 3.78v0.09l-8.9-3.77v-0.09z"/>
					</g>
				</g>
			</g>
			<g id="Layer">
				<g id="Layer">
					<g id="Clip-Path" clip-path="url(#cp113)">
						<path id="Layer" class="s113" d="m3.96 13.36l8.9 3.78v0.09l-8.9-3.78v-0.09z"/>
					</g>
				</g>
			</g>
			<g id="Layer">
				<g id="Layer">
					<g id="Clip-Path" clip-path="url(#cp114)">
						<path id="Layer" class="s114" d="m3.96 13.27l8.9 3.77v0.09l-8.9-3.78v-0.09z"/>
					</g>
				</g>
			</g>
			<g id="Layer">
				<g id="Layer">
					<g id="Clip-Path" clip-path="url(#cp115)">
						<path id="Layer" class="s115" d="m3.96 13.18l8.9 3.78v0.09l-8.9-3.77v-0.09z"/>
					</g>
				</g>
			</g>
			<g id="Layer">
				<g id="Layer">
					<g id="Clip-Path" clip-path="url(#cp116)">
						<path id="Layer" class="s116" d="m3.96 13.08l8.9 3.78v0.09l-8.9-3.78v-0.1z"/>
					</g>
				</g>
			</g>
			<g id="Layer">
				<g id="Layer">
					<g id="Clip-Path" clip-path="url(#cp117)">
						<path id="Layer" class="s117" d="m3.96 12.99l8.9 3.78v0.09l-8.9-3.78v-0.09z"/>
					</g>
				</g>
			</g>
			<g id="Layer">
				<g id="Layer">
					<g id="Clip-Path" clip-path="url(#cp118)">
						<path id="Layer" class="s118" d="m3.96 12.9l8.9 3.78v0.09l-8.9-3.78v-0.09z"/>
					</g>
				</g>
			</g>
			<g id="Layer">
				<g id="Layer">
					<g id="Clip-Path" clip-path="url(#cp119)">
						<path id="Layer" class="s119" d="m3.96 12.81l8.9 3.78v0.09l-8.9-3.78v-0.09z"/>
					</g>
				</g>
			</g>
			<g id="Layer">
				<g id="Layer">
					<g id="Clip-Path" clip-path="url(#cp120)">
						<path id="Layer" class="s120" d="m3.96 12.72l8.9 3.77v0.09l-8.9-3.78v-0.09z"/>
					</g>
				</g>
			</g>
			<g id="Layer">
				<g id="Layer">
					<g id="Clip-Path" clip-path="url(#cp121)">
						<path id="Layer" class="s121" d="m3.96 12.63l8.9 3.77v0.09l-8.9-3.77v-0.09z"/>
					</g>
				</g>
			</g>
			<g id="Layer">
				<g id="Layer">
					<g id="Clip-Path" clip-path="url(#cp122)">
						<path id="Layer" class="s122" d="m3.96 12.53l8.9 3.78v0.09l-8.9-3.77v-0.09z"/>
					</g>
				</g>
			</g>
			<g id="Layer">
				<g id="Layer">
					<g id="Clip-Path" clip-path="url(#cp123)">
						<path id="Layer" class="s123" d="m3.96 12.44l8.9 3.78v0.09l-8.9-3.78v-0.09z"/>
					</g>
				</g>
			</g>
			<g id="Layer">
				<g id="Layer">
					<g id="Clip-Path" clip-path="url(#cp124)">
						<path id="Layer" class="s124" d="m3.96 12.35l8.9 3.78v0.09l-8.9-3.78v-0.09z"/>
					</g>
				</g>
			</g>
			<g id="Layer">
				<g id="Layer">
					<g id="Clip-Path" clip-path="url(#cp125)">
						<path id="Layer" class="s125" d="m3.96 12.26l8.9 3.78v0.09l-8.9-3.78v-0.09z"/>
					</g>
				</g>
			</g>
			<g id="Layer">
				<g id="Layer">
					<g id="Clip-Path" clip-path="url(#cp126)">
						<path id="Layer" class="s126" d="m3.96 12.16l8.9 3.78v0.09l-8.9-3.78v-0.09z"/>
					</g>
				</g>
			</g>
			<g id="Layer">
				<g id="Layer">
					<g id="Clip-Path" clip-path="url(#cp127)">
						<path id="Layer" class="s127" d="m3.96 12.07l8.9 3.78v0.09l-8.9-3.78v-0.09z"/>
					</g>
				</g>
			</g>
			<g id="Layer">
				<g id="Layer">
					<g id="Clip-Path" clip-path="url(#cp128)">
						<path id="Layer" class="s128" d="m3.96 11.98l8.9 3.78v0.09l-8.9-3.78v-0.09z"/>
					</g>
				</g>
			</g>
			<g id="Layer">
				<g id="Layer">
					<g id="Clip-Path" clip-path="url(#cp129)">
						<path id="Layer" class="s129" d="m3.96 11.89l8.9 3.78v0.09l-8.9-3.78v-0.09z"/>
					</g>
				</g>
			</g>
			<g id="Layer">
				<g id="Layer">
					<g id="Clip-Path" clip-path="url(#cp130)">
						<path id="Layer" class="s130" d="m3.96 11.79l8.9 3.78v0.09l-8.9-3.78v-0.09z"/>
					</g>
				</g>
			</g>
			<g id="Layer">
				<g id="Layer">
					<g id="Clip-Path" clip-path="url(#cp131)">
						<path id="Layer" class="s131" d="m3.96 11.7l8.9 3.77v0.09l-8.9-3.78v-0.09z"/>
					</g>
				</g>
			</g>
			<g id="Layer">
				<g id="Layer">
					<g id="Clip-Path" clip-path="url(#cp132)">
						<path id="Layer" class="s132" d="m3.96 11.61l8.9 3.77v0.09l-8.9-3.77v-0.09z"/>
					</g>
				</g>
			</g>
			<g id="Layer">
				<g id="Layer">
					<g id="Clip-Path" clip-path="url(#cp133)">
						<path id="Layer" class="s133" d="m3.96 11.52l8.9 3.78v0.09l-8.9-3.77v-0.09z"/>
					</g>
				</g>
			</g>
			<g id="Layer">
				<g id="Layer">
					<g id="Clip-Path" clip-path="url(#cp134)">
						<path id="Layer" class="s134" d="m3.96 11.43l8.9 3.78v0.09l-8.9-3.78v-0.09z"/>
					</g>
				</g>
			</g>
			<g id="Layer">
				<g id="Layer">
					<g id="Clip-Path" clip-path="url(#cp135)">
						<path id="Layer" class="s135" d="m3.96 11.33l8.9 3.78v0.09l-8.9-3.78v-0.09z"/>
					</g>
				</g>
			</g>
			<g id="Layer">
				<g id="Layer">
					<g id="Clip-Path" clip-path="url(#cp136)">
						<path id="Layer" class="s136" d="m3.96 11.24l8.9 3.78v0.09l-8.9-3.78v-0.09z"/>
					</g>
				</g>
			</g>
			<g id="Layer">
				<g id="Layer">
					<g id="Clip-Path" clip-path="url(#cp137)">
						<path id="Layer" class="s137" d="m3.96 11.15l8.9 3.78v0.09l-8.9-3.78v-0.09z"/>
					</g>
				</g>
			</g>
			<g id="Layer">
				<g id="Layer">
					<g id="Clip-Path" clip-path="url(#cp138)">
						<path id="Layer" class="s138" d="m3.96 11.06l8.9 3.78v0.09l-8.9-3.78v-0.09z"/>
					</g>
				</g>
			</g>
			<g id="Layer">
				<g id="Layer">
					<g id="Clip-Path" clip-path="url(#cp139)">
						<path id="Layer" class="s139" d="m3.96 10.96l8.9 3.78v0.09l-8.9-3.78v-0.09z"/>
					</g>
				</g>
			</g>
			<g id="Layer">
				<g id="Layer">
					<g id="Clip-Path" clip-path="url(#cp140)">
						<path id="Layer" class="s140" d="m3.96 10.87l8.9 3.78v0.09l-8.9-3.78v-0.09z"/>
					</g>
				</g>
			</g>
			<g id="Layer">
				<g id="Layer">
					<g id="Clip-Path" clip-path="url(#cp141)">
						<path id="Layer" class="s141" d="m3.96 10.78l8.9 3.78v0.09l-8.9-3.78v-0.09z"/>
					</g>
				</g>
			</g>
			<g id="Layer">
				<g id="Layer">
					<g id="Clip-Path" clip-path="url(#cp142)">
						<path id="Layer" class="s142" d="m3.96 10.69l8.9 3.78v0.09l-8.9-3.78v-0.09z"/>
					</g>
				</g>
			</g>
			<g id="Layer">
				<g id="Layer">
					<g id="Clip-Path" clip-path="url(#cp143)">
						<path id="Layer" class="s143" d="m3.96 10.6l8.9 3.78v0.09l-8.9-3.78v-0.09z"/>
					</g>
				</g>
			</g>
			<g id="Layer">
				<g id="Layer">
					<g id="Clip-Path" clip-path="url(#cp144)">
						<path id="Layer" class="s144" d="m3.96 10.57l0.02-0.06l8.87 3.76v0.09l-8.9-3.78v-0.02z"/>
					</g>
				</g>
			</g>
			<g id="Layer">
				<g id="Layer">
					<g id="Clip-Path" clip-path="url(#cp145)">
						<path id="Layer" class="s145" d="m3.98 10.52l0.03-0.08l8.84 3.75v0.09l-8.87-3.76z"/>
					</g>
				</g>
			</g>
			<g id="Layer">
				<g id="Layer">
					<g id="Clip-Path" clip-path="url(#cp146)">
						<path id="Layer" class="s146" d="m4.01 10.44l0.03-0.08l8.81 3.74v0.09l-8.84-3.75z"/>
					</g>
				</g>
			</g>
			<g id="Layer">
				<g id="Layer">
					<g id="Clip-Path" clip-path="url(#cp147)">
						<path id="Layer" class="s147" d="m4.04 10.36l0.03-0.08l8.77 3.72v0.09l-8.81-3.74z"/>
					</g>
				</g>
			</g>
			<g id="Layer">
				<g id="Layer">
					<g id="Clip-Path" clip-path="url(#cp148)">
						<path id="Layer" class="s148" d="m4.08 10.28l0.03-0.08l8.74 3.71v0.09l-8.77-3.72z"/>
					</g>
				</g>
			</g>
			<g id="Layer">
				<g id="Layer">
					<g id="Clip-Path" clip-path="url(#cp149)">
						<path id="Layer" class="s149" d="m4.11 10.2l0.04-0.08l8.71 3.7v0.09l-8.74-3.71z"/>
					</g>
				</g>
			</g>
			<g id="Layer">
				<g id="Layer">
					<g id="Clip-Path" clip-path="url(#cp150)">
						<path id="Layer" class="s150" d="m4.15 10.13l0.03-0.08l8.68 3.68v0.09l-8.71-3.7z"/>
					</g>
				</g>
			</g>
			<g id="Layer">
				<g id="Layer">
					<g id="Clip-Path" clip-path="url(#cp151)">
						<path id="Layer" class="s151" d="m4.18 10.04l0.03-0.08l8.64 3.67v0.09l-8.68-3.68z"/>
					</g>
				</g>
			</g>
			<g id="Layer">
				<g id="Layer">
					<g id="Clip-Path" clip-path="url(#cp152)">
						<path id="Layer" class="s152" d="m4.21 9.97l0.03-0.08l8.61 3.65v0.09l-8.64-3.67z"/>
					</g>
				</g>
			</g>
			<g id="Layer">
				<g id="Layer">
					<g id="Clip-Path" clip-path="url(#cp153)">
						<path id="Layer" class="s153" d="m4.24 9.89l0.03-0.08l8.57 3.64v0.09l-8.61-3.65z"/>
					</g>
				</g>
			</g>
			<g id="Layer">
				<g id="Layer">
					<g id="Clip-Path" clip-path="url(#cp154)">
						<path id="Layer" class="s154" d="m4.28 9.81l0.03-0.08l8.54 3.63v0.09l-8.57-3.64z"/>
					</g>
				</g>
			</g>
			<g id="Layer">
				<g id="Layer">
					<g id="Clip-Path" clip-path="url(#cp155)">
						<path id="Layer" class="s155" d="m4.31 9.73l0.03-0.08l8.51 3.61v0.09l-8.54-3.63z"/>
					</g>
				</g>
			</g>
			<g id="Layer">
				<g id="Layer">
					<g id="Clip-Path" clip-path="url(#cp156)">
						<path id="Layer" class="s156" d="m4.34 9.65l0.03-0.08l8.48 3.6v0.09l-8.51-3.61z"/>
					</g>
				</g>
			</g>
			<g id="Layer">
				<g id="Layer">
					<g id="Clip-Path" clip-path="url(#cp157)">
						<path id="Layer" class="s157" d="m4.38 9.58l0.03-0.08l8.44 3.58v0.09l-8.48-3.6z"/>
					</g>
				</g>
			</g>
			<g id="Layer">
				<g id="Layer">
					<g id="Clip-Path" clip-path="url(#cp158)">
						<path id="Layer" class="s158" d="m4.41 9.5l0.03-0.08l8.41 3.57v0.09l-8.44-3.58z"/>
					</g>
				</g>
			</g>
			<g id="Layer">
				<g id="Layer">
					<g id="Clip-Path" clip-path="url(#cp159)">
						<path id="Layer" class="s159" d="m4.44 9.42l0.03-0.08l8.38 3.55v0.09l-8.41-3.57z"/>
					</g>
				</g>
			</g>
			<g id="Layer">
				<g id="Layer">
					<g id="Clip-Path" clip-path="url(#cp160)">
						<path id="Layer" class="s160" d="m4.48 9.34l0.03-0.08l8.34 3.54v0.09l-8.38-3.55z"/>
					</g>
				</g>
			</g>
			<g id="Layer">
				<g id="Layer">
					<g id="Clip-Path" clip-path="url(#cp161)">
						<path id="Layer" class="s161" d="m4.51 9.27l0.03-0.08l8.31 3.52v0.09l-8.34-3.54z"/>
					</g>
				</g>
			</g>
			<g id="Layer">
				<g id="Layer">
					<g id="Clip-Path" clip-path="url(#cp162)">
						<path id="Layer" class="s162" d="m4.54 9.19l0.03-0.08l8.28 3.51v0.09l-8.31-3.52z"/>
					</g>
				</g>
			</g>
			<g id="Layer">
				<g id="Layer">
					<g id="Clip-Path" clip-path="url(#cp163)">
						<path id="Layer" class="s163" d="m4.57 9.11l0.04-0.08l8.24 3.5v0.09l-8.28-3.51z"/>
					</g>
				</g>
			</g>
			<g id="Layer">
				<g id="Layer">
					<g id="Clip-Path" clip-path="url(#cp164)">
						<path id="Layer" class="s164" d="m4.61 9.03l0.03-0.08l8.21 3.48v0.09l-8.24-3.5z"/>
					</g>
				</g>
			</g>
			<g id="Layer">
				<g id="Layer">
					<g id="Clip-Path" clip-path="url(#cp165)">
						<path id="Layer" class="s165" d="m4.64 8.95l0.03-0.08l8.18 3.47v0.09l-8.21-3.48z"/>
					</g>
				</g>
			</g>
			<g id="Layer">
				<g id="Layer">
					<g id="Clip-Path" clip-path="url(#cp166)">
						<path id="Layer" class="s166" d="m4.68 8.87l0.03-0.08l8.15 3.46v0.09l-8.18-3.47z"/>
					</g>
				</g>
			</g>
			<g id="Layer">
				<g id="Layer">
					<g id="Clip-Path" clip-path="url(#cp167)">
						<path id="Layer" class="s167" d="m4.71 8.8l0.03-0.08l8.11 3.44v0.09l-8.15-3.46z"/>
					</g>
				</g>
			</g>
			<g id="Layer">
				<g id="Layer">
					<g id="Clip-Path" clip-path="url(#cp168)">
						<path id="Layer" class="s168" d="m4.74 8.72l0.04-0.08l8.08 3.43v0.09l-8.11-3.44z"/>
					</g>
				</g>
			</g>
			<g id="Layer">
				<g id="Layer">
					<g id="Clip-Path" clip-path="url(#cp169)">
						<path id="Layer" class="s169" d="m4.78 8.64l0.03-0.08l8.04 3.41v0.09l-8.08-3.43z"/>
					</g>
				</g>
			</g>
			<g id="Layer">
				<g id="Layer">
					<g id="Clip-Path" clip-path="url(#cp170)">
						<path id="Layer" class="s170" d="m4.81 8.56l0.04-0.08l8.01 3.4v0.09l-8.04-3.41z"/>
					</g>
				</g>
			</g>
			<g id="Layer">
				<g id="Layer">
					<g id="Clip-Path" clip-path="url(#cp171)">
						<path id="Layer" class="s171" d="m4.84 8.48l0.03-0.08l7.98 3.39v0.09l-8.01-3.4z"/>
					</g>
				</g>
			</g>
			<g id="Layer">
				<g id="Layer">
					<g id="Clip-Path" clip-path="url(#cp172)">
						<path id="Layer" class="s172" d="m4.87 8.4l0.03-0.08l7.95 3.37v0.09l-7.98-3.39z"/>
					</g>
				</g>
			</g>
			<g id="Layer">
				<g id="Layer">
					<g id="Clip-Path" clip-path="url(#cp173)">
						<path id="Layer" class="s173" d="m4.91 8.33l0.03-0.08l7.91 3.36v0.09l-7.95-3.37z"/>
					</g>
				</g>
			</g>
			<g id="Layer">
				<g id="Layer">
					<g id="Clip-Path" clip-path="url(#cp174)">
						<path id="Layer" class="s174" d="m4.94 8.25l0.03-0.08l7.88 3.34v0.09l-7.91-3.36z"/>
					</g>
				</g>
			</g>
			<g id="Layer">
				<g id="Layer">
					<g id="Clip-Path" clip-path="url(#cp175)">
						<path id="Layer" class="s175" d="m4.97 8.17l0.03-0.08l7.85 3.33v0.09l-7.88-3.34z"/>
					</g>
				</g>
			</g>
			<g id="Layer">
				<g id="Layer">
					<g id="Clip-Path" clip-path="url(#cp176)">
						<path id="Layer" class="s176" d="m5.01 8.09l0.03-0.08l7.81 3.31v0.09l-7.85-3.33z"/>
					</g>
				</g>
			</g>
			<g id="Layer">
				<g id="Layer">
					<g id="Clip-Path" clip-path="url(#cp177)">
						<path id="Layer" class="s177" d="m5.04 8.02l0.03-0.08l7.78 3.3v0.09l-7.81-3.31z"/>
					</g>
				</g>
			</g>
			<g id="Layer">
				<g id="Layer">
					<g id="Clip-Path" clip-path="url(#cp178)">
						<path id="Layer" class="s178" d="m5.07 7.94l0.03-0.08l7.75 3.29v0.09l-7.78-3.3z"/>
					</g>
				</g>
			</g>
			<g id="Layer">
				<g id="Layer">
					<g id="Clip-Path" clip-path="url(#cp179)">
						<path id="Layer" class="s179" d="m5.11 7.86l0.03-0.08l7.71 3.28v0.09l-7.75-3.29z"/>
					</g>
				</g>
			</g>
			<g id="Layer">
				<g id="Layer">
					<g id="Clip-Path" clip-path="url(#cp180)">
						<path id="Layer" class="s180" d="m5.14 7.78l0.03-0.08l7.68 3.26v0.09l-7.71-3.28z"/>
					</g>
				</g>
			</g>
			<g id="Layer">
				<g id="Layer">
					<g id="Clip-Path" clip-path="url(#cp181)">
						<path id="Layer" class="s180" d="m5.17 7.7l0.07-0.15h7.62v3.41l-7.68-3.26z"/>
					</g>
				</g>
			</g>
		</g>
	</g>
	<g id="Layer">
		<path id="Layer" class="s1" d="m15.53 16.76c0 1.27-1.03 2.3-2.3 2.3c-1.27 0-2.3-1.03-2.3-2.3c0-0.88 0.49-1.63 1.21-2.02l1.09-7.05l1.09 7.05c0.72 0.39 1.21 1.15 1.21 2.02z"/>
	</g>
</svg>