<svg version="1.2" baseProfile="tiny-ps" xmlns="http://www.w3.org/2000/svg" viewBox="0 0 400 212" width="400" height="212">
	<title>error-404-svg</title>
	<style>
		tspan { white-space:pre }
		.s0 { fill: #004dda }
	</style>
	<g id="Layer">
		<path id="Layer" class="s0" d="m250.43 186.51v-4.86c0-1.99 0.78-3.31 2.94-3.31c2.16 0 2.94 1.33 2.94 3.31v4.86c0 1.96-0.93 3.34-2.94 3.34c-2.01 0-2.94-1.38-2.94-3.34z"/>
		<path id="Layer" class="s0" d="m226.41 180.65c0 1.28-0.91 1.99-2.6 1.99h-2.75v-4.07h2.6c2.23 0 2.75 1.05 2.75 2.09z"/>
		<path id="Layer" class="s0" d="m268.58 182.63h-2.75v-4.07h2.6c2.23 0 2.75 1.06 2.75 2.09c0 1.28-0.91 1.99-2.6 1.99z"/>
		<path id="Layer" class="s0" d="m238.5 178.56c2.23 0 2.75 1.06 2.75 2.09c0 1.28-0.91 1.99-2.6 1.99h-2.75v-4.07h2.6z"/>
		<path id="Layer" class="s0" d="m111.67 143.8c-1.04 0-1.89-0.84-1.89-1.89c0-1.04 0.84-1.89 1.89-1.89c1.04 0 1.89 0.84 1.89 1.89c0 1.04-0.84 1.89-1.89 1.89z"/>
		<path id="Layer" class="s0" d="m112.85 87.92c-0.59 0-1.06-0.47-1.06-1.06c0-0.59 0.47-1.06 1.06-1.06c0.59 0 1.06 0.47 1.06 1.06c0 0.59-0.47 1.06-1.06 1.06z"/>
		<path id="Layer" class="s0" d="m268.67 162.7c-1.92 0-3.46-1.55-3.46-3.46c0-1.92 1.55-3.46 3.46-3.46c1.92 0 3.46 1.55 3.46 3.46c0 1.92-1.55 3.46-3.46 3.46z"/>
		<path id="Layer" class="s0" d="m196.43 84.23c-1.91 0-3.46-1.55-3.46-3.46c0-1.91 1.55-3.46 3.46-3.46c1.91 0 3.46 1.55 3.46 3.46c0 1.91-1.55 3.46-3.46 3.46z"/>
		<path id="Layer" class="s0" d="m136.62 39.35c-1.06 0-1.92-0.86-1.92-1.92c0-1.06 0.86-1.92 1.92-1.92c1.06 0 1.92 0.86 1.92 1.92c0 1.06-0.86 1.92-1.92 1.92z"/>
		<path id="Layer" class="s0" d="m142.3 161.16c-1.06 0-1.92-0.86-1.92-1.92c0-1.06 0.86-1.92 1.92-1.92c1.06 0 1.92 0.86 1.92 1.92c0 1.06-0.86 1.92-1.92 1.92z"/>
		<path id="Layer" class="s0" d="m6.59 159.24c-1.06 0-1.92-0.86-1.92-1.92c0-1.06 0.86-1.92 1.92-1.92c1.06 0 1.92 0.86 1.92 1.92c0 1.06-0.86 1.92-1.92 1.92z"/>
		<path id="Layer" class="s0" d="m140.46 3.84c-1.06 0-1.92-0.86-1.92-1.92c0-1.06 0.86-1.92 1.92-1.92c1.06 0 1.92 0.86 1.92 1.92c0 1.06-0.86 1.92-1.92 1.92z"/>
		<path id="Layer" class="s0" d="m265.21 133.65c-1.06 0-1.92-0.86-1.92-1.92c0-1.06 0.86-1.92 1.92-1.92c1.06 0 1.92 0.86 1.92 1.92c0 1.06-0.86 1.92-1.92 1.92z"/>
		<path id="Layer" class="s0" d="m194.51 101.29c-1.06 0-1.92-0.86-1.92-1.92c0-1.06 0.86-1.92 1.92-1.92c1.06 0 1.92 0.86 1.92 1.92c0 1.06-0.86 1.92-1.92 1.92z"/>
		<path id="Layer" class="s0" d="m368.96 75.15c-3.94 0-7.13-3.19-7.13-7.13c0-3.94 3.19-7.13 7.13-7.13c3.94 0 7.13 3.19 7.13 7.13c0 3.94-3.19 7.13-7.13 7.13z"/>
		<path id="Layer" class="s0" d="m354.24 68.61c-1.32 0-2.39-1.07-2.39-2.39c0-1.32 1.07-2.39 2.39-2.39c1.32 0 2.39 1.07 2.39 2.39c0 1.32-1.07 2.39-2.39 2.39z"/>
		<path id="Layer" class="s0" d="m399.46 134.37c-1.25 2.47-4.26 3.46-6.72 2.22c-1.9-0.96-2.92-2.97-2.72-4.96c0.02-0.21 0.05-0.42 0.1-0.63c0.09-0.39 0.22-0.77 0.41-1.13c0.05-0.1 0.11-0.2 0.17-0.3c0.05-0.22 0.09-0.45 0.11-0.69c0.18-1.94-0.75-3.7-2.22-4.52c-0.12 0.02-0.25 0.03-0.38 0.03c-1.32 0-2.39-1.07-2.39-2.39c0-1.32 1.07-2.39 2.39-2.39c1.32 0 2.39 1.07 2.39 2.39c0 0.53-0.18 1.02-0.47 1.42c0.12 1.9 1.28 3.52 2.91 4.09c1.31-0.56 2.85-0.56 4.22 0.13c2.47 1.25 3.46 4.26 2.22 6.72z"/>
		<path id="Layer" class="s0" d="m363.88 193.9c-1.32 0-2.39-1.07-2.39-2.39c0-1.32 1.07-2.39 2.39-2.39c1.32 0 2.39 1.07 2.39 2.39c0 1.32-1.07 2.39-2.39 2.39z"/>
		<path id="Layer" class="s0" d="m12.72 100.34c-1.32 0-2.39-1.07-2.39-2.39c0-1.32 1.07-2.39 2.39-2.39c1.32 0 2.39 1.07 2.39 2.39c0 1.32-1.07 2.39-2.39 2.39z"/>
		<path id="Layer" class="s0" d="m72.36 14.99c-2.82 0-5.11-2.28-5.11-5.11c0-2.82 2.28-5.11 5.11-5.11c2.82 0 5.11 2.28 5.11 5.11c0 2.82-2.28 5.11-5.11 5.11z"/>
		<path id="Layer" fill-rule="evenodd" class="s0" d="m380.09 121.75c2.13 4.07 0.55 9.09-3.52 11.22c-0.99 0.52-2.03 0.81-3.08 0.91c-1.38 0.26-6.33 1.78-9.39 10.56v11.84c0 4.55-2.42 8.38-6.16 10.56c-0.03 0.13-0.07 0.25-0.09 0.38c-0.73 3.76 1.72 7.41 5.48 8.14c0.19 0.04 0.37 0.06 0.55 0.08c-0.01 0.01-0.02 0.02-0.03 0.03c2.9 0.7 4.77 3.56 4.19 6.52c-0.59 3.04-3.54 5.03-6.58 4.44c-3.04-0.59-5.03-3.54-4.44-6.58c0.13-0.66 0.37-1.26 0.7-1.81c0.17-0.42 0.3-0.85 0.39-1.31c0.7-3.6-1.46-7.1-4.91-8.17c-0.91 0.16-1.85 0.25-2.83 0.25c-7.76 0-13.73-5.37-13.73-12.53v-16.31h-43.77c-3.76 0-7-1.29-9.42-3.37c-0.25-0.04-0.51-0.06-0.77-0.07c-4.49-0.21-8.3 3.27-8.5 7.76c-0.01 0.22-0.01 0.44 0 0.65c-0.01-0.01-0.02-0.01-0.04-0.02c-0.31 3.49-3.32 6.14-6.86 5.98c-3.63-0.17-6.44-3.25-6.28-6.88c0.17-3.63 3.25-6.44 6.88-6.28c0.8 0.04 1.56 0.21 2.25 0.51c0.5 0.12 1.02 0.2 1.55 0.22c3.97 0.18 7.42-2.45 8.44-6.15c-0.89-1.81-1.37-3.81-1.37-5.88c0-0.8 0.8-4.38 1.99-6.96l0.27-0.64c-0.37-1.2-0.83-2.4-1.4-3.57c-3.5-7.21-10.11-11.91-17.43-13.27c-1.51 18.36-10.12 34.7-23.08 46.28c0.36 1.36 0.96 3.02 1.88 5.07c0.21 0.41 0.37 0.83 0.49 1.27c7.03 11.06 21.31 9.55 36 10.63c16.73 1.24 10.69 3.87 13.16 18.02c1.66 9.47 10.07 15.03 1.47 23.49c-11.3 11.12-33.86-2.16-45.65-5.6c-14.7-4.29-25.26-3.76-39.53 1.1c-8.69 2.96-20.81 12.05-28.44 2.4c-4.87-6.16 1.37-23.53 5.62-28.33c9.87-11.13 20.14-4.58 34.26-6.95c6.74-1.13 14.79-1.75 13.78-8.11c-0.36-0.23-0.7-0.48-1-0.77c-0.06-0.06-0.12-0.11-0.18-0.17c-0.63-0.55-2.99-2.23-7.64-1.44c-9.28 4.56-19.72 7.12-30.75 7.12c-8.83 0-17.27-1.64-25.05-4.63c-6.65 4.21-9.69 12.64-6.82 20.31c0.16 0.43 0.34 0.85 0.53 1.25c-0.03 0-0.06-0.01-0.08-0.01c2.25 6.96-1.36 14.53-8.28 17.12c-7.12 2.66-15.05-0.96-17.71-8.08c-2.01-5.38-0.43-11.21 3.52-14.89c0-0.07 0.01-0.15 0.01-0.22c0.03-3.71-2.95-6.74-6.66-6.78c-0.18 0-0.36 0.01-0.54 0.02c0.01-0.01 0.01-0.02 0.02-0.04c-2.89-0.15-5.17-2.55-5.15-5.47c0.02-3 2.48-5.41 5.48-5.39c3 0.02 5.41 2.48 5.39 5.48c-0.01 0.65-0.13 1.27-0.34 1.84c-0.09 0.43-0.14 0.87-0.14 1.32c-0.03 3.35 2.35 6.16 5.53 6.81c0.31-0.14 0.63-0.28 0.95-0.4c1.58-0.59 3.19-0.87 4.78-0.87c1.05-0.18 2.09-0.46 3.12-0.84c6.03-2.25 10.07-7.51 11.09-13.46c-16.39-7.92-29.22-22.06-35.42-39.35c-2.12-0.65-4.35-1-6.65-1c-2.06 0-4.07 0.28-5.99 0.81c0.31 1.04 0.48 2.13 0.48 3.23c0 2.1-0.53 4.07-1.47 5.8c1.64 0.18 2.9 1.57 2.89 3.25c-0.02 1.79-1.48 3.23-3.27 3.21c-1.5-0.01-2.75-1.05-3.11-2.44c-2.26 1.7-5.15 2.71-8.37 2.71h-2.59v16.31c0 7.16-5.97 12.53-13.73 12.53c-7.76 0-13.73-5.37-13.73-12.53v-16.31h-43.77c-0.73 0-1.44-0.05-2.13-0.15c0 0.06 0 0.12-0.01 0.18c-0.15-0.09-0.3-0.17-0.46-0.25c-1.1-0.18-2.15-0.48-3.13-0.88c-0.47-0.03-0.95-0.03-1.43 0.02c-4.47 0.46-7.73 4.45-7.27 8.93c0.02 0.22 0.05 0.43 0.09 0.65c-0.01 0-0.03-0.01-0.04-0.02c0.2 3.5-2.39 6.57-5.91 6.93c-3.62 0.37-6.85-2.26-7.22-5.88c-0.37-3.62 2.26-6.85 5.88-7.22c0.8-0.08 1.57-0.02 2.31 0.17c0.51 0.04 1.03 0.05 1.56-0.01c3.75-0.38 6.66-3.2 7.35-6.74c-2.37-2.47-3.74-5.76-3.74-9.25c0-0.8 0.8-4.38 1.99-6.96l1.41-3.25c-0.51-0.61-1.17-1.3-2.05-2.1c-0.83-0.69-1.35-1.72-1.35-2.88c0-2.07 1.68-3.75 3.75-3.75c0.5 0 0.97 0.1 1.4 0.27c0.27 0.09 0.93 0.24 1.88 0.06l13.79-31.81c1.18 0.76 2.58 1.2 4.08 1.2c4.16 0 7.53-3.37 7.53-7.53c0-3.64-2.58-6.67-6.01-7.38c-0.9-1.2-2.24-2.64-4.21-4.37c-1.4-1.12-2.3-2.82-2.31-4.73c-0.02-3.4 2.76-6.17 6.23-6.2c0.83-0.01 1.62 0.15 2.35 0.43c0.61 0.18 2.39 0.55 4.92-0.43l6.79-15.66c1.99-4.78 7.16-7.76 12.34-7.76c3.51 0 7.07 1.61 9.69 4.13c0.21-0.83 0.96-1.44 1.86-1.44c1.06 0 1.92 0.86 1.92 1.92c0 1.01-0.78 1.84-1.77 1.91c1.27 1.91 2.04 4.1 2.04 6.41c0 1.19 0 2.59-0.8 4.38c-3.39 7.83-6.59 15.15-9.71 22.27c2.17 4.6 6.15 8.15 11.01 9.72c1.5-0.49 3.14-0.76 4.87-0.76c7.36 0 13.73 5.37 13.73 12.53v15.92c3.54 1.58 7.51 0.56 9.07-2.37c0.02-0.04 0.04-0.08 0.06-0.11c0.08-0.15 0.14-0.3 0.2-0.45c0.02 0.02 0.04 0.05 0.06 0.07c1.26-1.67 3.57-2.26 5.51-1.28c0.47 0.24 0.88 0.55 1.22 0.91c0.28 0.22 0.58 0.41 0.91 0.58c2.52 1.27 5.54 0.45 7.12-1.81c1.2-18.1 9.3-34.31 21.69-46.04c1.17-1.77 1.85-3.89 1.85-6.17c0-6.2-5.03-11.23-11.23-11.23c-0.3 0-0.6 0.02-0.9 0.04c0.01-0.02 0.02-0.03 0.03-0.05c-4.83-0.22-8.67-4.2-8.67-9.08c0-5.02 4.07-9.09 9.09-9.09c5.02 0 9.09 4.07 9.09 9.09c0 1.11-0.2 2.16-0.56 3.14c-0.13 0.7-0.21 1.41-0.21 2.14c0 6.37 5.2 11.54 11.61 11.54c1.49 0 2.92-0.28 4.23-0.8c9.99-5.51 21.47-8.65 33.68-8.65c26.99 0 50.41 15.32 62.04 37.73c4.52-1 8.19-4.67 8.95-9.51c0.05-0.31 0.08-0.62 0.1-0.92c0.01 0.01 0.02 0.02 0.03 0.02c0.22-6.29 5.39-11.31 11.73-11.31c4.6 0 8.57 2.64 10.5 6.49c0 0 0 0 0 0c0.62 1.24 1.03 2.61 1.18 4.05c0.6 1.5 1.27 2.98 1.59 3.81c2.44 6.37 9.08 9.88 15.53 8.56l14.7-33.92c1.99-4.77 7.16-7.76 12.33-7.76c1.38 0 2.78 0.25 4.12 0.71c0.16 0.06 0.33 0.12 0.49 0.18c1.05 0.4 2.06 0.93 3.01 1.57c0.99-0.01 2.25-0.15 3.85-0.46c1.18-0.29 2.48-0.07 3.53 0.71c1.88 1.39 2.27 4.05 0.87 5.93c-0.33 0.45-0.73 0.8-1.18 1.08c-0.22 0.16-0.7 0.55-1.15 1.31c0.11 0.62 0.17 1.26 0.17 1.9c0 1.19 0 2.59-0.8 4.38c-0.04 0.08-0.07 0.16-0.11 0.25c-0.14 0.33-0.29 0.66-0.43 0.99c-0.5 1.16-1 2.3-1.49 3.44c0.29 0.1 0.58 0.22 0.85 0.37c0.18 0.1 0.36 0.22 0.53 0.34c0.32 0.24 0.61 0.51 0.88 0.82c0.07 0.09 0.14 0.18 0.2 0.27c0.19 0.14 0.38 0.26 0.59 0.38c1.71 0.94 3.7 0.79 5.03-0.24c0.03-0.12 0.07-0.24 0.12-0.36c0.53-1.21 1.93-1.76 3.14-1.24c1.21 0.53 1.76 1.93 1.24 3.14c-0.53 1.21-1.93 1.76-3.14 1.24c-0.49-0.21-0.86-0.57-1.11-0.99c-1.79-0.65-3.73-0.23-4.91 1.03c-0.01 1.42-0.62 2.83-1.8 3.81c-1.62 1.35-3.84 1.49-5.59 0.55c-8.95 20.5-16.95 38.51-26.43 60.41h7.52c2.49 1.4 3.13 3.07 3.29 3.71c-0.03 0.7 0.11 1.44 0.47 2.13c1 1.91 3.23 2.72 4.98 1.8c1.23-0.64 1.89-1.95 1.84-3.34c0.5-2.21 1.04-3.53 1.57-4.3h5.2v-30.44c0-7.16 5.97-12.53 13.73-12.53c7.36 0 13.73 5.37 13.73 12.53v8.79c-4.35 1.52-7.48 5.66-7.48 10.53c0 6.08 4.87 11.02 10.91 11.15c1.72 0.78 3.97 1.57 6.91 2.34c2.34 0.5 4.45 2 5.65 4.28zm-307-48.07c-0.51-4.46-2.55-8.44-5.57-11.41c-6.91 15.76-13.54 30.75-21.1 48.22h24.87v-30.44c0-2.36 0.65-4.53 1.8-6.37zm49.84 27.8c-0.13-1.74-0.2-3.5-0.2-5.28c0-0.4 0.01-0.79 0.02-1.19c-2.63-1.14-5.73-0.05-7.04 2.54c-0.07 0.13-0.13 0.26-0.18 0.4c-0.01-0.01-0.01-0.02-0.02-0.03c-1.15 2.05-3.72 2.85-5.84 1.78c-0.49-0.25-0.91-0.58-1.26-0.96c-0.09-0.05-0.18-0.1-0.28-0.15c-3.49-1.76-7.5-0.98-9.38 1.7c-3.02 1.55-4.66 7.34-1.25 9.56c0.41 0.27 0.82 0.45 1.23 0.56v0.06h0.27c0.55 0.11 1.09 0.11 1.62 0h0.69c3.46 0 6.55 1.21 8.87 3.15c5.37-2.32 9.85-6.65 12.73-12.16zm26.12-4.03c0-1.05-0.85-1.9-1.9-1.9c-1.05 0-1.9 0.85-1.9 1.9c0 1.05 0.85 1.9 1.9 1.9c1.05 0 1.9-0.85 1.9-1.9zm23.71-47.47c0 2.12 1.72 3.84 3.84 3.84c2.12 0 3.84-1.72 3.84-3.84c0-2.12-1.72-3.84-3.84-3.84c-2.12 0-3.84 1.72-3.84 3.84zm51.6 64.78c-1.79-2.5-2.84-4.42-3.4-5.89c1.31-3.39 2.02-7.07 2.02-10.92c0-16.79-13.61-30.4-30.4-30.4c-16.79 0-30.4 13.61-30.4 30.4c0 16.79 13.61 30.4 30.4 30.4c0.85 0 1.69-0.04 2.52-0.1c2.66 2.08 3.91 5.63 2.88 9.03c-0.16 0.51-0.36 0.99-0.6 1.44c-0.46 0.6-0.82 1.29-1.05 2.06c-1.06 3.48 0.9 7.16 4.38 8.22c3.48 1.06 7.16-0.9 8.22-4.38c1.03-3.38-0.8-6.96-4.1-8.13c0.01-0.01 0.02-0.02 0.03-0.03c-0.21-0.05-0.42-0.1-0.63-0.16c-3.76-1.14-6.08-4.76-5.73-8.53c1.23-0.24 2.43-0.56 3.61-0.94c0.09 0.07 0.34-0.01 0.79-0.27c2.36-0.85 4.58-1.98 6.62-3.35c3.58-0.98 5.74 0 6.39 0.38c0.64 0.44 1.38 0.77 2.19 0.95c3.38 0.76 6.72-1.32 7.46-4.64c0.42-1.86-0.08-3.72-1.19-5.13zm-3.03 30.83c0-1.05-0.85-1.9-1.9-1.9c-1.05 0-1.9 0.85-1.9 1.9c0 1.05 0.85 1.9 1.9 1.9c1.05 0 1.9-0.85 1.9-1.9zm-31.06-4.69c0-2.44-1.98-4.42-4.42-4.42c-2.44 0-4.42 1.98-4.42 4.42c0 2.44 1.98 4.42 4.42 4.42c2.44 0 4.42-1.98 4.42-4.42zm25.24 50.25c0-0.83-0.81-1.52-1.72-1.52h-5.35v-4h4.64c0.96 0 1.69-0.69 1.69-1.57c0-0.88-0.83-1.55-1.69-1.55h-4.64v-3.95h5.1c0.93 0 1.72-0.64 1.72-1.52c0-0.86-0.78-1.59-1.72-1.59h-6.65c-1.08 0-1.89 0.88-1.89 1.74v13.81c0 1.32 1.08 1.74 2.28 1.74h6.5c0.93 0 1.71-0.71 1.71-1.6zm14.28-0.73l-3.36-5.06c2.11-0.69 3.41-2.28 3.41-4.71c0-2.57-1.47-5.2-6.08-5.2h-4.27c-1.01 0-1.86 0.81-1.86 1.77v14.13c0 0.88 0.78 1.62 1.69 1.62c0.93 0 1.74-0.76 1.74-1.62v-5.62h1.67l4.12 6.45c0.32 0.49 0.84 0.76 1.45 0.76c1.1 0 2.31-1.3 1.49-2.53zm32.6-13.2v14.13c0 0.88 0.79 1.62 1.69 1.62c0.93 0 1.74-0.76 1.74-1.62v-5.62h1.67l4.12 6.45c0.32 0.49 0.84 0.76 1.45 0.76c1.1 0 2.31-1.3 1.5-2.53l-3.36-5.06c2.11-0.69 3.41-2.28 3.41-4.71c0-2.57-1.47-5.2-6.08-5.2h-4.27c-1.01 0-1.86 0.81-1.86 1.77h0zm-15.4 4.44v4.86c0 3.58 2.13 6.45 6.38 6.45c4.24 0 6.38-2.87 6.38-6.45v-4.86c0-3.48-1.79-6.43-6.38-6.43c-4.59 0-6.38 2.94-6.38 6.43zm-15.3-68.8c2.1 0 3.8-1.7 3.8-3.8c0-2.1-1.7-3.8-3.8-3.8c-2.1 0-3.8 1.7-3.8 3.8c0 2.1 1.7 3.8 3.8 3.8zm6.91 62.59h-4.27c-1.01 0-1.86 0.81-1.86 1.77v14.13c0 0.88 0.78 1.62 1.69 1.62c0.93 0 1.74-0.76 1.74-1.62v-5.62h1.67l4.12 6.45c0.32 0.49 0.83 0.76 1.45 0.76c1.1 0 2.31-1.3 1.5-2.53l-3.36-5.06c2.11-0.69 3.41-2.28 3.41-4.71c0-2.57-1.47-5.2-6.08-5.2zm66.23-88.89c0-4.54-1.93-8.63-5.01-11.5c-0.15-0.89-0.38-1.79-0.72-2.67c-2.66-6.96-10.26-10.59-17.31-8.44c-1.83 1.18-4.01 1.87-6.36 1.87c-2.26 0-4.37-0.64-6.17-1.75c0 0.01 0 0.02 0 0.03c-0.96-0.44-1.99-0.76-3.08-0.93c-3.93-0.62-7.71 0.78-10.32 3.42c3.99 8.53 6.32 18 6.54 27.99c6.29 7.28 16.37 10.34 25.79 7.67l0.01-0.04c0.31 0.02 0.61 0.03 0.92 0.03c8.67 0 15.7-7.03 15.7-15.7zm26 41.28c0-1.06-0.86-1.92-1.92-1.92c-1.06 0-1.92 0.86-1.92 1.92c0 1.06 0.86 1.92 1.92 1.92c1.06 0 1.92-0.86 1.92-1.92z"/>
		<path id="Layer" class="s0" d="m378.93 105.99c-1.06 0-1.92-0.86-1.92-1.92c0-1.06 0.86-1.92 1.92-1.92c1.06 0 1.92 0.86 1.92 1.92c0 1.06-0.86 1.92-1.92 1.92z"/>
	</g>
</svg>