<svg version="1.2" baseProfile="tiny-ps" xmlns="http://www.w3.org/2000/svg" viewBox="0 0 24 30" width="24" height="30">
	<title>new-customer-svg</title>
	<style>
		tspan { white-space:pre }
		.s0 { fill: #70b634 }
	</style>
	<g id="Layer">
		<path id="Layer" fill-rule="evenodd" class="s0" d="m1.88 28.13h11.25v1.88h-13.13v-5.63c0-2.88 1.09-5.63 3.07-7.72c1.19-1.26 2.64-2.21 4.22-2.8c-2.12-1.33-3.54-3.68-3.54-6.35c0-4.13 3.37-7.5 7.5-7.5c4.13 0 7.5 3.37 7.5 7.5c0 2.67-1.41 5.02-3.52 6.34c1.37 0.52 2.64 1.31 3.74 2.35l-1.29 1.36c-3.76-3.55-9.71-3.38-13.25 0.38c-1.65 1.75-2.56 4.03-2.56 6.43v3.75zm9.38-15c3.1 0 5.63-2.52 5.63-5.63c0-3.1-2.52-5.63-5.63-5.63c-3.1 0-5.63 2.52-5.63 5.63c0 3.1 2.52 5.63 5.63 5.63z"/>
		<path id="Layer" class="s0" d="m23.44 25.31h-3.75v3.75h-1.88v-3.75h-3.75v-1.88h3.75v-3.75h1.88v3.75h3.75v1.88z"/>
	</g>
</svg>