<svg version="1.2" baseProfile="tiny-ps" xmlns="http://www.w3.org/2000/svg" viewBox="0 0 37 75" width="37" height="75">
	<title>review-stars-svg</title>
	<style>
		tspan { white-space:pre }
		.s0 { fill: #cccccc }
		.s1 { fill: #ffffff }
		.s2 { fill: #fec348 }
	</style>
	<path id="Layer" class="s0" d="m37 72c0 1.66-1.34 3-3 3h-31c-1.66 0-3-1.34-3-3v-31c0-1.66 1.34-3 3-3h31c1.66 0 3 1.34 3 3v31z"/>
	<g id="Layer">
		<g id="Layer">
			<path id="Layer" class="s1" d="m17.59 46.61c0.1-0.22 0.32-0.38 0.58-0.38c0.26 0 0.48 0.16 0.59 0.38c1.13 2.49 2.81 6.23 2.81 6.23c0 0 4.07 0.45 6.79 0.76c0.24 0.03 0.46 0.19 0.54 0.44c0.08 0.25 0 0.51-0.18 0.68c-2.02 1.84-5.05 4.6-5.05 4.6c0 0 0.83 4.01 1.38 6.69c0.05 0.24-0.04 0.5-0.25 0.65c-0.21 0.15-0.48 0.16-0.7 0.04c-2.37-1.35-5.93-3.38-5.93-3.38c0 0-3.56 2.03-5.94 3.38c-0.21 0.12-0.48 0.12-0.69-0.03c-0.21-0.15-0.3-0.41-0.25-0.65c0.55-2.68 1.38-6.69 1.38-6.69c0 0-3.03-2.76-5.05-4.6c-0.18-0.16-0.26-0.42-0.18-0.67c0.08-0.25 0.3-0.41 0.54-0.44c2.72-0.3 6.79-0.75 6.79-0.75c0 0 1.69-3.74 2.82-6.23z"/>
		</g>
	</g>
	<path id="Layer" class="s2" d="m37 34c0 1.66-1.34 3-3 3h-31c-1.66 0-3-1.34-3-3v-31c0-1.66 1.34-3 3-3h31c1.66 0 3 1.34 3 3v31z"/>
	<g id="Layer">
		<g id="Layer">
			<path id="Layer" class="s1" d="m17.59 8.61c0.1-0.22 0.32-0.38 0.58-0.38c0.26 0 0.48 0.15 0.59 0.38c1.12 2.49 2.81 6.23 2.81 6.23c0 0 4.07 0.45 6.79 0.76c0.24 0.03 0.46 0.19 0.54 0.44c0.08 0.25 0 0.51-0.18 0.68c-2.02 1.84-5.05 4.6-5.05 4.6c0 0 0.83 4.01 1.38 6.69c0.05 0.24-0.04 0.5-0.25 0.65c-0.21 0.15-0.48 0.16-0.7 0.04c-2.37-1.35-5.93-3.38-5.93-3.38c0 0-3.56 2.03-5.94 3.38c-0.21 0.12-0.48 0.12-0.69-0.04c-0.21-0.15-0.3-0.41-0.25-0.65c0.55-2.68 1.38-6.69 1.38-6.69c0 0-3.03-2.76-5.05-4.6c-0.18-0.16-0.26-0.42-0.18-0.67c0.08-0.25 0.3-0.41 0.54-0.44c2.72-0.3 6.79-0.75 6.79-0.75c0 0 1.69-3.74 2.82-6.23z"/>
		</g>
	</g>
</svg>