<svg version="1.2" baseProfile="tiny-ps" xmlns="http://www.w3.org/2000/svg" viewBox="0 0 201 178" width="201" height="178">
	<title>track-order-svg</title>
	<style>
		tspan { white-space:pre }
		.s0 { fill: #004dda }
	</style>
	<path id="Layer" fill-rule="evenodd" class="s0" d="m200.73 163.72h-16.15c-1.15 7.62-7.7 13.49-15.65 13.49c-7.95 0-14.49-5.87-15.65-13.49l-91.39-0.01c-1.15 7.62-7.7 13.5-15.65 13.5c-7.95 0-14.5-5.88-15.65-13.5h-29.86v-100.02h39.53l0.61 1.42c3.56 8.26 8.73 18.2 15.35 29.56c7.33 12.6 14.61 23.67 17.98 28.69c3.37-5.02 10.65-16.09 17.97-28.69c13.85-23.74 21.17-41.1 21.17-50.18c0-21.53-17.56-39.05-39.14-39.05c0 0-69.27 0-69.27 0c-1.3 0-2.35-1.05-2.35-2.35c0-1.3 1.05-2.35 2.35-2.35c0 0 69.27 0 69.27 0c24.18 0 43.84 19.62 43.84 43.74c0 4.72-1.68 11.18-4.89 19.2h28.69v29.83h37.21l21.67 19.69v50.52zm-122.11-38.53h58.53v-56.82h-25.97c-3.2 7.24-7.51 15.63-12.93 25.12h26.79v4.69h-29.48c-6.8 11.6-13.46 21.8-16.93 27zm-73.18-56.82v56.82h64.35c-3.48-5.2-10.14-15.4-16.94-27h-35.3v-4.69h32.6c-5.38-9.42-9.77-17.89-12.98-25.12h-31.74zm52 92.98c0-6.16-5.02-11.16-11.19-11.16c-6.17 0-11.18 5-11.18 11.16c0 6.15 5.02 11.16 11.18 11.16c6.17 0 11.18-5 11.19-11.16zm79.71-2.35v-29.13h-131.71v29.13h25.16c1.15-7.62 7.7-13.5 15.65-13.5c7.96 0 14.51 5.88 15.65 13.5h75.25zm42.97 2.35c0-6.16-5.02-11.16-11.18-11.16c-6.17 0-11.18 5-11.18 11.16c0 6.15 5.02 11.16 11.18 11.16c6.17 0 11.18-5 11.18-11.16zm15.91-2.33v-43.75l-18.79-17.07h-35.39v60.82h11.44c1.14-7.63 7.69-13.52 15.65-13.52c7.96 0 14.51 5.89 15.65 13.52h11.44zm-22.37-53.73l14.62 13.32v14.95h-37.3v-28.26h22.68zm9.91 15.39l-11.73-10.7h-16.16v18.88h27.89v-8.18zm-156.26-68.26c0-1.3 1.05-2.35 2.35-2.35h20.86c-0.43-1.8-0.68-3.68-0.68-5.61c0-5.59 1.92-10.72 5.11-14.83h-25.18c-1.3 0-2.35-1.05-2.35-2.35c0-1.3 1.05-2.35 2.35-2.35h29.99c4.04-2.98 9.03-4.77 14.43-4.77c13.43 0 24.35 10.9 24.35 24.3c0 13.4-10.92 24.3-24.35 24.3c-9.73 0-18.13-5.74-22.02-13.99h-22.51c-1.3 0-2.35-1.05-2.35-2.35zm27.24-7.96c0 10.81 8.81 19.6 19.65 19.6c10.83 0 19.65-8.79 19.65-19.6c0-10.81-8.81-19.6-19.65-19.6c-10.84 0-19.65 8.79-19.65 19.6zm-44.07-19.53h9.71c1.3 0 2.35 1.05 2.35 2.35c0 1.3-1.05 2.35-2.35 2.35h-9.71c-1.3 0-2.35-1.05-2.35-2.35c0-1.3 1.05-2.35 2.35-2.35zm51.05-10.56c0 1.3-1.05 2.35-2.35 2.35h-38.42c-1.3 0-2.35-1.05-2.35-2.35c0-1.3 1.05-2.35 2.35-2.35h38.42c1.3 0 2.35 1.05 2.35 2.35zm-19.72 27.83h-23.68c-1.3 0-2.35-1.05-2.35-2.35c0-1.3 1.05-2.35 2.35-2.35h23.68c1.3 0 2.35 1.05 2.35 2.35c0 1.3-1.05 2.35-2.35 2.35z"/>
</svg>