<svg version="1.2" baseProfile="tiny-ps" xmlns="http://www.w3.org/2000/svg" viewBox="0 0 22 22" width="22" height="22">
	<title>upload-camera-svg</title>
	<style>
		tspan { white-space:pre }
		.s0 { fill: #ffffff }
	</style>
	<g id="Layer">
		<path id="Layer" fill-rule="evenodd" class="s0" d="m20.22 6.71v9.34c0 0.86-0.7 1.56-1.55 1.56h-16.11c-0.86 0-1.55-0.7-1.55-1.56v-9.34c0-0.86 0.69-1.53 1.55-1.53h3.19l1.83-1.85v0c0.28-0.31 0.68-0.5 1.14-0.5h3.88c0.43 0 0.8 0.18 1.08 0.45l0.01 0.01c0 0 0.01 0.01 0.01 0.01l1.87 1.88h3.12c0.85 0 1.55 0.67 1.55 1.53zm-5.34 4.29c0-2.36-1.91-4.28-4.27-4.28c-2.35 0-4.27 1.92-4.27 4.28c0 2.35 1.92 4.28 4.27 4.28c2.36 0 4.27-1.92 4.27-4.28zm4.14-4c0-0.36-0.29-0.65-0.65-0.65c-0.36 0-0.64 0.29-0.64 0.65c0 0.36 0.29 0.65 0.64 0.65c0.36 0 0.65-0.29 0.65-0.65z"/>
		<path id="Layer" class="s0" d="m13.83 10.99c0 1.79-1.45 3.23-3.22 3.23c-1.78 0-3.22-1.45-3.22-3.23c0-1.79 1.44-3.23 3.22-3.23c1.78 0 3.22 1.45 3.22 3.23z"/>
	</g>
</svg>